%TF.GenerationSoftware,KiCad,Pcbnew,8.0.2*%
%TF.CreationDate,2024-05-21T18:13:31+02:00*%
%TF.ProjectId,Mux Brd V1,4d757820-4272-4642-9056-312e6b696361,rev?*%
%TF.SameCoordinates,Original*%
%TF.FileFunction,Drillmap*%
%TF.FilePolarity,Positive*%
%FSLAX45Y45*%
G04 Gerber Fmt 4.5, Leading zero omitted, Abs format (unit mm)*
G04 Created by KiCad (PCBNEW 8.0.2) date 2024-05-21 18:13:31*
%MOMM*%
%LPD*%
G01*
G04 APERTURE LIST*
%ADD10C,0.050000*%
%ADD11C,0.200000*%
G04 APERTURE END LIST*
D10*
X2730500Y-11734800D02*
X11620500Y-11734800D01*
X2730500Y-11734800D02*
X2730500Y-2844800D01*
X11620500Y-2844800D02*
X11620500Y-11734800D01*
X2730500Y-2844800D02*
X11620500Y-2844800D01*
D11*
X2988777Y-12048784D02*
X2988777Y-11848784D01*
X2988777Y-11848784D02*
X3036396Y-11848784D01*
X3036396Y-11848784D02*
X3064967Y-11858308D01*
X3064967Y-11858308D02*
X3084015Y-11877355D01*
X3084015Y-11877355D02*
X3093539Y-11896403D01*
X3093539Y-11896403D02*
X3103062Y-11934498D01*
X3103062Y-11934498D02*
X3103062Y-11963069D01*
X3103062Y-11963069D02*
X3093539Y-12001165D01*
X3093539Y-12001165D02*
X3084015Y-12020212D01*
X3084015Y-12020212D02*
X3064967Y-12039260D01*
X3064967Y-12039260D02*
X3036396Y-12048784D01*
X3036396Y-12048784D02*
X2988777Y-12048784D01*
X3188777Y-12048784D02*
X3188777Y-11915450D01*
X3188777Y-11953546D02*
X3198301Y-11934498D01*
X3198301Y-11934498D02*
X3207824Y-11924974D01*
X3207824Y-11924974D02*
X3226872Y-11915450D01*
X3226872Y-11915450D02*
X3245920Y-11915450D01*
X3312586Y-12048784D02*
X3312586Y-11915450D01*
X3312586Y-11848784D02*
X3303062Y-11858308D01*
X3303062Y-11858308D02*
X3312586Y-11867831D01*
X3312586Y-11867831D02*
X3322110Y-11858308D01*
X3322110Y-11858308D02*
X3312586Y-11848784D01*
X3312586Y-11848784D02*
X3312586Y-11867831D01*
X3436396Y-12048784D02*
X3417348Y-12039260D01*
X3417348Y-12039260D02*
X3407824Y-12020212D01*
X3407824Y-12020212D02*
X3407824Y-11848784D01*
X3541158Y-12048784D02*
X3522110Y-12039260D01*
X3522110Y-12039260D02*
X3512586Y-12020212D01*
X3512586Y-12020212D02*
X3512586Y-11848784D01*
X3769729Y-12048784D02*
X3769729Y-11848784D01*
X3769729Y-11848784D02*
X3836396Y-11991641D01*
X3836396Y-11991641D02*
X3903062Y-11848784D01*
X3903062Y-11848784D02*
X3903062Y-12048784D01*
X4084015Y-12048784D02*
X4084015Y-11944022D01*
X4084015Y-11944022D02*
X4074491Y-11924974D01*
X4074491Y-11924974D02*
X4055443Y-11915450D01*
X4055443Y-11915450D02*
X4017348Y-11915450D01*
X4017348Y-11915450D02*
X3998301Y-11924974D01*
X4084015Y-12039260D02*
X4064967Y-12048784D01*
X4064967Y-12048784D02*
X4017348Y-12048784D01*
X4017348Y-12048784D02*
X3998301Y-12039260D01*
X3998301Y-12039260D02*
X3988777Y-12020212D01*
X3988777Y-12020212D02*
X3988777Y-12001165D01*
X3988777Y-12001165D02*
X3998301Y-11982117D01*
X3998301Y-11982117D02*
X4017348Y-11972593D01*
X4017348Y-11972593D02*
X4064967Y-11972593D01*
X4064967Y-11972593D02*
X4084015Y-11963069D01*
X4179253Y-11915450D02*
X4179253Y-12115450D01*
X4179253Y-11924974D02*
X4198301Y-11915450D01*
X4198301Y-11915450D02*
X4236396Y-11915450D01*
X4236396Y-11915450D02*
X4255444Y-11924974D01*
X4255444Y-11924974D02*
X4264967Y-11934498D01*
X4264967Y-11934498D02*
X4274491Y-11953546D01*
X4274491Y-11953546D02*
X4274491Y-12010688D01*
X4274491Y-12010688D02*
X4264967Y-12029736D01*
X4264967Y-12029736D02*
X4255444Y-12039260D01*
X4255444Y-12039260D02*
X4236396Y-12048784D01*
X4236396Y-12048784D02*
X4198301Y-12048784D01*
X4198301Y-12048784D02*
X4179253Y-12039260D01*
X4360205Y-12029736D02*
X4369729Y-12039260D01*
X4369729Y-12039260D02*
X4360205Y-12048784D01*
X4360205Y-12048784D02*
X4350682Y-12039260D01*
X4350682Y-12039260D02*
X4360205Y-12029736D01*
X4360205Y-12029736D02*
X4360205Y-12048784D01*
X4360205Y-11924974D02*
X4369729Y-11934498D01*
X4369729Y-11934498D02*
X4360205Y-11944022D01*
X4360205Y-11944022D02*
X4350682Y-11934498D01*
X4350682Y-11934498D02*
X4360205Y-11924974D01*
X4360205Y-11924974D02*
X4360205Y-11944022D01*
M02*
