%TF.GenerationSoftware,KiCad,Pcbnew,8.0.3*%
%TF.CreationDate,2024-06-20T11:56:58+02:00*%
%TF.ProjectId,Mux Brd V1,4d757820-4272-4642-9056-312e6b696361,rev?*%
%TF.SameCoordinates,Original*%
%TF.FileFunction,OtherDrawing,Comment*%
%FSLAX46Y46*%
G04 Gerber Fmt 4.6, Leading zero omitted, Abs format (unit mm)*
G04 Created by KiCad (PCBNEW 8.0.3) date 2024-06-20 11:56:58*
%MOMM*%
%LPD*%
G01*
G04 APERTURE LIST*
%ADD10C,0.150000*%
G04 APERTURE END LIST*
D10*
X120018390Y-77326570D02*
X119970771Y-77421808D01*
X119970771Y-77421808D02*
X119923152Y-77469427D01*
X119923152Y-77469427D02*
X119827914Y-77517046D01*
X119827914Y-77517046D02*
X119780295Y-77517046D01*
X119780295Y-77517046D02*
X119685057Y-77469427D01*
X119685057Y-77469427D02*
X119637438Y-77421808D01*
X119637438Y-77421808D02*
X119589819Y-77326570D01*
X119589819Y-77326570D02*
X119589819Y-77136094D01*
X119589819Y-77136094D02*
X119637438Y-77040856D01*
X119637438Y-77040856D02*
X119685057Y-76993237D01*
X119685057Y-76993237D02*
X119780295Y-76945618D01*
X119780295Y-76945618D02*
X119827914Y-76945618D01*
X119827914Y-76945618D02*
X119923152Y-76993237D01*
X119923152Y-76993237D02*
X119970771Y-77040856D01*
X119970771Y-77040856D02*
X120018390Y-77136094D01*
X120018390Y-77136094D02*
X120018390Y-77326570D01*
X120018390Y-77326570D02*
X120066009Y-77421808D01*
X120066009Y-77421808D02*
X120113628Y-77469427D01*
X120113628Y-77469427D02*
X120208866Y-77517046D01*
X120208866Y-77517046D02*
X120399342Y-77517046D01*
X120399342Y-77517046D02*
X120494580Y-77469427D01*
X120494580Y-77469427D02*
X120542200Y-77421808D01*
X120542200Y-77421808D02*
X120589819Y-77326570D01*
X120589819Y-77326570D02*
X120589819Y-77136094D01*
X120589819Y-77136094D02*
X120542200Y-77040856D01*
X120542200Y-77040856D02*
X120494580Y-76993237D01*
X120494580Y-76993237D02*
X120399342Y-76945618D01*
X120399342Y-76945618D02*
X120208866Y-76945618D01*
X120208866Y-76945618D02*
X120113628Y-76993237D01*
X120113628Y-76993237D02*
X120066009Y-77040856D01*
X120066009Y-77040856D02*
X120018390Y-77136094D01*
X120018390Y-76374189D02*
X119970771Y-76469427D01*
X119970771Y-76469427D02*
X119923152Y-76517046D01*
X119923152Y-76517046D02*
X119827914Y-76564665D01*
X119827914Y-76564665D02*
X119780295Y-76564665D01*
X119780295Y-76564665D02*
X119685057Y-76517046D01*
X119685057Y-76517046D02*
X119637438Y-76469427D01*
X119637438Y-76469427D02*
X119589819Y-76374189D01*
X119589819Y-76374189D02*
X119589819Y-76183713D01*
X119589819Y-76183713D02*
X119637438Y-76088475D01*
X119637438Y-76088475D02*
X119685057Y-76040856D01*
X119685057Y-76040856D02*
X119780295Y-75993237D01*
X119780295Y-75993237D02*
X119827914Y-75993237D01*
X119827914Y-75993237D02*
X119923152Y-76040856D01*
X119923152Y-76040856D02*
X119970771Y-76088475D01*
X119970771Y-76088475D02*
X120018390Y-76183713D01*
X120018390Y-76183713D02*
X120018390Y-76374189D01*
X120018390Y-76374189D02*
X120066009Y-76469427D01*
X120066009Y-76469427D02*
X120113628Y-76517046D01*
X120113628Y-76517046D02*
X120208866Y-76564665D01*
X120208866Y-76564665D02*
X120399342Y-76564665D01*
X120399342Y-76564665D02*
X120494580Y-76517046D01*
X120494580Y-76517046D02*
X120542200Y-76469427D01*
X120542200Y-76469427D02*
X120589819Y-76374189D01*
X120589819Y-76374189D02*
X120589819Y-76183713D01*
X120589819Y-76183713D02*
X120542200Y-76088475D01*
X120542200Y-76088475D02*
X120494580Y-76040856D01*
X120494580Y-76040856D02*
X120399342Y-75993237D01*
X120399342Y-75993237D02*
X120208866Y-75993237D01*
X120208866Y-75993237D02*
X120113628Y-76040856D01*
X120113628Y-76040856D02*
X120066009Y-76088475D01*
X120066009Y-76088475D02*
X120018390Y-76183713D01*
X120542200Y-75517046D02*
X120589819Y-75517046D01*
X120589819Y-75517046D02*
X120685057Y-75564665D01*
X120685057Y-75564665D02*
X120732676Y-75612284D01*
X120589819Y-75040856D02*
X120589819Y-74850380D01*
X120589819Y-74850380D02*
X120542200Y-74755142D01*
X120542200Y-74755142D02*
X120494580Y-74707523D01*
X120494580Y-74707523D02*
X120351723Y-74612285D01*
X120351723Y-74612285D02*
X120161247Y-74564666D01*
X120161247Y-74564666D02*
X119780295Y-74564666D01*
X119780295Y-74564666D02*
X119685057Y-74612285D01*
X119685057Y-74612285D02*
X119637438Y-74659904D01*
X119637438Y-74659904D02*
X119589819Y-74755142D01*
X119589819Y-74755142D02*
X119589819Y-74945618D01*
X119589819Y-74945618D02*
X119637438Y-75040856D01*
X119637438Y-75040856D02*
X119685057Y-75088475D01*
X119685057Y-75088475D02*
X119780295Y-75136094D01*
X119780295Y-75136094D02*
X120018390Y-75136094D01*
X120018390Y-75136094D02*
X120113628Y-75088475D01*
X120113628Y-75088475D02*
X120161247Y-75040856D01*
X120161247Y-75040856D02*
X120208866Y-74945618D01*
X120208866Y-74945618D02*
X120208866Y-74755142D01*
X120208866Y-74755142D02*
X120161247Y-74659904D01*
X120161247Y-74659904D02*
X120113628Y-74612285D01*
X120113628Y-74612285D02*
X120018390Y-74564666D01*
X119589819Y-73945618D02*
X119589819Y-73850380D01*
X119589819Y-73850380D02*
X119637438Y-73755142D01*
X119637438Y-73755142D02*
X119685057Y-73707523D01*
X119685057Y-73707523D02*
X119780295Y-73659904D01*
X119780295Y-73659904D02*
X119970771Y-73612285D01*
X119970771Y-73612285D02*
X120208866Y-73612285D01*
X120208866Y-73612285D02*
X120399342Y-73659904D01*
X120399342Y-73659904D02*
X120494580Y-73707523D01*
X120494580Y-73707523D02*
X120542200Y-73755142D01*
X120542200Y-73755142D02*
X120589819Y-73850380D01*
X120589819Y-73850380D02*
X120589819Y-73945618D01*
X120589819Y-73945618D02*
X120542200Y-74040856D01*
X120542200Y-74040856D02*
X120494580Y-74088475D01*
X120494580Y-74088475D02*
X120399342Y-74136094D01*
X120399342Y-74136094D02*
X120208866Y-74183713D01*
X120208866Y-74183713D02*
X119970771Y-74183713D01*
X119970771Y-74183713D02*
X119780295Y-74136094D01*
X119780295Y-74136094D02*
X119685057Y-74088475D01*
X119685057Y-74088475D02*
X119637438Y-74040856D01*
X119637438Y-74040856D02*
X119589819Y-73945618D01*
X119589819Y-72993237D02*
X119589819Y-72897999D01*
X119589819Y-72897999D02*
X119637438Y-72802761D01*
X119637438Y-72802761D02*
X119685057Y-72755142D01*
X119685057Y-72755142D02*
X119780295Y-72707523D01*
X119780295Y-72707523D02*
X119970771Y-72659904D01*
X119970771Y-72659904D02*
X120208866Y-72659904D01*
X120208866Y-72659904D02*
X120399342Y-72707523D01*
X120399342Y-72707523D02*
X120494580Y-72755142D01*
X120494580Y-72755142D02*
X120542200Y-72802761D01*
X120542200Y-72802761D02*
X120589819Y-72897999D01*
X120589819Y-72897999D02*
X120589819Y-72993237D01*
X120589819Y-72993237D02*
X120542200Y-73088475D01*
X120542200Y-73088475D02*
X120494580Y-73136094D01*
X120494580Y-73136094D02*
X120399342Y-73183713D01*
X120399342Y-73183713D02*
X120208866Y-73231332D01*
X120208866Y-73231332D02*
X119970771Y-73231332D01*
X119970771Y-73231332D02*
X119780295Y-73183713D01*
X119780295Y-73183713D02*
X119685057Y-73136094D01*
X119685057Y-73136094D02*
X119637438Y-73088475D01*
X119637438Y-73088475D02*
X119589819Y-72993237D01*
X119589819Y-72040856D02*
X119589819Y-71945618D01*
X119589819Y-71945618D02*
X119637438Y-71850380D01*
X119637438Y-71850380D02*
X119685057Y-71802761D01*
X119685057Y-71802761D02*
X119780295Y-71755142D01*
X119780295Y-71755142D02*
X119970771Y-71707523D01*
X119970771Y-71707523D02*
X120208866Y-71707523D01*
X120208866Y-71707523D02*
X120399342Y-71755142D01*
X120399342Y-71755142D02*
X120494580Y-71802761D01*
X120494580Y-71802761D02*
X120542200Y-71850380D01*
X120542200Y-71850380D02*
X120589819Y-71945618D01*
X120589819Y-71945618D02*
X120589819Y-72040856D01*
X120589819Y-72040856D02*
X120542200Y-72136094D01*
X120542200Y-72136094D02*
X120494580Y-72183713D01*
X120494580Y-72183713D02*
X120399342Y-72231332D01*
X120399342Y-72231332D02*
X120208866Y-72278951D01*
X120208866Y-72278951D02*
X119970771Y-72278951D01*
X119970771Y-72278951D02*
X119780295Y-72231332D01*
X119780295Y-72231332D02*
X119685057Y-72183713D01*
X119685057Y-72183713D02*
X119637438Y-72136094D01*
X119637438Y-72136094D02*
X119589819Y-72040856D01*
X120589819Y-70517046D02*
X119923152Y-70517046D01*
X120018390Y-70517046D02*
X119970771Y-70469427D01*
X119970771Y-70469427D02*
X119923152Y-70374189D01*
X119923152Y-70374189D02*
X119923152Y-70231332D01*
X119923152Y-70231332D02*
X119970771Y-70136094D01*
X119970771Y-70136094D02*
X120066009Y-70088475D01*
X120066009Y-70088475D02*
X120589819Y-70088475D01*
X120066009Y-70088475D02*
X119970771Y-70040856D01*
X119970771Y-70040856D02*
X119923152Y-69945618D01*
X119923152Y-69945618D02*
X119923152Y-69802761D01*
X119923152Y-69802761D02*
X119970771Y-69707522D01*
X119970771Y-69707522D02*
X120066009Y-69659903D01*
X120066009Y-69659903D02*
X120589819Y-69659903D01*
X120589819Y-69183713D02*
X119923152Y-69183713D01*
X120018390Y-69183713D02*
X119970771Y-69136094D01*
X119970771Y-69136094D02*
X119923152Y-69040856D01*
X119923152Y-69040856D02*
X119923152Y-68897999D01*
X119923152Y-68897999D02*
X119970771Y-68802761D01*
X119970771Y-68802761D02*
X120066009Y-68755142D01*
X120066009Y-68755142D02*
X120589819Y-68755142D01*
X120066009Y-68755142D02*
X119970771Y-68707523D01*
X119970771Y-68707523D02*
X119923152Y-68612285D01*
X119923152Y-68612285D02*
X119923152Y-68469428D01*
X119923152Y-68469428D02*
X119970771Y-68374189D01*
X119970771Y-68374189D02*
X120066009Y-68326570D01*
X120066009Y-68326570D02*
X120589819Y-68326570D01*
X118745000Y-28448000D02*
X121871420Y-28448000D01*
X118745000Y-117348000D02*
X121871420Y-117348000D01*
X121285000Y-28448000D02*
X121285000Y-117348000D01*
X121285000Y-28448000D02*
X121285000Y-117348000D01*
X121285000Y-28448000D02*
X121871421Y-29574504D01*
X121285000Y-28448000D02*
X120698579Y-29574504D01*
X121285000Y-117348000D02*
X120698579Y-116221496D01*
X121285000Y-117348000D02*
X121871421Y-116221496D01*
X67326429Y-22101390D02*
X67231191Y-22053771D01*
X67231191Y-22053771D02*
X67183572Y-22006152D01*
X67183572Y-22006152D02*
X67135953Y-21910914D01*
X67135953Y-21910914D02*
X67135953Y-21863295D01*
X67135953Y-21863295D02*
X67183572Y-21768057D01*
X67183572Y-21768057D02*
X67231191Y-21720438D01*
X67231191Y-21720438D02*
X67326429Y-21672819D01*
X67326429Y-21672819D02*
X67516905Y-21672819D01*
X67516905Y-21672819D02*
X67612143Y-21720438D01*
X67612143Y-21720438D02*
X67659762Y-21768057D01*
X67659762Y-21768057D02*
X67707381Y-21863295D01*
X67707381Y-21863295D02*
X67707381Y-21910914D01*
X67707381Y-21910914D02*
X67659762Y-22006152D01*
X67659762Y-22006152D02*
X67612143Y-22053771D01*
X67612143Y-22053771D02*
X67516905Y-22101390D01*
X67516905Y-22101390D02*
X67326429Y-22101390D01*
X67326429Y-22101390D02*
X67231191Y-22149009D01*
X67231191Y-22149009D02*
X67183572Y-22196628D01*
X67183572Y-22196628D02*
X67135953Y-22291866D01*
X67135953Y-22291866D02*
X67135953Y-22482342D01*
X67135953Y-22482342D02*
X67183572Y-22577580D01*
X67183572Y-22577580D02*
X67231191Y-22625200D01*
X67231191Y-22625200D02*
X67326429Y-22672819D01*
X67326429Y-22672819D02*
X67516905Y-22672819D01*
X67516905Y-22672819D02*
X67612143Y-22625200D01*
X67612143Y-22625200D02*
X67659762Y-22577580D01*
X67659762Y-22577580D02*
X67707381Y-22482342D01*
X67707381Y-22482342D02*
X67707381Y-22291866D01*
X67707381Y-22291866D02*
X67659762Y-22196628D01*
X67659762Y-22196628D02*
X67612143Y-22149009D01*
X67612143Y-22149009D02*
X67516905Y-22101390D01*
X68278810Y-22101390D02*
X68183572Y-22053771D01*
X68183572Y-22053771D02*
X68135953Y-22006152D01*
X68135953Y-22006152D02*
X68088334Y-21910914D01*
X68088334Y-21910914D02*
X68088334Y-21863295D01*
X68088334Y-21863295D02*
X68135953Y-21768057D01*
X68135953Y-21768057D02*
X68183572Y-21720438D01*
X68183572Y-21720438D02*
X68278810Y-21672819D01*
X68278810Y-21672819D02*
X68469286Y-21672819D01*
X68469286Y-21672819D02*
X68564524Y-21720438D01*
X68564524Y-21720438D02*
X68612143Y-21768057D01*
X68612143Y-21768057D02*
X68659762Y-21863295D01*
X68659762Y-21863295D02*
X68659762Y-21910914D01*
X68659762Y-21910914D02*
X68612143Y-22006152D01*
X68612143Y-22006152D02*
X68564524Y-22053771D01*
X68564524Y-22053771D02*
X68469286Y-22101390D01*
X68469286Y-22101390D02*
X68278810Y-22101390D01*
X68278810Y-22101390D02*
X68183572Y-22149009D01*
X68183572Y-22149009D02*
X68135953Y-22196628D01*
X68135953Y-22196628D02*
X68088334Y-22291866D01*
X68088334Y-22291866D02*
X68088334Y-22482342D01*
X68088334Y-22482342D02*
X68135953Y-22577580D01*
X68135953Y-22577580D02*
X68183572Y-22625200D01*
X68183572Y-22625200D02*
X68278810Y-22672819D01*
X68278810Y-22672819D02*
X68469286Y-22672819D01*
X68469286Y-22672819D02*
X68564524Y-22625200D01*
X68564524Y-22625200D02*
X68612143Y-22577580D01*
X68612143Y-22577580D02*
X68659762Y-22482342D01*
X68659762Y-22482342D02*
X68659762Y-22291866D01*
X68659762Y-22291866D02*
X68612143Y-22196628D01*
X68612143Y-22196628D02*
X68564524Y-22149009D01*
X68564524Y-22149009D02*
X68469286Y-22101390D01*
X69135953Y-22625200D02*
X69135953Y-22672819D01*
X69135953Y-22672819D02*
X69088334Y-22768057D01*
X69088334Y-22768057D02*
X69040715Y-22815676D01*
X69612143Y-22672819D02*
X69802619Y-22672819D01*
X69802619Y-22672819D02*
X69897857Y-22625200D01*
X69897857Y-22625200D02*
X69945476Y-22577580D01*
X69945476Y-22577580D02*
X70040714Y-22434723D01*
X70040714Y-22434723D02*
X70088333Y-22244247D01*
X70088333Y-22244247D02*
X70088333Y-21863295D01*
X70088333Y-21863295D02*
X70040714Y-21768057D01*
X70040714Y-21768057D02*
X69993095Y-21720438D01*
X69993095Y-21720438D02*
X69897857Y-21672819D01*
X69897857Y-21672819D02*
X69707381Y-21672819D01*
X69707381Y-21672819D02*
X69612143Y-21720438D01*
X69612143Y-21720438D02*
X69564524Y-21768057D01*
X69564524Y-21768057D02*
X69516905Y-21863295D01*
X69516905Y-21863295D02*
X69516905Y-22101390D01*
X69516905Y-22101390D02*
X69564524Y-22196628D01*
X69564524Y-22196628D02*
X69612143Y-22244247D01*
X69612143Y-22244247D02*
X69707381Y-22291866D01*
X69707381Y-22291866D02*
X69897857Y-22291866D01*
X69897857Y-22291866D02*
X69993095Y-22244247D01*
X69993095Y-22244247D02*
X70040714Y-22196628D01*
X70040714Y-22196628D02*
X70088333Y-22101390D01*
X70707381Y-21672819D02*
X70802619Y-21672819D01*
X70802619Y-21672819D02*
X70897857Y-21720438D01*
X70897857Y-21720438D02*
X70945476Y-21768057D01*
X70945476Y-21768057D02*
X70993095Y-21863295D01*
X70993095Y-21863295D02*
X71040714Y-22053771D01*
X71040714Y-22053771D02*
X71040714Y-22291866D01*
X71040714Y-22291866D02*
X70993095Y-22482342D01*
X70993095Y-22482342D02*
X70945476Y-22577580D01*
X70945476Y-22577580D02*
X70897857Y-22625200D01*
X70897857Y-22625200D02*
X70802619Y-22672819D01*
X70802619Y-22672819D02*
X70707381Y-22672819D01*
X70707381Y-22672819D02*
X70612143Y-22625200D01*
X70612143Y-22625200D02*
X70564524Y-22577580D01*
X70564524Y-22577580D02*
X70516905Y-22482342D01*
X70516905Y-22482342D02*
X70469286Y-22291866D01*
X70469286Y-22291866D02*
X70469286Y-22053771D01*
X70469286Y-22053771D02*
X70516905Y-21863295D01*
X70516905Y-21863295D02*
X70564524Y-21768057D01*
X70564524Y-21768057D02*
X70612143Y-21720438D01*
X70612143Y-21720438D02*
X70707381Y-21672819D01*
X71659762Y-21672819D02*
X71755000Y-21672819D01*
X71755000Y-21672819D02*
X71850238Y-21720438D01*
X71850238Y-21720438D02*
X71897857Y-21768057D01*
X71897857Y-21768057D02*
X71945476Y-21863295D01*
X71945476Y-21863295D02*
X71993095Y-22053771D01*
X71993095Y-22053771D02*
X71993095Y-22291866D01*
X71993095Y-22291866D02*
X71945476Y-22482342D01*
X71945476Y-22482342D02*
X71897857Y-22577580D01*
X71897857Y-22577580D02*
X71850238Y-22625200D01*
X71850238Y-22625200D02*
X71755000Y-22672819D01*
X71755000Y-22672819D02*
X71659762Y-22672819D01*
X71659762Y-22672819D02*
X71564524Y-22625200D01*
X71564524Y-22625200D02*
X71516905Y-22577580D01*
X71516905Y-22577580D02*
X71469286Y-22482342D01*
X71469286Y-22482342D02*
X71421667Y-22291866D01*
X71421667Y-22291866D02*
X71421667Y-22053771D01*
X71421667Y-22053771D02*
X71469286Y-21863295D01*
X71469286Y-21863295D02*
X71516905Y-21768057D01*
X71516905Y-21768057D02*
X71564524Y-21720438D01*
X71564524Y-21720438D02*
X71659762Y-21672819D01*
X72612143Y-21672819D02*
X72707381Y-21672819D01*
X72707381Y-21672819D02*
X72802619Y-21720438D01*
X72802619Y-21720438D02*
X72850238Y-21768057D01*
X72850238Y-21768057D02*
X72897857Y-21863295D01*
X72897857Y-21863295D02*
X72945476Y-22053771D01*
X72945476Y-22053771D02*
X72945476Y-22291866D01*
X72945476Y-22291866D02*
X72897857Y-22482342D01*
X72897857Y-22482342D02*
X72850238Y-22577580D01*
X72850238Y-22577580D02*
X72802619Y-22625200D01*
X72802619Y-22625200D02*
X72707381Y-22672819D01*
X72707381Y-22672819D02*
X72612143Y-22672819D01*
X72612143Y-22672819D02*
X72516905Y-22625200D01*
X72516905Y-22625200D02*
X72469286Y-22577580D01*
X72469286Y-22577580D02*
X72421667Y-22482342D01*
X72421667Y-22482342D02*
X72374048Y-22291866D01*
X72374048Y-22291866D02*
X72374048Y-22053771D01*
X72374048Y-22053771D02*
X72421667Y-21863295D01*
X72421667Y-21863295D02*
X72469286Y-21768057D01*
X72469286Y-21768057D02*
X72516905Y-21720438D01*
X72516905Y-21720438D02*
X72612143Y-21672819D01*
X74135953Y-22672819D02*
X74135953Y-22006152D01*
X74135953Y-22101390D02*
X74183572Y-22053771D01*
X74183572Y-22053771D02*
X74278810Y-22006152D01*
X74278810Y-22006152D02*
X74421667Y-22006152D01*
X74421667Y-22006152D02*
X74516905Y-22053771D01*
X74516905Y-22053771D02*
X74564524Y-22149009D01*
X74564524Y-22149009D02*
X74564524Y-22672819D01*
X74564524Y-22149009D02*
X74612143Y-22053771D01*
X74612143Y-22053771D02*
X74707381Y-22006152D01*
X74707381Y-22006152D02*
X74850238Y-22006152D01*
X74850238Y-22006152D02*
X74945477Y-22053771D01*
X74945477Y-22053771D02*
X74993096Y-22149009D01*
X74993096Y-22149009D02*
X74993096Y-22672819D01*
X75469286Y-22672819D02*
X75469286Y-22006152D01*
X75469286Y-22101390D02*
X75516905Y-22053771D01*
X75516905Y-22053771D02*
X75612143Y-22006152D01*
X75612143Y-22006152D02*
X75755000Y-22006152D01*
X75755000Y-22006152D02*
X75850238Y-22053771D01*
X75850238Y-22053771D02*
X75897857Y-22149009D01*
X75897857Y-22149009D02*
X75897857Y-22672819D01*
X75897857Y-22149009D02*
X75945476Y-22053771D01*
X75945476Y-22053771D02*
X76040714Y-22006152D01*
X76040714Y-22006152D02*
X76183571Y-22006152D01*
X76183571Y-22006152D02*
X76278810Y-22053771D01*
X76278810Y-22053771D02*
X76326429Y-22149009D01*
X76326429Y-22149009D02*
X76326429Y-22672819D01*
X116205000Y-25908000D02*
X116205000Y-22781580D01*
X27305000Y-25908000D02*
X27305000Y-22781580D01*
X116205000Y-23368000D02*
X27305000Y-23368000D01*
X116205000Y-23368000D02*
X27305000Y-23368000D01*
X116205000Y-23368000D02*
X115078496Y-23954421D01*
X116205000Y-23368000D02*
X115078496Y-22781579D01*
X27305000Y-23368000D02*
X28431504Y-22781579D01*
X27305000Y-23368000D02*
X28431504Y-23954421D01*
X30877381Y-17592819D02*
X30305953Y-17592819D01*
X30591667Y-17592819D02*
X30591667Y-16592819D01*
X30591667Y-16592819D02*
X30496429Y-16735676D01*
X30496429Y-16735676D02*
X30401191Y-16830914D01*
X30401191Y-16830914D02*
X30305953Y-16878533D01*
X31782143Y-16592819D02*
X31305953Y-16592819D01*
X31305953Y-16592819D02*
X31258334Y-17069009D01*
X31258334Y-17069009D02*
X31305953Y-17021390D01*
X31305953Y-17021390D02*
X31401191Y-16973771D01*
X31401191Y-16973771D02*
X31639286Y-16973771D01*
X31639286Y-16973771D02*
X31734524Y-17021390D01*
X31734524Y-17021390D02*
X31782143Y-17069009D01*
X31782143Y-17069009D02*
X31829762Y-17164247D01*
X31829762Y-17164247D02*
X31829762Y-17402342D01*
X31829762Y-17402342D02*
X31782143Y-17497580D01*
X31782143Y-17497580D02*
X31734524Y-17545200D01*
X31734524Y-17545200D02*
X31639286Y-17592819D01*
X31639286Y-17592819D02*
X31401191Y-17592819D01*
X31401191Y-17592819D02*
X31305953Y-17545200D01*
X31305953Y-17545200D02*
X31258334Y-17497580D01*
X32305953Y-17545200D02*
X32305953Y-17592819D01*
X32305953Y-17592819D02*
X32258334Y-17688057D01*
X32258334Y-17688057D02*
X32210715Y-17735676D01*
X32686905Y-16688057D02*
X32734524Y-16640438D01*
X32734524Y-16640438D02*
X32829762Y-16592819D01*
X32829762Y-16592819D02*
X33067857Y-16592819D01*
X33067857Y-16592819D02*
X33163095Y-16640438D01*
X33163095Y-16640438D02*
X33210714Y-16688057D01*
X33210714Y-16688057D02*
X33258333Y-16783295D01*
X33258333Y-16783295D02*
X33258333Y-16878533D01*
X33258333Y-16878533D02*
X33210714Y-17021390D01*
X33210714Y-17021390D02*
X32639286Y-17592819D01*
X32639286Y-17592819D02*
X33258333Y-17592819D01*
X34115476Y-16926152D02*
X34115476Y-17592819D01*
X33877381Y-16545200D02*
X33639286Y-17259485D01*
X33639286Y-17259485D02*
X34258333Y-17259485D01*
X34829762Y-16592819D02*
X34925000Y-16592819D01*
X34925000Y-16592819D02*
X35020238Y-16640438D01*
X35020238Y-16640438D02*
X35067857Y-16688057D01*
X35067857Y-16688057D02*
X35115476Y-16783295D01*
X35115476Y-16783295D02*
X35163095Y-16973771D01*
X35163095Y-16973771D02*
X35163095Y-17211866D01*
X35163095Y-17211866D02*
X35115476Y-17402342D01*
X35115476Y-17402342D02*
X35067857Y-17497580D01*
X35067857Y-17497580D02*
X35020238Y-17545200D01*
X35020238Y-17545200D02*
X34925000Y-17592819D01*
X34925000Y-17592819D02*
X34829762Y-17592819D01*
X34829762Y-17592819D02*
X34734524Y-17545200D01*
X34734524Y-17545200D02*
X34686905Y-17497580D01*
X34686905Y-17497580D02*
X34639286Y-17402342D01*
X34639286Y-17402342D02*
X34591667Y-17211866D01*
X34591667Y-17211866D02*
X34591667Y-16973771D01*
X34591667Y-16973771D02*
X34639286Y-16783295D01*
X34639286Y-16783295D02*
X34686905Y-16688057D01*
X34686905Y-16688057D02*
X34734524Y-16640438D01*
X34734524Y-16640438D02*
X34829762Y-16592819D01*
X35782143Y-16592819D02*
X35877381Y-16592819D01*
X35877381Y-16592819D02*
X35972619Y-16640438D01*
X35972619Y-16640438D02*
X36020238Y-16688057D01*
X36020238Y-16688057D02*
X36067857Y-16783295D01*
X36067857Y-16783295D02*
X36115476Y-16973771D01*
X36115476Y-16973771D02*
X36115476Y-17211866D01*
X36115476Y-17211866D02*
X36067857Y-17402342D01*
X36067857Y-17402342D02*
X36020238Y-17497580D01*
X36020238Y-17497580D02*
X35972619Y-17545200D01*
X35972619Y-17545200D02*
X35877381Y-17592819D01*
X35877381Y-17592819D02*
X35782143Y-17592819D01*
X35782143Y-17592819D02*
X35686905Y-17545200D01*
X35686905Y-17545200D02*
X35639286Y-17497580D01*
X35639286Y-17497580D02*
X35591667Y-17402342D01*
X35591667Y-17402342D02*
X35544048Y-17211866D01*
X35544048Y-17211866D02*
X35544048Y-16973771D01*
X35544048Y-16973771D02*
X35591667Y-16783295D01*
X35591667Y-16783295D02*
X35639286Y-16688057D01*
X35639286Y-16688057D02*
X35686905Y-16640438D01*
X35686905Y-16640438D02*
X35782143Y-16592819D01*
X37305953Y-17592819D02*
X37305953Y-16926152D01*
X37305953Y-17021390D02*
X37353572Y-16973771D01*
X37353572Y-16973771D02*
X37448810Y-16926152D01*
X37448810Y-16926152D02*
X37591667Y-16926152D01*
X37591667Y-16926152D02*
X37686905Y-16973771D01*
X37686905Y-16973771D02*
X37734524Y-17069009D01*
X37734524Y-17069009D02*
X37734524Y-17592819D01*
X37734524Y-17069009D02*
X37782143Y-16973771D01*
X37782143Y-16973771D02*
X37877381Y-16926152D01*
X37877381Y-16926152D02*
X38020238Y-16926152D01*
X38020238Y-16926152D02*
X38115477Y-16973771D01*
X38115477Y-16973771D02*
X38163096Y-17069009D01*
X38163096Y-17069009D02*
X38163096Y-17592819D01*
X38639286Y-17592819D02*
X38639286Y-16926152D01*
X38639286Y-17021390D02*
X38686905Y-16973771D01*
X38686905Y-16973771D02*
X38782143Y-16926152D01*
X38782143Y-16926152D02*
X38925000Y-16926152D01*
X38925000Y-16926152D02*
X39020238Y-16973771D01*
X39020238Y-16973771D02*
X39067857Y-17069009D01*
X39067857Y-17069009D02*
X39067857Y-17592819D01*
X39067857Y-17069009D02*
X39115476Y-16973771D01*
X39115476Y-16973771D02*
X39210714Y-16926152D01*
X39210714Y-16926152D02*
X39353571Y-16926152D01*
X39353571Y-16926152D02*
X39448810Y-16973771D01*
X39448810Y-16973771D02*
X39496429Y-17069009D01*
X39496429Y-17069009D02*
X39496429Y-17592819D01*
X42545000Y-20828000D02*
X42545000Y-17701580D01*
X27305000Y-20828000D02*
X27305000Y-17701580D01*
X42545000Y-18288000D02*
X27305000Y-18288000D01*
X42545000Y-18288000D02*
X27305000Y-18288000D01*
X42545000Y-18288000D02*
X41418496Y-18874421D01*
X42545000Y-18288000D02*
X41418496Y-17701579D01*
X27305000Y-18288000D02*
X28431504Y-17701579D01*
X27305000Y-18288000D02*
X28431504Y-18874421D01*
X27154266Y-84781876D02*
X27154266Y-84141876D01*
X27154266Y-84141876D02*
X27519981Y-84781876D01*
X27519981Y-84781876D02*
X27519981Y-84141876D01*
X28099028Y-84781876D02*
X28099028Y-84446638D01*
X28099028Y-84446638D02*
X28068552Y-84385685D01*
X28068552Y-84385685D02*
X28007600Y-84355209D01*
X28007600Y-84355209D02*
X27885695Y-84355209D01*
X27885695Y-84355209D02*
X27824742Y-84385685D01*
X28099028Y-84751400D02*
X28038076Y-84781876D01*
X28038076Y-84781876D02*
X27885695Y-84781876D01*
X27885695Y-84781876D02*
X27824742Y-84751400D01*
X27824742Y-84751400D02*
X27794266Y-84690447D01*
X27794266Y-84690447D02*
X27794266Y-84629495D01*
X27794266Y-84629495D02*
X27824742Y-84568542D01*
X27824742Y-84568542D02*
X27885695Y-84538066D01*
X27885695Y-84538066D02*
X28038076Y-84538066D01*
X28038076Y-84538066D02*
X28099028Y-84507590D01*
X28403790Y-84781876D02*
X28403790Y-84355209D01*
X28403790Y-84416161D02*
X28434267Y-84385685D01*
X28434267Y-84385685D02*
X28495219Y-84355209D01*
X28495219Y-84355209D02*
X28586648Y-84355209D01*
X28586648Y-84355209D02*
X28647600Y-84385685D01*
X28647600Y-84385685D02*
X28678076Y-84446638D01*
X28678076Y-84446638D02*
X28678076Y-84781876D01*
X28678076Y-84446638D02*
X28708552Y-84385685D01*
X28708552Y-84385685D02*
X28769505Y-84355209D01*
X28769505Y-84355209D02*
X28860933Y-84355209D01*
X28860933Y-84355209D02*
X28921886Y-84385685D01*
X28921886Y-84385685D02*
X28952362Y-84446638D01*
X28952362Y-84446638D02*
X28952362Y-84781876D01*
X29500933Y-84751400D02*
X29439981Y-84781876D01*
X29439981Y-84781876D02*
X29318076Y-84781876D01*
X29318076Y-84781876D02*
X29257123Y-84751400D01*
X29257123Y-84751400D02*
X29226647Y-84690447D01*
X29226647Y-84690447D02*
X29226647Y-84446638D01*
X29226647Y-84446638D02*
X29257123Y-84385685D01*
X29257123Y-84385685D02*
X29318076Y-84355209D01*
X29318076Y-84355209D02*
X29439981Y-84355209D01*
X29439981Y-84355209D02*
X29500933Y-84385685D01*
X29500933Y-84385685D02*
X29531409Y-84446638D01*
X29531409Y-84446638D02*
X29531409Y-84507590D01*
X29531409Y-84507590D02*
X29226647Y-84568542D01*
X27499714Y-92954676D02*
X27713047Y-93594676D01*
X27713047Y-93594676D02*
X27926381Y-92954676D01*
X28413999Y-93594676D02*
X28413999Y-93259438D01*
X28413999Y-93259438D02*
X28383523Y-93198485D01*
X28383523Y-93198485D02*
X28322571Y-93168009D01*
X28322571Y-93168009D02*
X28200666Y-93168009D01*
X28200666Y-93168009D02*
X28139713Y-93198485D01*
X28413999Y-93564200D02*
X28353047Y-93594676D01*
X28353047Y-93594676D02*
X28200666Y-93594676D01*
X28200666Y-93594676D02*
X28139713Y-93564200D01*
X28139713Y-93564200D02*
X28109237Y-93503247D01*
X28109237Y-93503247D02*
X28109237Y-93442295D01*
X28109237Y-93442295D02*
X28139713Y-93381342D01*
X28139713Y-93381342D02*
X28200666Y-93350866D01*
X28200666Y-93350866D02*
X28353047Y-93350866D01*
X28353047Y-93350866D02*
X28413999Y-93320390D01*
X28810190Y-93594676D02*
X28749238Y-93564200D01*
X28749238Y-93564200D02*
X28718761Y-93503247D01*
X28718761Y-93503247D02*
X28718761Y-92954676D01*
X29328285Y-93168009D02*
X29328285Y-93594676D01*
X29053999Y-93168009D02*
X29053999Y-93503247D01*
X29053999Y-93503247D02*
X29084476Y-93564200D01*
X29084476Y-93564200D02*
X29145428Y-93594676D01*
X29145428Y-93594676D02*
X29236857Y-93594676D01*
X29236857Y-93594676D02*
X29297809Y-93564200D01*
X29297809Y-93564200D02*
X29328285Y-93533723D01*
X29876857Y-93564200D02*
X29815905Y-93594676D01*
X29815905Y-93594676D02*
X29694000Y-93594676D01*
X29694000Y-93594676D02*
X29633047Y-93564200D01*
X29633047Y-93564200D02*
X29602571Y-93503247D01*
X29602571Y-93503247D02*
X29602571Y-93259438D01*
X29602571Y-93259438D02*
X29633047Y-93198485D01*
X29633047Y-93198485D02*
X29694000Y-93168009D01*
X29694000Y-93168009D02*
X29815905Y-93168009D01*
X29815905Y-93168009D02*
X29876857Y-93198485D01*
X29876857Y-93198485D02*
X29907333Y-93259438D01*
X29907333Y-93259438D02*
X29907333Y-93320390D01*
X29907333Y-93320390D02*
X29602571Y-93381342D01*
X33981876Y-117371733D02*
X33341876Y-117371733D01*
X33341876Y-117371733D02*
X33981876Y-117006018D01*
X33981876Y-117006018D02*
X33341876Y-117006018D01*
X33981876Y-116426971D02*
X33646638Y-116426971D01*
X33646638Y-116426971D02*
X33585685Y-116457447D01*
X33585685Y-116457447D02*
X33555209Y-116518399D01*
X33555209Y-116518399D02*
X33555209Y-116640304D01*
X33555209Y-116640304D02*
X33585685Y-116701257D01*
X33951400Y-116426971D02*
X33981876Y-116487923D01*
X33981876Y-116487923D02*
X33981876Y-116640304D01*
X33981876Y-116640304D02*
X33951400Y-116701257D01*
X33951400Y-116701257D02*
X33890447Y-116731733D01*
X33890447Y-116731733D02*
X33829495Y-116731733D01*
X33829495Y-116731733D02*
X33768542Y-116701257D01*
X33768542Y-116701257D02*
X33738066Y-116640304D01*
X33738066Y-116640304D02*
X33738066Y-116487923D01*
X33738066Y-116487923D02*
X33707590Y-116426971D01*
X33981876Y-116122209D02*
X33555209Y-116122209D01*
X33616161Y-116122209D02*
X33585685Y-116091732D01*
X33585685Y-116091732D02*
X33555209Y-116030780D01*
X33555209Y-116030780D02*
X33555209Y-115939351D01*
X33555209Y-115939351D02*
X33585685Y-115878399D01*
X33585685Y-115878399D02*
X33646638Y-115847923D01*
X33646638Y-115847923D02*
X33981876Y-115847923D01*
X33646638Y-115847923D02*
X33585685Y-115817447D01*
X33585685Y-115817447D02*
X33555209Y-115756494D01*
X33555209Y-115756494D02*
X33555209Y-115665066D01*
X33555209Y-115665066D02*
X33585685Y-115604113D01*
X33585685Y-115604113D02*
X33646638Y-115573637D01*
X33646638Y-115573637D02*
X33981876Y-115573637D01*
X33951400Y-115025066D02*
X33981876Y-115086018D01*
X33981876Y-115086018D02*
X33981876Y-115207923D01*
X33981876Y-115207923D02*
X33951400Y-115268876D01*
X33951400Y-115268876D02*
X33890447Y-115299352D01*
X33890447Y-115299352D02*
X33646638Y-115299352D01*
X33646638Y-115299352D02*
X33585685Y-115268876D01*
X33585685Y-115268876D02*
X33555209Y-115207923D01*
X33555209Y-115207923D02*
X33555209Y-115086018D01*
X33555209Y-115086018D02*
X33585685Y-115025066D01*
X33585685Y-115025066D02*
X33646638Y-114994590D01*
X33646638Y-114994590D02*
X33707590Y-114994590D01*
X33707590Y-114994590D02*
X33768542Y-115299352D01*
X42154676Y-117026285D02*
X42794676Y-116812952D01*
X42794676Y-116812952D02*
X42154676Y-116599618D01*
X42794676Y-116112000D02*
X42459438Y-116112000D01*
X42459438Y-116112000D02*
X42398485Y-116142476D01*
X42398485Y-116142476D02*
X42368009Y-116203428D01*
X42368009Y-116203428D02*
X42368009Y-116325333D01*
X42368009Y-116325333D02*
X42398485Y-116386286D01*
X42764200Y-116112000D02*
X42794676Y-116172952D01*
X42794676Y-116172952D02*
X42794676Y-116325333D01*
X42794676Y-116325333D02*
X42764200Y-116386286D01*
X42764200Y-116386286D02*
X42703247Y-116416762D01*
X42703247Y-116416762D02*
X42642295Y-116416762D01*
X42642295Y-116416762D02*
X42581342Y-116386286D01*
X42581342Y-116386286D02*
X42550866Y-116325333D01*
X42550866Y-116325333D02*
X42550866Y-116172952D01*
X42550866Y-116172952D02*
X42520390Y-116112000D01*
X42794676Y-115715809D02*
X42764200Y-115776761D01*
X42764200Y-115776761D02*
X42703247Y-115807238D01*
X42703247Y-115807238D02*
X42154676Y-115807238D01*
X42368009Y-115197714D02*
X42794676Y-115197714D01*
X42368009Y-115472000D02*
X42703247Y-115472000D01*
X42703247Y-115472000D02*
X42764200Y-115441523D01*
X42764200Y-115441523D02*
X42794676Y-115380571D01*
X42794676Y-115380571D02*
X42794676Y-115289142D01*
X42794676Y-115289142D02*
X42764200Y-115228190D01*
X42764200Y-115228190D02*
X42733723Y-115197714D01*
X42764200Y-114649142D02*
X42794676Y-114710094D01*
X42794676Y-114710094D02*
X42794676Y-114831999D01*
X42794676Y-114831999D02*
X42764200Y-114892952D01*
X42764200Y-114892952D02*
X42703247Y-114923428D01*
X42703247Y-114923428D02*
X42459438Y-114923428D01*
X42459438Y-114923428D02*
X42398485Y-114892952D01*
X42398485Y-114892952D02*
X42368009Y-114831999D01*
X42368009Y-114831999D02*
X42368009Y-114710094D01*
X42368009Y-114710094D02*
X42398485Y-114649142D01*
X42398485Y-114649142D02*
X42459438Y-114618666D01*
X42459438Y-114618666D02*
X42520390Y-114618666D01*
X42520390Y-114618666D02*
X42581342Y-114923428D01*
X52314676Y-117026285D02*
X52954676Y-116812952D01*
X52954676Y-116812952D02*
X52314676Y-116599618D01*
X52954676Y-116112000D02*
X52619438Y-116112000D01*
X52619438Y-116112000D02*
X52558485Y-116142476D01*
X52558485Y-116142476D02*
X52528009Y-116203428D01*
X52528009Y-116203428D02*
X52528009Y-116325333D01*
X52528009Y-116325333D02*
X52558485Y-116386286D01*
X52924200Y-116112000D02*
X52954676Y-116172952D01*
X52954676Y-116172952D02*
X52954676Y-116325333D01*
X52954676Y-116325333D02*
X52924200Y-116386286D01*
X52924200Y-116386286D02*
X52863247Y-116416762D01*
X52863247Y-116416762D02*
X52802295Y-116416762D01*
X52802295Y-116416762D02*
X52741342Y-116386286D01*
X52741342Y-116386286D02*
X52710866Y-116325333D01*
X52710866Y-116325333D02*
X52710866Y-116172952D01*
X52710866Y-116172952D02*
X52680390Y-116112000D01*
X52954676Y-115715809D02*
X52924200Y-115776761D01*
X52924200Y-115776761D02*
X52863247Y-115807238D01*
X52863247Y-115807238D02*
X52314676Y-115807238D01*
X52528009Y-115197714D02*
X52954676Y-115197714D01*
X52528009Y-115472000D02*
X52863247Y-115472000D01*
X52863247Y-115472000D02*
X52924200Y-115441523D01*
X52924200Y-115441523D02*
X52954676Y-115380571D01*
X52954676Y-115380571D02*
X52954676Y-115289142D01*
X52954676Y-115289142D02*
X52924200Y-115228190D01*
X52924200Y-115228190D02*
X52893723Y-115197714D01*
X52924200Y-114649142D02*
X52954676Y-114710094D01*
X52954676Y-114710094D02*
X52954676Y-114831999D01*
X52954676Y-114831999D02*
X52924200Y-114892952D01*
X52924200Y-114892952D02*
X52863247Y-114923428D01*
X52863247Y-114923428D02*
X52619438Y-114923428D01*
X52619438Y-114923428D02*
X52558485Y-114892952D01*
X52558485Y-114892952D02*
X52528009Y-114831999D01*
X52528009Y-114831999D02*
X52528009Y-114710094D01*
X52528009Y-114710094D02*
X52558485Y-114649142D01*
X52558485Y-114649142D02*
X52619438Y-114618666D01*
X52619438Y-114618666D02*
X52680390Y-114618666D01*
X52680390Y-114618666D02*
X52741342Y-114923428D01*
X44141876Y-117371733D02*
X43501876Y-117371733D01*
X43501876Y-117371733D02*
X44141876Y-117006018D01*
X44141876Y-117006018D02*
X43501876Y-117006018D01*
X44141876Y-116426971D02*
X43806638Y-116426971D01*
X43806638Y-116426971D02*
X43745685Y-116457447D01*
X43745685Y-116457447D02*
X43715209Y-116518399D01*
X43715209Y-116518399D02*
X43715209Y-116640304D01*
X43715209Y-116640304D02*
X43745685Y-116701257D01*
X44111400Y-116426971D02*
X44141876Y-116487923D01*
X44141876Y-116487923D02*
X44141876Y-116640304D01*
X44141876Y-116640304D02*
X44111400Y-116701257D01*
X44111400Y-116701257D02*
X44050447Y-116731733D01*
X44050447Y-116731733D02*
X43989495Y-116731733D01*
X43989495Y-116731733D02*
X43928542Y-116701257D01*
X43928542Y-116701257D02*
X43898066Y-116640304D01*
X43898066Y-116640304D02*
X43898066Y-116487923D01*
X43898066Y-116487923D02*
X43867590Y-116426971D01*
X44141876Y-116122209D02*
X43715209Y-116122209D01*
X43776161Y-116122209D02*
X43745685Y-116091732D01*
X43745685Y-116091732D02*
X43715209Y-116030780D01*
X43715209Y-116030780D02*
X43715209Y-115939351D01*
X43715209Y-115939351D02*
X43745685Y-115878399D01*
X43745685Y-115878399D02*
X43806638Y-115847923D01*
X43806638Y-115847923D02*
X44141876Y-115847923D01*
X43806638Y-115847923D02*
X43745685Y-115817447D01*
X43745685Y-115817447D02*
X43715209Y-115756494D01*
X43715209Y-115756494D02*
X43715209Y-115665066D01*
X43715209Y-115665066D02*
X43745685Y-115604113D01*
X43745685Y-115604113D02*
X43806638Y-115573637D01*
X43806638Y-115573637D02*
X44141876Y-115573637D01*
X44111400Y-115025066D02*
X44141876Y-115086018D01*
X44141876Y-115086018D02*
X44141876Y-115207923D01*
X44141876Y-115207923D02*
X44111400Y-115268876D01*
X44111400Y-115268876D02*
X44050447Y-115299352D01*
X44050447Y-115299352D02*
X43806638Y-115299352D01*
X43806638Y-115299352D02*
X43745685Y-115268876D01*
X43745685Y-115268876D02*
X43715209Y-115207923D01*
X43715209Y-115207923D02*
X43715209Y-115086018D01*
X43715209Y-115086018D02*
X43745685Y-115025066D01*
X43745685Y-115025066D02*
X43806638Y-114994590D01*
X43806638Y-114994590D02*
X43867590Y-114994590D01*
X43867590Y-114994590D02*
X43928542Y-115299352D01*
X62474676Y-117026285D02*
X63114676Y-116812952D01*
X63114676Y-116812952D02*
X62474676Y-116599618D01*
X63114676Y-116112000D02*
X62779438Y-116112000D01*
X62779438Y-116112000D02*
X62718485Y-116142476D01*
X62718485Y-116142476D02*
X62688009Y-116203428D01*
X62688009Y-116203428D02*
X62688009Y-116325333D01*
X62688009Y-116325333D02*
X62718485Y-116386286D01*
X63084200Y-116112000D02*
X63114676Y-116172952D01*
X63114676Y-116172952D02*
X63114676Y-116325333D01*
X63114676Y-116325333D02*
X63084200Y-116386286D01*
X63084200Y-116386286D02*
X63023247Y-116416762D01*
X63023247Y-116416762D02*
X62962295Y-116416762D01*
X62962295Y-116416762D02*
X62901342Y-116386286D01*
X62901342Y-116386286D02*
X62870866Y-116325333D01*
X62870866Y-116325333D02*
X62870866Y-116172952D01*
X62870866Y-116172952D02*
X62840390Y-116112000D01*
X63114676Y-115715809D02*
X63084200Y-115776761D01*
X63084200Y-115776761D02*
X63023247Y-115807238D01*
X63023247Y-115807238D02*
X62474676Y-115807238D01*
X62688009Y-115197714D02*
X63114676Y-115197714D01*
X62688009Y-115472000D02*
X63023247Y-115472000D01*
X63023247Y-115472000D02*
X63084200Y-115441523D01*
X63084200Y-115441523D02*
X63114676Y-115380571D01*
X63114676Y-115380571D02*
X63114676Y-115289142D01*
X63114676Y-115289142D02*
X63084200Y-115228190D01*
X63084200Y-115228190D02*
X63053723Y-115197714D01*
X63084200Y-114649142D02*
X63114676Y-114710094D01*
X63114676Y-114710094D02*
X63114676Y-114831999D01*
X63114676Y-114831999D02*
X63084200Y-114892952D01*
X63084200Y-114892952D02*
X63023247Y-114923428D01*
X63023247Y-114923428D02*
X62779438Y-114923428D01*
X62779438Y-114923428D02*
X62718485Y-114892952D01*
X62718485Y-114892952D02*
X62688009Y-114831999D01*
X62688009Y-114831999D02*
X62688009Y-114710094D01*
X62688009Y-114710094D02*
X62718485Y-114649142D01*
X62718485Y-114649142D02*
X62779438Y-114618666D01*
X62779438Y-114618666D02*
X62840390Y-114618666D01*
X62840390Y-114618666D02*
X62901342Y-114923428D01*
X54301876Y-117371733D02*
X53661876Y-117371733D01*
X53661876Y-117371733D02*
X54301876Y-117006018D01*
X54301876Y-117006018D02*
X53661876Y-117006018D01*
X54301876Y-116426971D02*
X53966638Y-116426971D01*
X53966638Y-116426971D02*
X53905685Y-116457447D01*
X53905685Y-116457447D02*
X53875209Y-116518399D01*
X53875209Y-116518399D02*
X53875209Y-116640304D01*
X53875209Y-116640304D02*
X53905685Y-116701257D01*
X54271400Y-116426971D02*
X54301876Y-116487923D01*
X54301876Y-116487923D02*
X54301876Y-116640304D01*
X54301876Y-116640304D02*
X54271400Y-116701257D01*
X54271400Y-116701257D02*
X54210447Y-116731733D01*
X54210447Y-116731733D02*
X54149495Y-116731733D01*
X54149495Y-116731733D02*
X54088542Y-116701257D01*
X54088542Y-116701257D02*
X54058066Y-116640304D01*
X54058066Y-116640304D02*
X54058066Y-116487923D01*
X54058066Y-116487923D02*
X54027590Y-116426971D01*
X54301876Y-116122209D02*
X53875209Y-116122209D01*
X53936161Y-116122209D02*
X53905685Y-116091732D01*
X53905685Y-116091732D02*
X53875209Y-116030780D01*
X53875209Y-116030780D02*
X53875209Y-115939351D01*
X53875209Y-115939351D02*
X53905685Y-115878399D01*
X53905685Y-115878399D02*
X53966638Y-115847923D01*
X53966638Y-115847923D02*
X54301876Y-115847923D01*
X53966638Y-115847923D02*
X53905685Y-115817447D01*
X53905685Y-115817447D02*
X53875209Y-115756494D01*
X53875209Y-115756494D02*
X53875209Y-115665066D01*
X53875209Y-115665066D02*
X53905685Y-115604113D01*
X53905685Y-115604113D02*
X53966638Y-115573637D01*
X53966638Y-115573637D02*
X54301876Y-115573637D01*
X54271400Y-115025066D02*
X54301876Y-115086018D01*
X54301876Y-115086018D02*
X54301876Y-115207923D01*
X54301876Y-115207923D02*
X54271400Y-115268876D01*
X54271400Y-115268876D02*
X54210447Y-115299352D01*
X54210447Y-115299352D02*
X53966638Y-115299352D01*
X53966638Y-115299352D02*
X53905685Y-115268876D01*
X53905685Y-115268876D02*
X53875209Y-115207923D01*
X53875209Y-115207923D02*
X53875209Y-115086018D01*
X53875209Y-115086018D02*
X53905685Y-115025066D01*
X53905685Y-115025066D02*
X53966638Y-114994590D01*
X53966638Y-114994590D02*
X54027590Y-114994590D01*
X54027590Y-114994590D02*
X54088542Y-115299352D01*
X72634676Y-117026285D02*
X73274676Y-116812952D01*
X73274676Y-116812952D02*
X72634676Y-116599618D01*
X73274676Y-116112000D02*
X72939438Y-116112000D01*
X72939438Y-116112000D02*
X72878485Y-116142476D01*
X72878485Y-116142476D02*
X72848009Y-116203428D01*
X72848009Y-116203428D02*
X72848009Y-116325333D01*
X72848009Y-116325333D02*
X72878485Y-116386286D01*
X73244200Y-116112000D02*
X73274676Y-116172952D01*
X73274676Y-116172952D02*
X73274676Y-116325333D01*
X73274676Y-116325333D02*
X73244200Y-116386286D01*
X73244200Y-116386286D02*
X73183247Y-116416762D01*
X73183247Y-116416762D02*
X73122295Y-116416762D01*
X73122295Y-116416762D02*
X73061342Y-116386286D01*
X73061342Y-116386286D02*
X73030866Y-116325333D01*
X73030866Y-116325333D02*
X73030866Y-116172952D01*
X73030866Y-116172952D02*
X73000390Y-116112000D01*
X73274676Y-115715809D02*
X73244200Y-115776761D01*
X73244200Y-115776761D02*
X73183247Y-115807238D01*
X73183247Y-115807238D02*
X72634676Y-115807238D01*
X72848009Y-115197714D02*
X73274676Y-115197714D01*
X72848009Y-115472000D02*
X73183247Y-115472000D01*
X73183247Y-115472000D02*
X73244200Y-115441523D01*
X73244200Y-115441523D02*
X73274676Y-115380571D01*
X73274676Y-115380571D02*
X73274676Y-115289142D01*
X73274676Y-115289142D02*
X73244200Y-115228190D01*
X73244200Y-115228190D02*
X73213723Y-115197714D01*
X73244200Y-114649142D02*
X73274676Y-114710094D01*
X73274676Y-114710094D02*
X73274676Y-114831999D01*
X73274676Y-114831999D02*
X73244200Y-114892952D01*
X73244200Y-114892952D02*
X73183247Y-114923428D01*
X73183247Y-114923428D02*
X72939438Y-114923428D01*
X72939438Y-114923428D02*
X72878485Y-114892952D01*
X72878485Y-114892952D02*
X72848009Y-114831999D01*
X72848009Y-114831999D02*
X72848009Y-114710094D01*
X72848009Y-114710094D02*
X72878485Y-114649142D01*
X72878485Y-114649142D02*
X72939438Y-114618666D01*
X72939438Y-114618666D02*
X73000390Y-114618666D01*
X73000390Y-114618666D02*
X73061342Y-114923428D01*
X64461876Y-117371733D02*
X63821876Y-117371733D01*
X63821876Y-117371733D02*
X64461876Y-117006018D01*
X64461876Y-117006018D02*
X63821876Y-117006018D01*
X64461876Y-116426971D02*
X64126638Y-116426971D01*
X64126638Y-116426971D02*
X64065685Y-116457447D01*
X64065685Y-116457447D02*
X64035209Y-116518399D01*
X64035209Y-116518399D02*
X64035209Y-116640304D01*
X64035209Y-116640304D02*
X64065685Y-116701257D01*
X64431400Y-116426971D02*
X64461876Y-116487923D01*
X64461876Y-116487923D02*
X64461876Y-116640304D01*
X64461876Y-116640304D02*
X64431400Y-116701257D01*
X64431400Y-116701257D02*
X64370447Y-116731733D01*
X64370447Y-116731733D02*
X64309495Y-116731733D01*
X64309495Y-116731733D02*
X64248542Y-116701257D01*
X64248542Y-116701257D02*
X64218066Y-116640304D01*
X64218066Y-116640304D02*
X64218066Y-116487923D01*
X64218066Y-116487923D02*
X64187590Y-116426971D01*
X64461876Y-116122209D02*
X64035209Y-116122209D01*
X64096161Y-116122209D02*
X64065685Y-116091732D01*
X64065685Y-116091732D02*
X64035209Y-116030780D01*
X64035209Y-116030780D02*
X64035209Y-115939351D01*
X64035209Y-115939351D02*
X64065685Y-115878399D01*
X64065685Y-115878399D02*
X64126638Y-115847923D01*
X64126638Y-115847923D02*
X64461876Y-115847923D01*
X64126638Y-115847923D02*
X64065685Y-115817447D01*
X64065685Y-115817447D02*
X64035209Y-115756494D01*
X64035209Y-115756494D02*
X64035209Y-115665066D01*
X64035209Y-115665066D02*
X64065685Y-115604113D01*
X64065685Y-115604113D02*
X64126638Y-115573637D01*
X64126638Y-115573637D02*
X64461876Y-115573637D01*
X64431400Y-115025066D02*
X64461876Y-115086018D01*
X64461876Y-115086018D02*
X64461876Y-115207923D01*
X64461876Y-115207923D02*
X64431400Y-115268876D01*
X64431400Y-115268876D02*
X64370447Y-115299352D01*
X64370447Y-115299352D02*
X64126638Y-115299352D01*
X64126638Y-115299352D02*
X64065685Y-115268876D01*
X64065685Y-115268876D02*
X64035209Y-115207923D01*
X64035209Y-115207923D02*
X64035209Y-115086018D01*
X64035209Y-115086018D02*
X64065685Y-115025066D01*
X64065685Y-115025066D02*
X64126638Y-114994590D01*
X64126638Y-114994590D02*
X64187590Y-114994590D01*
X64187590Y-114994590D02*
X64248542Y-115299352D01*
X82794676Y-117026285D02*
X83434676Y-116812952D01*
X83434676Y-116812952D02*
X82794676Y-116599618D01*
X83434676Y-116112000D02*
X83099438Y-116112000D01*
X83099438Y-116112000D02*
X83038485Y-116142476D01*
X83038485Y-116142476D02*
X83008009Y-116203428D01*
X83008009Y-116203428D02*
X83008009Y-116325333D01*
X83008009Y-116325333D02*
X83038485Y-116386286D01*
X83404200Y-116112000D02*
X83434676Y-116172952D01*
X83434676Y-116172952D02*
X83434676Y-116325333D01*
X83434676Y-116325333D02*
X83404200Y-116386286D01*
X83404200Y-116386286D02*
X83343247Y-116416762D01*
X83343247Y-116416762D02*
X83282295Y-116416762D01*
X83282295Y-116416762D02*
X83221342Y-116386286D01*
X83221342Y-116386286D02*
X83190866Y-116325333D01*
X83190866Y-116325333D02*
X83190866Y-116172952D01*
X83190866Y-116172952D02*
X83160390Y-116112000D01*
X83434676Y-115715809D02*
X83404200Y-115776761D01*
X83404200Y-115776761D02*
X83343247Y-115807238D01*
X83343247Y-115807238D02*
X82794676Y-115807238D01*
X83008009Y-115197714D02*
X83434676Y-115197714D01*
X83008009Y-115472000D02*
X83343247Y-115472000D01*
X83343247Y-115472000D02*
X83404200Y-115441523D01*
X83404200Y-115441523D02*
X83434676Y-115380571D01*
X83434676Y-115380571D02*
X83434676Y-115289142D01*
X83434676Y-115289142D02*
X83404200Y-115228190D01*
X83404200Y-115228190D02*
X83373723Y-115197714D01*
X83404200Y-114649142D02*
X83434676Y-114710094D01*
X83434676Y-114710094D02*
X83434676Y-114831999D01*
X83434676Y-114831999D02*
X83404200Y-114892952D01*
X83404200Y-114892952D02*
X83343247Y-114923428D01*
X83343247Y-114923428D02*
X83099438Y-114923428D01*
X83099438Y-114923428D02*
X83038485Y-114892952D01*
X83038485Y-114892952D02*
X83008009Y-114831999D01*
X83008009Y-114831999D02*
X83008009Y-114710094D01*
X83008009Y-114710094D02*
X83038485Y-114649142D01*
X83038485Y-114649142D02*
X83099438Y-114618666D01*
X83099438Y-114618666D02*
X83160390Y-114618666D01*
X83160390Y-114618666D02*
X83221342Y-114923428D01*
X74621876Y-117371733D02*
X73981876Y-117371733D01*
X73981876Y-117371733D02*
X74621876Y-117006018D01*
X74621876Y-117006018D02*
X73981876Y-117006018D01*
X74621876Y-116426971D02*
X74286638Y-116426971D01*
X74286638Y-116426971D02*
X74225685Y-116457447D01*
X74225685Y-116457447D02*
X74195209Y-116518399D01*
X74195209Y-116518399D02*
X74195209Y-116640304D01*
X74195209Y-116640304D02*
X74225685Y-116701257D01*
X74591400Y-116426971D02*
X74621876Y-116487923D01*
X74621876Y-116487923D02*
X74621876Y-116640304D01*
X74621876Y-116640304D02*
X74591400Y-116701257D01*
X74591400Y-116701257D02*
X74530447Y-116731733D01*
X74530447Y-116731733D02*
X74469495Y-116731733D01*
X74469495Y-116731733D02*
X74408542Y-116701257D01*
X74408542Y-116701257D02*
X74378066Y-116640304D01*
X74378066Y-116640304D02*
X74378066Y-116487923D01*
X74378066Y-116487923D02*
X74347590Y-116426971D01*
X74621876Y-116122209D02*
X74195209Y-116122209D01*
X74256161Y-116122209D02*
X74225685Y-116091732D01*
X74225685Y-116091732D02*
X74195209Y-116030780D01*
X74195209Y-116030780D02*
X74195209Y-115939351D01*
X74195209Y-115939351D02*
X74225685Y-115878399D01*
X74225685Y-115878399D02*
X74286638Y-115847923D01*
X74286638Y-115847923D02*
X74621876Y-115847923D01*
X74286638Y-115847923D02*
X74225685Y-115817447D01*
X74225685Y-115817447D02*
X74195209Y-115756494D01*
X74195209Y-115756494D02*
X74195209Y-115665066D01*
X74195209Y-115665066D02*
X74225685Y-115604113D01*
X74225685Y-115604113D02*
X74286638Y-115573637D01*
X74286638Y-115573637D02*
X74621876Y-115573637D01*
X74591400Y-115025066D02*
X74621876Y-115086018D01*
X74621876Y-115086018D02*
X74621876Y-115207923D01*
X74621876Y-115207923D02*
X74591400Y-115268876D01*
X74591400Y-115268876D02*
X74530447Y-115299352D01*
X74530447Y-115299352D02*
X74286638Y-115299352D01*
X74286638Y-115299352D02*
X74225685Y-115268876D01*
X74225685Y-115268876D02*
X74195209Y-115207923D01*
X74195209Y-115207923D02*
X74195209Y-115086018D01*
X74195209Y-115086018D02*
X74225685Y-115025066D01*
X74225685Y-115025066D02*
X74286638Y-114994590D01*
X74286638Y-114994590D02*
X74347590Y-114994590D01*
X74347590Y-114994590D02*
X74408542Y-115299352D01*
X92954676Y-117026285D02*
X93594676Y-116812952D01*
X93594676Y-116812952D02*
X92954676Y-116599618D01*
X93594676Y-116112000D02*
X93259438Y-116112000D01*
X93259438Y-116112000D02*
X93198485Y-116142476D01*
X93198485Y-116142476D02*
X93168009Y-116203428D01*
X93168009Y-116203428D02*
X93168009Y-116325333D01*
X93168009Y-116325333D02*
X93198485Y-116386286D01*
X93564200Y-116112000D02*
X93594676Y-116172952D01*
X93594676Y-116172952D02*
X93594676Y-116325333D01*
X93594676Y-116325333D02*
X93564200Y-116386286D01*
X93564200Y-116386286D02*
X93503247Y-116416762D01*
X93503247Y-116416762D02*
X93442295Y-116416762D01*
X93442295Y-116416762D02*
X93381342Y-116386286D01*
X93381342Y-116386286D02*
X93350866Y-116325333D01*
X93350866Y-116325333D02*
X93350866Y-116172952D01*
X93350866Y-116172952D02*
X93320390Y-116112000D01*
X93594676Y-115715809D02*
X93564200Y-115776761D01*
X93564200Y-115776761D02*
X93503247Y-115807238D01*
X93503247Y-115807238D02*
X92954676Y-115807238D01*
X93168009Y-115197714D02*
X93594676Y-115197714D01*
X93168009Y-115472000D02*
X93503247Y-115472000D01*
X93503247Y-115472000D02*
X93564200Y-115441523D01*
X93564200Y-115441523D02*
X93594676Y-115380571D01*
X93594676Y-115380571D02*
X93594676Y-115289142D01*
X93594676Y-115289142D02*
X93564200Y-115228190D01*
X93564200Y-115228190D02*
X93533723Y-115197714D01*
X93564200Y-114649142D02*
X93594676Y-114710094D01*
X93594676Y-114710094D02*
X93594676Y-114831999D01*
X93594676Y-114831999D02*
X93564200Y-114892952D01*
X93564200Y-114892952D02*
X93503247Y-114923428D01*
X93503247Y-114923428D02*
X93259438Y-114923428D01*
X93259438Y-114923428D02*
X93198485Y-114892952D01*
X93198485Y-114892952D02*
X93168009Y-114831999D01*
X93168009Y-114831999D02*
X93168009Y-114710094D01*
X93168009Y-114710094D02*
X93198485Y-114649142D01*
X93198485Y-114649142D02*
X93259438Y-114618666D01*
X93259438Y-114618666D02*
X93320390Y-114618666D01*
X93320390Y-114618666D02*
X93381342Y-114923428D01*
X84781876Y-117371733D02*
X84141876Y-117371733D01*
X84141876Y-117371733D02*
X84781876Y-117006018D01*
X84781876Y-117006018D02*
X84141876Y-117006018D01*
X84781876Y-116426971D02*
X84446638Y-116426971D01*
X84446638Y-116426971D02*
X84385685Y-116457447D01*
X84385685Y-116457447D02*
X84355209Y-116518399D01*
X84355209Y-116518399D02*
X84355209Y-116640304D01*
X84355209Y-116640304D02*
X84385685Y-116701257D01*
X84751400Y-116426971D02*
X84781876Y-116487923D01*
X84781876Y-116487923D02*
X84781876Y-116640304D01*
X84781876Y-116640304D02*
X84751400Y-116701257D01*
X84751400Y-116701257D02*
X84690447Y-116731733D01*
X84690447Y-116731733D02*
X84629495Y-116731733D01*
X84629495Y-116731733D02*
X84568542Y-116701257D01*
X84568542Y-116701257D02*
X84538066Y-116640304D01*
X84538066Y-116640304D02*
X84538066Y-116487923D01*
X84538066Y-116487923D02*
X84507590Y-116426971D01*
X84781876Y-116122209D02*
X84355209Y-116122209D01*
X84416161Y-116122209D02*
X84385685Y-116091732D01*
X84385685Y-116091732D02*
X84355209Y-116030780D01*
X84355209Y-116030780D02*
X84355209Y-115939351D01*
X84355209Y-115939351D02*
X84385685Y-115878399D01*
X84385685Y-115878399D02*
X84446638Y-115847923D01*
X84446638Y-115847923D02*
X84781876Y-115847923D01*
X84446638Y-115847923D02*
X84385685Y-115817447D01*
X84385685Y-115817447D02*
X84355209Y-115756494D01*
X84355209Y-115756494D02*
X84355209Y-115665066D01*
X84355209Y-115665066D02*
X84385685Y-115604113D01*
X84385685Y-115604113D02*
X84446638Y-115573637D01*
X84446638Y-115573637D02*
X84781876Y-115573637D01*
X84751400Y-115025066D02*
X84781876Y-115086018D01*
X84781876Y-115086018D02*
X84781876Y-115207923D01*
X84781876Y-115207923D02*
X84751400Y-115268876D01*
X84751400Y-115268876D02*
X84690447Y-115299352D01*
X84690447Y-115299352D02*
X84446638Y-115299352D01*
X84446638Y-115299352D02*
X84385685Y-115268876D01*
X84385685Y-115268876D02*
X84355209Y-115207923D01*
X84355209Y-115207923D02*
X84355209Y-115086018D01*
X84355209Y-115086018D02*
X84385685Y-115025066D01*
X84385685Y-115025066D02*
X84446638Y-114994590D01*
X84446638Y-114994590D02*
X84507590Y-114994590D01*
X84507590Y-114994590D02*
X84568542Y-115299352D01*
M02*
