M48
; DRILL file {KiCad 8.0.3} date 2024-06-20T11:56:50+0200
; FORMAT={-:-/ absolute / inch / decimal}
; #@! TF.CreationDate,2024-06-20T11:56:50+02:00
; #@! TF.GenerationSoftware,Kicad,Pcbnew,8.0.3
; #@! TF.FileFunction,Plated,1,2,PTH
FMAT,2
INCH
; #@! TA.AperFunction,Plated,PTH,ViaDrill
T1C0.0157
; #@! TA.AperFunction,Plated,PTH,ComponentDrill
T2C0.0315
; #@! TA.AperFunction,Plated,PTH,ComponentDrill
T3C0.0394
; #@! TA.AperFunction,Plated,PTH,ComponentDrill
T4C0.1260
%
G90
G05
T1
X1.12Y-4.376
X1.125Y-1.345
X1.125Y-2.87
X1.25Y-3.6
X1.2525Y-3.5425
X1.2825Y-3.3925
X1.285Y-3.2
X1.285Y-3.3
X1.3Y-4.55
X1.325Y-3.11
X1.3325Y-3.5
X1.365Y-3.29
X1.365Y-3.3925
X1.3675Y-3.185
X1.4Y-4.425
X1.405Y-3.03
X1.4075Y-3.57
X1.4075Y-3.72
X1.4075Y-3.88
X1.4075Y-4.03
X1.4075Y-4.15
X1.4075Y-4.245
X1.41Y-3.215
X1.4175Y-3.32
X1.4175Y-3.43
X1.425Y-1.445
X1.4425Y-3.0975
X1.45Y-4.305
X1.46Y-4.3925
X1.485Y-2.95
X1.49Y-2.88
X1.49Y-3.17
X1.49Y-3.255
X1.49Y-3.9875
X1.49Y-4.0875
X1.49Y-4.1975
X1.4925Y-3.3375
X1.4925Y-3.44
X1.4925Y-3.6075
X1.4925Y-3.7475
X1.5025Y-3.0425
X1.5025Y-3.8725
X1.5375Y-4.2775
X1.5425Y-4.3875
X1.545Y-3.1025
X1.56Y-2.875
X1.568Y-2.98
X1.575Y-3.3125
X1.575Y-3.445
X1.575Y-3.6
X1.575Y-3.72
X1.5875Y-3.17
X1.595Y-3.835
X1.595Y-3.9525
X1.6Y-4.425
X1.62Y-3.031
X1.637Y-2.912
X1.65Y-1.7215
X1.66Y-4.0175
X1.6625Y-3.095
X1.68Y-3.9225
X1.685Y-2.81
X1.685Y-3.565
X1.685Y-3.68
X1.69Y-3.8025
X1.6925Y-2.9625
X1.7Y-3.225
X1.7Y-4.54
X1.705Y-3.4375
X1.72Y-4.0775
X1.744Y-2.888
X1.75Y-3.14
X1.7625Y-3.735
X1.765Y-3.51
X1.765Y-3.635
X1.765Y-3.8725
X1.7675Y-4.015
X1.77Y-3.06
X1.77Y-3.21
X1.78Y-4.1375
X1.8Y-2.81
X1.8Y-4.425
X1.8125Y-3.6925
X1.815Y-2.9625
X1.825Y-3.8125
X1.845Y-3.9525
X1.8475Y-4.2025
X1.85Y-1.27
X1.85Y-2.245
X1.85Y-3.44
X1.86Y-4.3325
X1.8625Y-4.1025
X1.863Y-2.887
X1.865Y-3.0425
X1.88Y-3.7625
X1.8875Y-3.35
X1.895Y-2.7475
X1.895Y-3.8875
X1.9025Y-3.19
X1.91Y-3.64
X1.915Y-4.0225
X1.931Y-2.839
X1.935Y-4.175
X1.94Y-4.28
X1.94Y-4.37
X1.9475Y-3.83
X1.955Y-2.956
X1.9575Y-3.4025
X1.97Y-3.96
X1.975Y-3.05
X1.99Y-2.715
X1.995Y-2.805
X1.995Y-3.3325
X1.995Y-3.47
X1.995Y-4.1025
X2.0Y-3.195
X2.0Y-4.425
X2.025Y-3.775
X2.045Y-4.0375
X2.05Y-2.9925
X2.0775Y-3.415
X2.0775Y-3.8675
X2.085Y-4.1925
X2.09Y-2.715
X2.09Y-2.8025
X2.0925Y-3.095
X2.0975Y-3.1875
X2.1Y-4.55
X2.11Y-3.0125
X2.125Y-3.7
X2.1275Y-3.78
X2.1275Y-4.12
X2.145Y-3.4625
X2.155Y-3.335
X2.1625Y-2.8975
X2.165Y-4.2725
X2.17Y-2.805
X2.19Y-2.7125
X2.195Y-4.1875
X2.2Y-4.425
X2.205Y-3.4025
X2.2075Y-3.8675
X2.2225Y-3.78
X2.2375Y-2.8375
X2.24Y-3.1525
X2.2575Y-2.7325
X2.2575Y-4.3675
X2.27Y-4.2625
X2.275Y-1.27
X2.275Y-2.245
X2.275Y-3.4425
X2.29Y-3.095
X2.3Y-3.34
X2.3075Y-2.7825
X2.3275Y-2.85
X2.3275Y-3.7825
X2.33Y-3.175
X2.3325Y-2.92
X2.345Y-4.3375
X2.3475Y-3.8675
X2.35Y-3.635
X2.3675Y-3.715
X2.375Y-3.44
X2.4Y-3.1325
X2.4Y-4.425
X2.425Y-3.7825
X2.485Y-3.01
X2.485Y-3.4425
X2.49Y-3.715
X2.4975Y-3.315
X2.4975Y-3.8675
X2.5Y-3.0875
X2.5Y-3.185
X2.5Y-4.55
X2.5025Y-3.635
X2.54Y-3.7825
X2.6Y-4.425
X2.605Y-3.4425
X2.6075Y-3.16
X2.615Y-3.715
X2.6225Y-3.635
X2.625Y-2.245
X2.6275Y-3.8675
X2.633Y-1.618
X2.6475Y-3.3575
X2.65Y-3.975
X2.6575Y-3.7825
X2.6575Y-4.075
X2.6575Y-4.175
X2.6575Y-4.275
X2.6575Y-4.35
X2.6975Y-3.2
X2.7Y-1.27
X2.7Y-3.28
X2.7Y-3.925
X2.705Y-3.4425
X2.7075Y-3.65
X2.71Y-3.74
X2.715Y-3.355
X2.7225Y-3.0125
X2.74Y-4.125
X2.74Y-4.25
X2.74Y-4.35
X2.755Y-3.8675
X2.76Y-1.63
X2.76Y-1.96
X2.7625Y-4.025
X2.7725Y-3.66
X2.7725Y-3.74
X2.78Y-3.5
X2.78Y-3.58
X2.7825Y-3.7825
X2.7925Y-3.3825
X2.8Y-4.425
X2.8225Y-3.96
X2.825Y-3.625
X2.825Y-3.9
X2.84Y-1.63
X2.84Y-1.94
X2.8675Y-3.195
X2.8725Y-3.4675
X2.8725Y-3.5575
X2.8725Y-3.74
X2.895Y-3.8675
X2.8975Y-3.66
X2.9Y-4.55
X2.915Y-3.7825
X2.935Y-1.656
X2.941Y-1.846
X2.9775Y-3.66
X2.9825Y-3.8975
X2.9825Y-3.9975
X2.9825Y-4.1225
X2.9825Y-4.2475
X2.9825Y-4.3475
X2.985Y-3.0125
X3.0Y-4.425
X3.01Y-3.74
X3.0425Y-3.805
X3.065Y-3.9
X3.065Y-4.0
X3.065Y-4.1
X3.065Y-4.2
X3.065Y-4.3
X3.0775Y-3.66
X3.0975Y-4.3875
X3.125Y-1.745
X3.1275Y-3.745
X3.145Y-2.08
X3.1875Y-3.66
X3.2Y-4.425
X3.24Y-3.1925
X3.25Y-3.7425
X3.2525Y-3.01
X3.3Y-4.55
X3.3025Y-3.6675
X3.3175Y-3.8025
X3.325Y-1.995
X3.35Y-2.345
X3.3575Y-3.72
X3.361Y-2.812
X3.3975Y-3.8825
X3.4Y-4.425
X3.425Y-3.7925
X3.4525Y-4.3475
X3.4575Y-4.005
X3.4575Y-4.105
X3.4575Y-4.23
X3.464Y-3.098
X3.515Y-3.8775
X3.54Y-4.35
X3.5425Y-3.995
X3.5425Y-4.115
X3.5425Y-4.235
X3.55Y-2.47
X3.55Y-2.777
X3.6Y-4.425
X3.7Y-4.55
X4.525Y-1.345
X4.525Y-2.87
X4.528Y-4.364
T2
X1.85Y-3.25
X1.85Y-3.55
X1.95Y-3.25
X1.95Y-3.55
X2.05Y-3.25
X2.05Y-3.55
X2.15Y-3.25
X2.15Y-3.55
X2.25Y-3.25
X2.25Y-3.55
X2.35Y-3.25
X2.35Y-3.55
X2.45Y-3.25
X2.45Y-3.55
X2.55Y-3.25
X2.55Y-3.55
T3
X1.65Y-1.449
X1.65Y-1.549
X1.652Y-2.031
X1.652Y-2.131
X1.75Y-1.449
X1.75Y-1.549
X1.752Y-2.031
X1.752Y-2.131
X1.85Y-1.449
X1.85Y-1.549
X1.852Y-2.031
X1.852Y-2.131
X1.95Y-1.449
X1.95Y-1.549
X1.952Y-2.031
X1.952Y-2.131
X2.05Y-1.449
X2.05Y-1.549
X2.052Y-2.031
X2.052Y-2.131
X2.15Y-1.449
X2.15Y-1.549
X2.152Y-2.031
X2.152Y-2.131
X2.25Y-1.449
X2.25Y-1.549
X2.252Y-2.031
X2.252Y-2.131
X2.35Y-1.449
X2.35Y-1.549
X2.352Y-2.031
X2.352Y-2.131
X2.45Y-1.449
X2.45Y-1.549
X2.452Y-2.031
X2.452Y-2.131
X2.55Y-1.449
X2.55Y-1.549
X2.552Y-2.031
X2.552Y-2.131
X2.65Y-1.449
X2.65Y-1.549
X2.652Y-2.031
X2.652Y-2.131
X2.75Y-1.449
X2.75Y-1.549
X2.752Y-2.031
X2.752Y-2.131
X2.85Y-1.449
X2.85Y-1.549
X2.852Y-2.031
X2.852Y-2.131
T4
X1.2Y-1.245
X1.2Y-4.495
X4.45Y-1.245
X4.45Y-4.495
M30
