%TF.GenerationSoftware,KiCad,Pcbnew,8.0.2*%
%TF.CreationDate,2024-05-21T18:13:31+02:00*%
%TF.ProjectId,Mux Brd V1,4d757820-4272-4642-9056-312e6b696361,rev?*%
%TF.SameCoordinates,Original*%
%TF.FileFunction,Drillmap*%
%TF.FilePolarity,Positive*%
%FSLAX45Y45*%
G04 Gerber Fmt 4.5, Leading zero omitted, Abs format (unit mm)*
G04 Created by KiCad (PCBNEW 8.0.2) date 2024-05-21 18:13:31*
%MOMM*%
%LPD*%
G01*
G04 APERTURE LIST*
%ADD10C,0.050000*%
%ADD11C,0.200000*%
%ADD12C,0.100000*%
%ADD13C,0.320000*%
G04 APERTURE END LIST*
D10*
X2730500Y-11734800D02*
X11620500Y-11734800D01*
X2730500Y-11734800D02*
X2730500Y-2844800D01*
X11620500Y-2844800D02*
X11620500Y-11734800D01*
X2730500Y-2844800D02*
X11620500Y-2844800D01*
D11*
D12*
X2824800Y-11095040D02*
X2864800Y-11135040D01*
X2864800Y-11095040D02*
X2824800Y-11135040D01*
X2837500Y-3396300D02*
X2877500Y-3436300D01*
X2877500Y-3396300D02*
X2837500Y-3436300D01*
X2837500Y-7269800D02*
X2877500Y-7309800D01*
X2877500Y-7269800D02*
X2837500Y-7309800D01*
X3155000Y-9124000D02*
X3195000Y-9164000D01*
X3195000Y-9124000D02*
X3155000Y-9164000D01*
X3161350Y-8977950D02*
X3201350Y-9017950D01*
X3201350Y-8977950D02*
X3161350Y-9017950D01*
X3237550Y-8596950D02*
X3277550Y-8636950D01*
X3277550Y-8596950D02*
X3237550Y-8636950D01*
X3243900Y-8108000D02*
X3283900Y-8148000D01*
X3283900Y-8108000D02*
X3243900Y-8148000D01*
X3243900Y-8362000D02*
X3283900Y-8402000D01*
X3283900Y-8362000D02*
X3243900Y-8402000D01*
X3282000Y-11537000D02*
X3322000Y-11577000D01*
X3322000Y-11537000D02*
X3282000Y-11577000D01*
X3345500Y-7879400D02*
X3385500Y-7919400D01*
X3385500Y-7879400D02*
X3345500Y-7919400D01*
X3364550Y-8870000D02*
X3404550Y-8910000D01*
X3404550Y-8870000D02*
X3364550Y-8910000D01*
X3447100Y-8336600D02*
X3487100Y-8376600D01*
X3487100Y-8336600D02*
X3447100Y-8376600D01*
X3447100Y-8596950D02*
X3487100Y-8636950D01*
X3487100Y-8596950D02*
X3447100Y-8636950D01*
X3453450Y-8069900D02*
X3493450Y-8109900D01*
X3493450Y-8069900D02*
X3453450Y-8109900D01*
X3536000Y-11219501D02*
X3576000Y-11259501D01*
X3576000Y-11219501D02*
X3536000Y-11259501D01*
X3548700Y-7676200D02*
X3588700Y-7716200D01*
X3588700Y-7676200D02*
X3548700Y-7716200D01*
X3555050Y-9047800D02*
X3595050Y-9087800D01*
X3595050Y-9047800D02*
X3555050Y-9087800D01*
X3555050Y-9428800D02*
X3595050Y-9468800D01*
X3595050Y-9428800D02*
X3555050Y-9468800D01*
X3555050Y-9835200D02*
X3595050Y-9875200D01*
X3595050Y-9835200D02*
X3555050Y-9875200D01*
X3555050Y-10216200D02*
X3595050Y-10256200D01*
X3595050Y-10216200D02*
X3555050Y-10256200D01*
X3555050Y-10521000D02*
X3595050Y-10561000D01*
X3595050Y-10521000D02*
X3555050Y-10561000D01*
X3555050Y-10762300D02*
X3595050Y-10802300D01*
X3595050Y-10762300D02*
X3555050Y-10802300D01*
X3561400Y-8146100D02*
X3601400Y-8186100D01*
X3601400Y-8146100D02*
X3561400Y-8186100D01*
X3580450Y-8412800D02*
X3620450Y-8452800D01*
X3620450Y-8412800D02*
X3580450Y-8452800D01*
X3580450Y-8692200D02*
X3620450Y-8732200D01*
X3620450Y-8692200D02*
X3580450Y-8732200D01*
X3599500Y-3650300D02*
X3639500Y-3690300D01*
X3639500Y-3650300D02*
X3599500Y-3690300D01*
X3643950Y-7847650D02*
X3683950Y-7887650D01*
X3683950Y-7847650D02*
X3643950Y-7887650D01*
X3663000Y-10914700D02*
X3703000Y-10954700D01*
X3703000Y-10914700D02*
X3663000Y-10954700D01*
X3688400Y-11136950D02*
X3728400Y-11176950D01*
X3728400Y-11136950D02*
X3688400Y-11176950D01*
X3751900Y-7473000D02*
X3791900Y-7513000D01*
X3791900Y-7473000D02*
X3751900Y-7513000D01*
X3764600Y-7295200D02*
X3804600Y-7335200D01*
X3804600Y-7295200D02*
X3764600Y-7335200D01*
X3764600Y-8031800D02*
X3804600Y-8071800D01*
X3804600Y-8031800D02*
X3764600Y-8071800D01*
X3764600Y-8247700D02*
X3804600Y-8287700D01*
X3804600Y-8247700D02*
X3764600Y-8287700D01*
X3764600Y-10108250D02*
X3804600Y-10148250D01*
X3804600Y-10108250D02*
X3764600Y-10148250D01*
X3764600Y-10362250D02*
X3804600Y-10402250D01*
X3804600Y-10362250D02*
X3764600Y-10402250D01*
X3764600Y-10641650D02*
X3804600Y-10681650D01*
X3804600Y-10641650D02*
X3764600Y-10681650D01*
X3770950Y-8457250D02*
X3810950Y-8497250D01*
X3810950Y-8457250D02*
X3770950Y-8497250D01*
X3770950Y-8717600D02*
X3810950Y-8757600D01*
X3810950Y-8717600D02*
X3770950Y-8757600D01*
X3770950Y-9143050D02*
X3810950Y-9183050D01*
X3810950Y-9143050D02*
X3770950Y-9183050D01*
X3770950Y-9498650D02*
X3810950Y-9538650D01*
X3810950Y-9498650D02*
X3770950Y-9538650D01*
X3796350Y-7707950D02*
X3836350Y-7747950D01*
X3836350Y-7707950D02*
X3796350Y-7747950D01*
X3796350Y-9816150D02*
X3836350Y-9856150D01*
X3836350Y-9816150D02*
X3796350Y-9856150D01*
X3885250Y-10844850D02*
X3925250Y-10884850D01*
X3925250Y-10844850D02*
X3885250Y-10884850D01*
X3897950Y-11124250D02*
X3937950Y-11164250D01*
X3937950Y-11124250D02*
X3897950Y-11164250D01*
X3904300Y-7860350D02*
X3944300Y-7900350D01*
X3944300Y-7860350D02*
X3904300Y-7900350D01*
X3942400Y-7282500D02*
X3982400Y-7322500D01*
X3982400Y-7282500D02*
X3942400Y-7322500D01*
X3962720Y-7549200D02*
X4002720Y-7589200D01*
X4002720Y-7549200D02*
X3962720Y-7589200D01*
X3980500Y-8393750D02*
X4020500Y-8433750D01*
X4020500Y-8393750D02*
X3980500Y-8433750D01*
X3980500Y-8730300D02*
X4020500Y-8770300D01*
X4020500Y-8730300D02*
X3980500Y-8770300D01*
X3980500Y-9124000D02*
X4020500Y-9164000D01*
X4020500Y-9124000D02*
X3980500Y-9164000D01*
X3980500Y-9428800D02*
X4020500Y-9468800D01*
X4020500Y-9428800D02*
X3980500Y-9468800D01*
X4012250Y-8031800D02*
X4052250Y-8071800D01*
X4052250Y-8031800D02*
X4012250Y-8071800D01*
X4031300Y-9720900D02*
X4071300Y-9760900D01*
X4071300Y-9720900D02*
X4031300Y-9760900D01*
X4031300Y-10019350D02*
X4071300Y-10059350D01*
X4071300Y-10019350D02*
X4031300Y-10059350D01*
X4044000Y-11219500D02*
X4084000Y-11259500D01*
X4084000Y-11219500D02*
X4044000Y-11259500D01*
X4094800Y-7678740D02*
X4134800Y-7718740D01*
X4134800Y-7678740D02*
X4094800Y-7718740D01*
X4137980Y-7376480D02*
X4177980Y-7416480D01*
X4177980Y-7376480D02*
X4137980Y-7416480D01*
X4171000Y-4352500D02*
X4211000Y-4392500D01*
X4211000Y-4352500D02*
X4171000Y-4392500D01*
X4196400Y-10184450D02*
X4236400Y-10224450D01*
X4236400Y-10184450D02*
X4196400Y-10224450D01*
X4202750Y-7841300D02*
X4242750Y-7881300D01*
X4242750Y-7841300D02*
X4202750Y-7881300D01*
X4247200Y-9943150D02*
X4287200Y-9983150D01*
X4287200Y-9943150D02*
X4247200Y-9983150D01*
X4259900Y-7117400D02*
X4299900Y-7157400D01*
X4299900Y-7117400D02*
X4259900Y-7157400D01*
X4259900Y-9035100D02*
X4299900Y-9075100D01*
X4299900Y-9035100D02*
X4259900Y-9075100D01*
X4259900Y-9327200D02*
X4299900Y-9367200D01*
X4299900Y-9327200D02*
X4259900Y-9367200D01*
X4272600Y-9638350D02*
X4312600Y-9678350D01*
X4312600Y-9638350D02*
X4272600Y-9678350D01*
X4278950Y-7504750D02*
X4318950Y-7544750D01*
X4318950Y-7504750D02*
X4278950Y-7544750D01*
X4298000Y-8171500D02*
X4338000Y-8211500D01*
X4338000Y-8171500D02*
X4298000Y-8211500D01*
X4298000Y-11511600D02*
X4338000Y-11551600D01*
X4338000Y-11511600D02*
X4298000Y-11551600D01*
X4310700Y-8711250D02*
X4350700Y-8751250D01*
X4350700Y-8711250D02*
X4310700Y-8751250D01*
X4348800Y-10336850D02*
X4388800Y-10376850D01*
X4388800Y-10336850D02*
X4348800Y-10376850D01*
X4409760Y-7315520D02*
X4449760Y-7355520D01*
X4449760Y-7315520D02*
X4409760Y-7355520D01*
X4425000Y-7955600D02*
X4465000Y-7995600D01*
X4465000Y-7955600D02*
X4425000Y-7995600D01*
X4456750Y-9466900D02*
X4496750Y-9506900D01*
X4496750Y-9466900D02*
X4456750Y-9506900D01*
X4463100Y-8895400D02*
X4503100Y-8935400D01*
X4503100Y-8895400D02*
X4463100Y-8935400D01*
X4463100Y-9212900D02*
X4503100Y-9252900D01*
X4503100Y-9212900D02*
X4463100Y-9252900D01*
X4463100Y-9816150D02*
X4503100Y-9856150D01*
X4503100Y-9816150D02*
X4463100Y-9856150D01*
X4469450Y-10178100D02*
X4509450Y-10218100D01*
X4509450Y-10178100D02*
X4469450Y-10218100D01*
X4475800Y-7752400D02*
X4515800Y-7792400D01*
X4515800Y-7752400D02*
X4475800Y-7792400D01*
X4475800Y-8133400D02*
X4515800Y-8173400D01*
X4515800Y-8133400D02*
X4475800Y-8173400D01*
X4501200Y-10489250D02*
X4541200Y-10529250D01*
X4541200Y-10489250D02*
X4501200Y-10529250D01*
X4552000Y-7117400D02*
X4592000Y-7157400D01*
X4592000Y-7117400D02*
X4552000Y-7157400D01*
X4552000Y-11219500D02*
X4592000Y-11259500D01*
X4592000Y-11219500D02*
X4552000Y-11259500D01*
X4583750Y-9358950D02*
X4623750Y-9398950D01*
X4623750Y-9358950D02*
X4583750Y-9398950D01*
X4590100Y-7504750D02*
X4630100Y-7544750D01*
X4630100Y-7504750D02*
X4590100Y-7544750D01*
X4615500Y-9663750D02*
X4655500Y-9703750D01*
X4655500Y-9663750D02*
X4615500Y-9703750D01*
X4666300Y-10019350D02*
X4706300Y-10059350D01*
X4706300Y-10019350D02*
X4666300Y-10059350D01*
X4672650Y-10654350D02*
X4712650Y-10694350D01*
X4712650Y-10654350D02*
X4672650Y-10694350D01*
X4679000Y-3205800D02*
X4719000Y-3245800D01*
X4719000Y-3205800D02*
X4679000Y-3245800D01*
X4679000Y-5682300D02*
X4719000Y-5722300D01*
X4719000Y-5682300D02*
X4679000Y-5722300D01*
X4679000Y-8717600D02*
X4719000Y-8757600D01*
X4719000Y-8717600D02*
X4679000Y-8757600D01*
X4704400Y-10984550D02*
X4744400Y-11024550D01*
X4744400Y-10984550D02*
X4704400Y-11024550D01*
X4710750Y-10400350D02*
X4750750Y-10440350D01*
X4750750Y-10400350D02*
X4710750Y-10440350D01*
X4712020Y-7312980D02*
X4752020Y-7352980D01*
X4752020Y-7312980D02*
X4712020Y-7352980D01*
X4717100Y-7707950D02*
X4757100Y-7747950D01*
X4757100Y-7707950D02*
X4717100Y-7747950D01*
X4755200Y-9536750D02*
X4795200Y-9576750D01*
X4795200Y-9536750D02*
X4755200Y-9576750D01*
X4774250Y-8489000D02*
X4814250Y-8529000D01*
X4814250Y-8489000D02*
X4774250Y-8529000D01*
X4793300Y-6958650D02*
X4833300Y-6998650D01*
X4833300Y-6958650D02*
X4793300Y-6998650D01*
X4793300Y-9854250D02*
X4833300Y-9894250D01*
X4833300Y-9854250D02*
X4793300Y-9894250D01*
X4812350Y-8082600D02*
X4852350Y-8122600D01*
X4852350Y-8082600D02*
X4812350Y-8122600D01*
X4831400Y-9225600D02*
X4871400Y-9265600D01*
X4871400Y-9225600D02*
X4831400Y-9265600D01*
X4844100Y-10197150D02*
X4884100Y-10237150D01*
X4884100Y-10197150D02*
X4844100Y-10237150D01*
X4884740Y-7191060D02*
X4924740Y-7231060D01*
X4924740Y-7191060D02*
X4884740Y-7231060D01*
X4894900Y-10584500D02*
X4934900Y-10624500D01*
X4934900Y-10584500D02*
X4894900Y-10624500D01*
X4907600Y-10851200D02*
X4947600Y-10891200D01*
X4947600Y-10851200D02*
X4907600Y-10891200D01*
X4907600Y-11079800D02*
X4947600Y-11119800D01*
X4947600Y-11079800D02*
X4907600Y-11119800D01*
X4926650Y-9708200D02*
X4966650Y-9748200D01*
X4966650Y-9708200D02*
X4926650Y-9748200D01*
X4945700Y-7488240D02*
X4985700Y-7528240D01*
X4985700Y-7488240D02*
X4945700Y-7528240D01*
X4952050Y-8622350D02*
X4992050Y-8662350D01*
X4992050Y-8622350D02*
X4952050Y-8662350D01*
X4983800Y-10038400D02*
X5023800Y-10078400D01*
X5023800Y-10038400D02*
X4983800Y-10078400D01*
X4996500Y-7727000D02*
X5036500Y-7767000D01*
X5036500Y-7727000D02*
X4996500Y-7767000D01*
X5034600Y-6876100D02*
X5074600Y-6916100D01*
X5074600Y-6876100D02*
X5034600Y-6916100D01*
X5047300Y-7104700D02*
X5087300Y-7144700D01*
X5087300Y-7104700D02*
X5047300Y-7144700D01*
X5047300Y-8444550D02*
X5087300Y-8484550D01*
X5087300Y-8444550D02*
X5047300Y-8484550D01*
X5047300Y-8793800D02*
X5087300Y-8833800D01*
X5087300Y-8793800D02*
X5047300Y-8833800D01*
X5047300Y-10400350D02*
X5087300Y-10440350D01*
X5087300Y-10400350D02*
X5047300Y-10440350D01*
X5060000Y-8095300D02*
X5100000Y-8135300D01*
X5100000Y-8095300D02*
X5060000Y-8135300D01*
X5060000Y-11219500D02*
X5100000Y-11259500D01*
X5100000Y-11219500D02*
X5060000Y-11259500D01*
X5123500Y-9568500D02*
X5163500Y-9608500D01*
X5163500Y-9568500D02*
X5123500Y-9608500D01*
X5174300Y-10235250D02*
X5214300Y-10275250D01*
X5214300Y-10235250D02*
X5174300Y-10275250D01*
X5187000Y-7580950D02*
X5227000Y-7620950D01*
X5227000Y-7580950D02*
X5187000Y-7620950D01*
X5256850Y-8654100D02*
X5296850Y-8694100D01*
X5296850Y-8654100D02*
X5256850Y-8694100D01*
X5256850Y-9803450D02*
X5296850Y-9843450D01*
X5296850Y-9803450D02*
X5256850Y-9843450D01*
X5275900Y-10628950D02*
X5315900Y-10668950D01*
X5315900Y-10628950D02*
X5275900Y-10668950D01*
X5288600Y-6876100D02*
X5328600Y-6916100D01*
X5328600Y-6876100D02*
X5288600Y-6916100D01*
X5288600Y-7098350D02*
X5328600Y-7138350D01*
X5328600Y-7098350D02*
X5288600Y-7138350D01*
X5294950Y-7841300D02*
X5334950Y-7881300D01*
X5334950Y-7841300D02*
X5294950Y-7881300D01*
X5307650Y-8076250D02*
X5347650Y-8116250D01*
X5347650Y-8076250D02*
X5307650Y-8116250D01*
X5314000Y-11537000D02*
X5354000Y-11577000D01*
X5354000Y-11537000D02*
X5314000Y-11577000D01*
X5339400Y-7631750D02*
X5379400Y-7671750D01*
X5379400Y-7631750D02*
X5339400Y-7671750D01*
X5377500Y-9378000D02*
X5417500Y-9418000D01*
X5417500Y-9378000D02*
X5377500Y-9418000D01*
X5383850Y-9581200D02*
X5423850Y-9621200D01*
X5423850Y-9581200D02*
X5383850Y-9621200D01*
X5383850Y-10444800D02*
X5423850Y-10484800D01*
X5423850Y-10444800D02*
X5383850Y-10484800D01*
X5428300Y-8774750D02*
X5468300Y-8814750D01*
X5468300Y-8774750D02*
X5428300Y-8814750D01*
X5453700Y-8450900D02*
X5493700Y-8490900D01*
X5493700Y-8450900D02*
X5453700Y-8490900D01*
X5472750Y-7339650D02*
X5512750Y-7379650D01*
X5512750Y-7339650D02*
X5472750Y-7379650D01*
X5479100Y-10832150D02*
X5519100Y-10872150D01*
X5519100Y-10832150D02*
X5479100Y-10872150D01*
X5491800Y-7104700D02*
X5531800Y-7144700D01*
X5531800Y-7104700D02*
X5491800Y-7144700D01*
X5542600Y-6869750D02*
X5582600Y-6909750D01*
X5582600Y-6869750D02*
X5542600Y-6909750D01*
X5555300Y-10616250D02*
X5595300Y-10656250D01*
X5595300Y-10616250D02*
X5555300Y-10656250D01*
X5568000Y-11219500D02*
X5608000Y-11259500D01*
X5608000Y-11219500D02*
X5568000Y-11259500D01*
X5580700Y-8622350D02*
X5620700Y-8662350D01*
X5620700Y-8622350D02*
X5580700Y-8662350D01*
X5587050Y-9803450D02*
X5627050Y-9843450D01*
X5627050Y-9803450D02*
X5587050Y-9843450D01*
X5625150Y-9581200D02*
X5665150Y-9621200D01*
X5665150Y-9581200D02*
X5625150Y-9621200D01*
X5663250Y-7187250D02*
X5703250Y-7227250D01*
X5703250Y-7187250D02*
X5663250Y-7227250D01*
X5669600Y-7987350D02*
X5709600Y-8027350D01*
X5709600Y-7987350D02*
X5669600Y-8027350D01*
X5714050Y-6920550D02*
X5754050Y-6960550D01*
X5754050Y-6920550D02*
X5714050Y-6960550D01*
X5714050Y-11073450D02*
X5754050Y-11113450D01*
X5754050Y-11073450D02*
X5714050Y-11113450D01*
X5745800Y-10806750D02*
X5785800Y-10846750D01*
X5785800Y-10806750D02*
X5745800Y-10846750D01*
X5758500Y-3205800D02*
X5798500Y-3245800D01*
X5798500Y-3205800D02*
X5758500Y-3245800D01*
X5758500Y-5682300D02*
X5798500Y-5722300D01*
X5798500Y-5682300D02*
X5758500Y-5722300D01*
X5758500Y-8723950D02*
X5798500Y-8763950D01*
X5798500Y-8723950D02*
X5758500Y-8763950D01*
X5796600Y-7841300D02*
X5836600Y-7881300D01*
X5836600Y-7841300D02*
X5796600Y-7881300D01*
X5822000Y-8463600D02*
X5862000Y-8503600D01*
X5862000Y-8463600D02*
X5822000Y-8503600D01*
X5841050Y-7047550D02*
X5881050Y-7087550D01*
X5881050Y-7047550D02*
X5841050Y-7087550D01*
X5891850Y-7219000D02*
X5931850Y-7259000D01*
X5931850Y-7219000D02*
X5891850Y-7259000D01*
X5891850Y-9587550D02*
X5931850Y-9627550D01*
X5931850Y-9587550D02*
X5891850Y-9627550D01*
X5898200Y-8044500D02*
X5938200Y-8084500D01*
X5938200Y-8044500D02*
X5898200Y-8084500D01*
X5904550Y-7396800D02*
X5944550Y-7436800D01*
X5944550Y-7396800D02*
X5904550Y-7436800D01*
X5936300Y-10997250D02*
X5976300Y-11037250D01*
X5976300Y-10997250D02*
X5936300Y-11037250D01*
X5942650Y-9803450D02*
X5982650Y-9843450D01*
X5982650Y-9803450D02*
X5942650Y-9843450D01*
X5949000Y-9212900D02*
X5989000Y-9252900D01*
X5989000Y-9212900D02*
X5949000Y-9252900D01*
X5993450Y-9416100D02*
X6033450Y-9456100D01*
X6033450Y-9416100D02*
X5993450Y-9456100D01*
X6012500Y-8717600D02*
X6052500Y-8757600D01*
X6052500Y-8717600D02*
X6012500Y-8757600D01*
X6076000Y-7936550D02*
X6116000Y-7976550D01*
X6116000Y-7936550D02*
X6076000Y-7976550D01*
X6076000Y-11219500D02*
X6116000Y-11259500D01*
X6116000Y-11219500D02*
X6076000Y-11259500D01*
X6139500Y-9587550D02*
X6179500Y-9627550D01*
X6179500Y-9587550D02*
X6139500Y-9627550D01*
X6291900Y-7625400D02*
X6331900Y-7665400D01*
X6331900Y-7625400D02*
X6291900Y-7665400D01*
X6291900Y-8723950D02*
X6331900Y-8763950D01*
X6331900Y-8723950D02*
X6291900Y-8763950D01*
X6304600Y-9416100D02*
X6344600Y-9456100D01*
X6344600Y-9416100D02*
X6304600Y-9456100D01*
X6323650Y-8400100D02*
X6363650Y-8440100D01*
X6363650Y-8400100D02*
X6323650Y-8440100D01*
X6323650Y-9803450D02*
X6363650Y-9843450D01*
X6363650Y-9803450D02*
X6323650Y-9843450D01*
X6330000Y-7822250D02*
X6370000Y-7862250D01*
X6370000Y-7822250D02*
X6330000Y-7862250D01*
X6330000Y-8069900D02*
X6370000Y-8109900D01*
X6370000Y-8069900D02*
X6330000Y-8109900D01*
X6330000Y-11537000D02*
X6370000Y-11577000D01*
X6370000Y-11537000D02*
X6330000Y-11577000D01*
X6336350Y-9212900D02*
X6376350Y-9252900D01*
X6376350Y-9212900D02*
X6336350Y-9252900D01*
X6431600Y-9587550D02*
X6471600Y-9627550D01*
X6471600Y-9587550D02*
X6431600Y-9627550D01*
X6584000Y-11219500D02*
X6624000Y-11259500D01*
X6624000Y-11219500D02*
X6584000Y-11259500D01*
X6596700Y-8723950D02*
X6636700Y-8763950D01*
X6636700Y-8723950D02*
X6596700Y-8763950D01*
X6603050Y-8006400D02*
X6643050Y-8046400D01*
X6643050Y-8006400D02*
X6603050Y-8046400D01*
X6622100Y-9416100D02*
X6662100Y-9456100D01*
X6662100Y-9416100D02*
X6622100Y-9456100D01*
X6641150Y-9212900D02*
X6681150Y-9252900D01*
X6681150Y-9212900D02*
X6641150Y-9252900D01*
X6647500Y-5682300D02*
X6687500Y-5722300D01*
X6687500Y-5682300D02*
X6647500Y-5722300D01*
X6653850Y-9803450D02*
X6693850Y-9843450D01*
X6693850Y-9803450D02*
X6653850Y-9843450D01*
X6667820Y-4089720D02*
X6707820Y-4129720D01*
X6707820Y-4089720D02*
X6667820Y-4129720D01*
X6704650Y-8508050D02*
X6744650Y-8548050D01*
X6744650Y-8508050D02*
X6704650Y-8548050D01*
X6711000Y-10076500D02*
X6751000Y-10116500D01*
X6751000Y-10076500D02*
X6711000Y-10116500D01*
X6730050Y-9587550D02*
X6770050Y-9627550D01*
X6770050Y-9587550D02*
X6730050Y-9627550D01*
X6730050Y-10330500D02*
X6770050Y-10370500D01*
X6770050Y-10330500D02*
X6730050Y-10370500D01*
X6730050Y-10584500D02*
X6770050Y-10624500D01*
X6770050Y-10584500D02*
X6730050Y-10624500D01*
X6730050Y-10838500D02*
X6770050Y-10878500D01*
X6770050Y-10838500D02*
X6730050Y-10878500D01*
X6730050Y-11029000D02*
X6770050Y-11069000D01*
X6770050Y-11029000D02*
X6730050Y-11069000D01*
X6831650Y-8108000D02*
X6871650Y-8148000D01*
X6871650Y-8108000D02*
X6831650Y-8148000D01*
X6838000Y-3205800D02*
X6878000Y-3245800D01*
X6878000Y-3205800D02*
X6838000Y-3245800D01*
X6838000Y-8311200D02*
X6878000Y-8351200D01*
X6878000Y-8311200D02*
X6838000Y-8351200D01*
X6838000Y-9949500D02*
X6878000Y-9989500D01*
X6878000Y-9949500D02*
X6838000Y-9989500D01*
X6850700Y-8723950D02*
X6890700Y-8763950D01*
X6890700Y-8723950D02*
X6850700Y-8763950D01*
X6857050Y-9251000D02*
X6897050Y-9291000D01*
X6897050Y-9251000D02*
X6857050Y-9291000D01*
X6863400Y-9479600D02*
X6903400Y-9519600D01*
X6903400Y-9479600D02*
X6863400Y-9519600D01*
X6876100Y-8501700D02*
X6916100Y-8541700D01*
X6916100Y-8501700D02*
X6876100Y-8541700D01*
X6895150Y-7631750D02*
X6935150Y-7671750D01*
X6935150Y-7631750D02*
X6895150Y-7671750D01*
X6939600Y-10457500D02*
X6979600Y-10497500D01*
X6979600Y-10457500D02*
X6939600Y-10497500D01*
X6939600Y-10775000D02*
X6979600Y-10815000D01*
X6979600Y-10775000D02*
X6939600Y-10815000D01*
X6939600Y-11029000D02*
X6979600Y-11069000D01*
X6979600Y-11029000D02*
X6939600Y-11069000D01*
X6977700Y-9803450D02*
X7017700Y-9843450D01*
X7017700Y-9803450D02*
X6977700Y-9843450D01*
X6990400Y-4120200D02*
X7030400Y-4160200D01*
X7030400Y-4120200D02*
X6990400Y-4160200D01*
X6990400Y-4958400D02*
X7030400Y-4998400D01*
X7030400Y-4958400D02*
X6990400Y-4998400D01*
X6996750Y-10203500D02*
X7036750Y-10243500D01*
X7036750Y-10203500D02*
X6996750Y-10243500D01*
X7022150Y-9276400D02*
X7062150Y-9316400D01*
X7062150Y-9276400D02*
X7022150Y-9316400D01*
X7022150Y-9479600D02*
X7062150Y-9519600D01*
X7062150Y-9479600D02*
X7022150Y-9519600D01*
X7041200Y-8870000D02*
X7081200Y-8910000D01*
X7081200Y-8870000D02*
X7041200Y-8910000D01*
X7041200Y-9073200D02*
X7081200Y-9113200D01*
X7081200Y-9073200D02*
X7041200Y-9113200D01*
X7047550Y-9587550D02*
X7087550Y-9627550D01*
X7087550Y-9587550D02*
X7047550Y-9627550D01*
X7072950Y-8571550D02*
X7112950Y-8611550D01*
X7112950Y-8571550D02*
X7072950Y-8611550D01*
X7092000Y-11219500D02*
X7132000Y-11259500D01*
X7132000Y-11219500D02*
X7092000Y-11259500D01*
X7149150Y-10038400D02*
X7189150Y-10078400D01*
X7189150Y-10038400D02*
X7149150Y-10078400D01*
X7155500Y-9187500D02*
X7195500Y-9227500D01*
X7195500Y-9187500D02*
X7155500Y-9227500D01*
X7155500Y-9886000D02*
X7195500Y-9926000D01*
X7195500Y-9886000D02*
X7155500Y-9926000D01*
X7193600Y-4120200D02*
X7233600Y-4160200D01*
X7233600Y-4120200D02*
X7193600Y-4160200D01*
X7193600Y-4907600D02*
X7233600Y-4947600D01*
X7233600Y-4907600D02*
X7193600Y-4947600D01*
X7263450Y-8095300D02*
X7303450Y-8135300D01*
X7303450Y-8095300D02*
X7263450Y-8135300D01*
X7276150Y-8787450D02*
X7316150Y-8827450D01*
X7316150Y-8787450D02*
X7276150Y-8827450D01*
X7276150Y-9016050D02*
X7316150Y-9056050D01*
X7316150Y-9016050D02*
X7276150Y-9056050D01*
X7276150Y-9479600D02*
X7316150Y-9519600D01*
X7316150Y-9479600D02*
X7276150Y-9519600D01*
X7333300Y-9803450D02*
X7373300Y-9843450D01*
X7373300Y-9803450D02*
X7333300Y-9843450D01*
X7339650Y-9276400D02*
X7379650Y-9316400D01*
X7379650Y-9276400D02*
X7339650Y-9316400D01*
X7346000Y-11537000D02*
X7386000Y-11577000D01*
X7386000Y-11537000D02*
X7346000Y-11577000D01*
X7384100Y-9587550D02*
X7424100Y-9627550D01*
X7424100Y-9587550D02*
X7384100Y-9627550D01*
X7434900Y-4186240D02*
X7474900Y-4226240D01*
X7474900Y-4186240D02*
X7434900Y-4226240D01*
X7450140Y-4668840D02*
X7490140Y-4708840D01*
X7490140Y-4668840D02*
X7450140Y-4708840D01*
X7542850Y-9276400D02*
X7582850Y-9316400D01*
X7582850Y-9276400D02*
X7542850Y-9316400D01*
X7555550Y-9879650D02*
X7595550Y-9919650D01*
X7595550Y-9879650D02*
X7555550Y-9919650D01*
X7555550Y-10133650D02*
X7595550Y-10173650D01*
X7595550Y-10133650D02*
X7555550Y-10173650D01*
X7555550Y-10451150D02*
X7595550Y-10491150D01*
X7595550Y-10451150D02*
X7555550Y-10491150D01*
X7555550Y-10768650D02*
X7595550Y-10808650D01*
X7595550Y-10768650D02*
X7555550Y-10808650D01*
X7555550Y-11022650D02*
X7595550Y-11062650D01*
X7595550Y-11022650D02*
X7555550Y-11062650D01*
X7561900Y-7631750D02*
X7601900Y-7671750D01*
X7601900Y-7631750D02*
X7561900Y-7671750D01*
X7600000Y-11219500D02*
X7640000Y-11259500D01*
X7640000Y-11219500D02*
X7600000Y-11259500D01*
X7625400Y-9479600D02*
X7665400Y-9519600D01*
X7665400Y-9479600D02*
X7625400Y-9519600D01*
X7707950Y-9644700D02*
X7747950Y-9684700D01*
X7747950Y-9644700D02*
X7707950Y-9684700D01*
X7765100Y-9886000D02*
X7805100Y-9926000D01*
X7805100Y-9886000D02*
X7765100Y-9926000D01*
X7765100Y-10140000D02*
X7805100Y-10180000D01*
X7805100Y-10140000D02*
X7765100Y-10180000D01*
X7765100Y-10394000D02*
X7805100Y-10434000D01*
X7805100Y-10394000D02*
X7765100Y-10434000D01*
X7765100Y-10648000D02*
X7805100Y-10688000D01*
X7805100Y-10648000D02*
X7765100Y-10688000D01*
X7765100Y-10902000D02*
X7805100Y-10942000D01*
X7805100Y-10902000D02*
X7765100Y-10942000D01*
X7796850Y-9276400D02*
X7836850Y-9316400D01*
X7836850Y-9276400D02*
X7796850Y-9316400D01*
X7847650Y-11124250D02*
X7887650Y-11164250D01*
X7887650Y-11124250D02*
X7847650Y-11164250D01*
X7917500Y-4412300D02*
X7957500Y-4452300D01*
X7957500Y-4412300D02*
X7917500Y-4452300D01*
X7923850Y-9492300D02*
X7963850Y-9532300D01*
X7963850Y-9492300D02*
X7923850Y-9532300D01*
X7968300Y-5263200D02*
X8008300Y-5303200D01*
X8008300Y-5263200D02*
X7968300Y-5303200D01*
X8076250Y-9276400D02*
X8116250Y-9316400D01*
X8116250Y-9276400D02*
X8076250Y-9316400D01*
X8108000Y-11219500D02*
X8148000Y-11259500D01*
X8148000Y-11219500D02*
X8108000Y-11259500D01*
X8209600Y-8088950D02*
X8249600Y-8128950D01*
X8249600Y-8088950D02*
X8209600Y-8128950D01*
X8235000Y-9485950D02*
X8275000Y-9525950D01*
X8275000Y-9485950D02*
X8235000Y-9525950D01*
X8241350Y-7625400D02*
X8281350Y-7665400D01*
X8281350Y-7625400D02*
X8241350Y-7665400D01*
X8362000Y-11537000D02*
X8402000Y-11577000D01*
X8402000Y-11537000D02*
X8362000Y-11577000D01*
X8368350Y-9295450D02*
X8408350Y-9335450D01*
X8408350Y-9295450D02*
X8368350Y-9335450D01*
X8406450Y-9638350D02*
X8446450Y-9678350D01*
X8446450Y-9638350D02*
X8406450Y-9678350D01*
X8425500Y-5047300D02*
X8465500Y-5087300D01*
X8465500Y-5047300D02*
X8425500Y-5087300D01*
X8489000Y-5936300D02*
X8529000Y-5976300D01*
X8529000Y-5936300D02*
X8489000Y-5976300D01*
X8508050Y-9428800D02*
X8548050Y-9468800D01*
X8548050Y-9428800D02*
X8508050Y-9468800D01*
X8516940Y-7122480D02*
X8556940Y-7162480D01*
X8556940Y-7122480D02*
X8516940Y-7162480D01*
X8609650Y-9841550D02*
X8649650Y-9881550D01*
X8649650Y-9841550D02*
X8609650Y-9881550D01*
X8616000Y-11219500D02*
X8656000Y-11259500D01*
X8656000Y-11219500D02*
X8616000Y-11259500D01*
X8679500Y-9612950D02*
X8719500Y-9652950D01*
X8719500Y-9612950D02*
X8679500Y-9652950D01*
X8749350Y-11022650D02*
X8789350Y-11062650D01*
X8789350Y-11022650D02*
X8749350Y-11062650D01*
X8762050Y-10152700D02*
X8802050Y-10192700D01*
X8802050Y-10152700D02*
X8762050Y-10192700D01*
X8762050Y-10406700D02*
X8802050Y-10446700D01*
X8802050Y-10406700D02*
X8762050Y-10446700D01*
X8762050Y-10724200D02*
X8802050Y-10764200D01*
X8802050Y-10724200D02*
X8762050Y-10764200D01*
X8778560Y-7848920D02*
X8818560Y-7888920D01*
X8818560Y-7848920D02*
X8778560Y-7888920D01*
X8908100Y-9828850D02*
X8948100Y-9868850D01*
X8948100Y-9828850D02*
X8908100Y-9868850D01*
X8971600Y-11029000D02*
X9011600Y-11069000D01*
X9011600Y-11029000D02*
X8971600Y-11069000D01*
X8977950Y-10127300D02*
X9017950Y-10167300D01*
X9017950Y-10127300D02*
X8977950Y-10167300D01*
X8977950Y-10432100D02*
X9017950Y-10472100D01*
X9017950Y-10432100D02*
X8977950Y-10472100D01*
X8977950Y-10736900D02*
X9017950Y-10776900D01*
X9017950Y-10736900D02*
X8977950Y-10776900D01*
X8997000Y-6253800D02*
X9037000Y-6293800D01*
X9037000Y-6253800D02*
X8997000Y-6293800D01*
X8997000Y-7033580D02*
X9037000Y-7073580D01*
X9037000Y-7033580D02*
X8997000Y-7073580D01*
X9124000Y-11219500D02*
X9164000Y-11259500D01*
X9164000Y-11219500D02*
X9124000Y-11259500D01*
X9378000Y-11537000D02*
X9418000Y-11577000D01*
X9418000Y-11537000D02*
X9378000Y-11577000D01*
X11473500Y-3396300D02*
X11513500Y-3436300D01*
X11513500Y-3396300D02*
X11473500Y-3436300D01*
X11473500Y-7269800D02*
X11513500Y-7309800D01*
X11513500Y-7269800D02*
X11473500Y-7309800D01*
X11481120Y-11064560D02*
X11521120Y-11104560D01*
X11521120Y-11064560D02*
X11481120Y-11104560D01*
X4739000Y-8255000D02*
G75*
G02*
X4659000Y-8255000I-40000J0D01*
G01*
X4659000Y-8255000D02*
G75*
G02*
X4739000Y-8255000I40000J0D01*
G01*
X4739000Y-9017000D02*
G75*
G02*
X4659000Y-9017000I-40000J0D01*
G01*
X4659000Y-9017000D02*
G75*
G02*
X4739000Y-9017000I40000J0D01*
G01*
X4993000Y-8255000D02*
G75*
G02*
X4913000Y-8255000I-40000J0D01*
G01*
X4913000Y-8255000D02*
G75*
G02*
X4993000Y-8255000I40000J0D01*
G01*
X4993000Y-9017000D02*
G75*
G02*
X4913000Y-9017000I-40000J0D01*
G01*
X4913000Y-9017000D02*
G75*
G02*
X4993000Y-9017000I40000J0D01*
G01*
X5247000Y-8255000D02*
G75*
G02*
X5167000Y-8255000I-40000J0D01*
G01*
X5167000Y-8255000D02*
G75*
G02*
X5247000Y-8255000I40000J0D01*
G01*
X5247000Y-9017000D02*
G75*
G02*
X5167000Y-9017000I-40000J0D01*
G01*
X5167000Y-9017000D02*
G75*
G02*
X5247000Y-9017000I40000J0D01*
G01*
X5501000Y-8255000D02*
G75*
G02*
X5421000Y-8255000I-40000J0D01*
G01*
X5421000Y-8255000D02*
G75*
G02*
X5501000Y-8255000I40000J0D01*
G01*
X5501000Y-9017000D02*
G75*
G02*
X5421000Y-9017000I-40000J0D01*
G01*
X5421000Y-9017000D02*
G75*
G02*
X5501000Y-9017000I40000J0D01*
G01*
X5755000Y-8255000D02*
G75*
G02*
X5675000Y-8255000I-40000J0D01*
G01*
X5675000Y-8255000D02*
G75*
G02*
X5755000Y-8255000I40000J0D01*
G01*
X5755000Y-9017000D02*
G75*
G02*
X5675000Y-9017000I-40000J0D01*
G01*
X5675000Y-9017000D02*
G75*
G02*
X5755000Y-9017000I40000J0D01*
G01*
X6009000Y-8255000D02*
G75*
G02*
X5929000Y-8255000I-40000J0D01*
G01*
X5929000Y-8255000D02*
G75*
G02*
X6009000Y-8255000I40000J0D01*
G01*
X6009000Y-9017000D02*
G75*
G02*
X5929000Y-9017000I-40000J0D01*
G01*
X5929000Y-9017000D02*
G75*
G02*
X6009000Y-9017000I40000J0D01*
G01*
X6263000Y-8255000D02*
G75*
G02*
X6183000Y-8255000I-40000J0D01*
G01*
X6183000Y-8255000D02*
G75*
G02*
X6263000Y-8255000I40000J0D01*
G01*
X6263000Y-9017000D02*
G75*
G02*
X6183000Y-9017000I-40000J0D01*
G01*
X6183000Y-9017000D02*
G75*
G02*
X6263000Y-9017000I40000J0D01*
G01*
X6517000Y-8255000D02*
G75*
G02*
X6437000Y-8255000I-40000J0D01*
G01*
X6437000Y-8255000D02*
G75*
G02*
X6517000Y-8255000I40000J0D01*
G01*
X6517000Y-9017000D02*
G75*
G02*
X6437000Y-9017000I-40000J0D01*
G01*
X6437000Y-9017000D02*
G75*
G02*
X6517000Y-9017000I40000J0D01*
G01*
X4191000Y-3630460D02*
X4191000Y-3730460D01*
X4141000Y-3680460D02*
X4241000Y-3680460D01*
X4191000Y-3884460D02*
X4191000Y-3984460D01*
X4141000Y-3934460D02*
X4241000Y-3934460D01*
X4196080Y-5108740D02*
X4196080Y-5208740D01*
X4146080Y-5158740D02*
X4246080Y-5158740D01*
X4196080Y-5362740D02*
X4196080Y-5462740D01*
X4146080Y-5412740D02*
X4246080Y-5412740D01*
X4445000Y-3630460D02*
X4445000Y-3730460D01*
X4395000Y-3680460D02*
X4495000Y-3680460D01*
X4445000Y-3884460D02*
X4445000Y-3984460D01*
X4395000Y-3934460D02*
X4495000Y-3934460D01*
X4450080Y-5108740D02*
X4450080Y-5208740D01*
X4400080Y-5158740D02*
X4500080Y-5158740D01*
X4450080Y-5362740D02*
X4450080Y-5462740D01*
X4400080Y-5412740D02*
X4500080Y-5412740D01*
X4699000Y-3630460D02*
X4699000Y-3730460D01*
X4649000Y-3680460D02*
X4749000Y-3680460D01*
X4699000Y-3884460D02*
X4699000Y-3984460D01*
X4649000Y-3934460D02*
X4749000Y-3934460D01*
X4704080Y-5108740D02*
X4704080Y-5208740D01*
X4654080Y-5158740D02*
X4754080Y-5158740D01*
X4704080Y-5362740D02*
X4704080Y-5462740D01*
X4654080Y-5412740D02*
X4754080Y-5412740D01*
X4953000Y-3630460D02*
X4953000Y-3730460D01*
X4903000Y-3680460D02*
X5003000Y-3680460D01*
X4953000Y-3884460D02*
X4953000Y-3984460D01*
X4903000Y-3934460D02*
X5003000Y-3934460D01*
X4958080Y-5108740D02*
X4958080Y-5208740D01*
X4908080Y-5158740D02*
X5008080Y-5158740D01*
X4958080Y-5362740D02*
X4958080Y-5462740D01*
X4908080Y-5412740D02*
X5008080Y-5412740D01*
X5207000Y-3630460D02*
X5207000Y-3730460D01*
X5157000Y-3680460D02*
X5257000Y-3680460D01*
X5207000Y-3884460D02*
X5207000Y-3984460D01*
X5157000Y-3934460D02*
X5257000Y-3934460D01*
X5212080Y-5108740D02*
X5212080Y-5208740D01*
X5162080Y-5158740D02*
X5262080Y-5158740D01*
X5212080Y-5362740D02*
X5212080Y-5462740D01*
X5162080Y-5412740D02*
X5262080Y-5412740D01*
X5461000Y-3630460D02*
X5461000Y-3730460D01*
X5411000Y-3680460D02*
X5511000Y-3680460D01*
X5461000Y-3884460D02*
X5461000Y-3984460D01*
X5411000Y-3934460D02*
X5511000Y-3934460D01*
X5466080Y-5108740D02*
X5466080Y-5208740D01*
X5416080Y-5158740D02*
X5516080Y-5158740D01*
X5466080Y-5362740D02*
X5466080Y-5462740D01*
X5416080Y-5412740D02*
X5516080Y-5412740D01*
X5715000Y-3630460D02*
X5715000Y-3730460D01*
X5665000Y-3680460D02*
X5765000Y-3680460D01*
X5715000Y-3884460D02*
X5715000Y-3984460D01*
X5665000Y-3934460D02*
X5765000Y-3934460D01*
X5720080Y-5108740D02*
X5720080Y-5208740D01*
X5670080Y-5158740D02*
X5770080Y-5158740D01*
X5720080Y-5362740D02*
X5720080Y-5462740D01*
X5670080Y-5412740D02*
X5770080Y-5412740D01*
X5969000Y-3630460D02*
X5969000Y-3730460D01*
X5919000Y-3680460D02*
X6019000Y-3680460D01*
X5969000Y-3884460D02*
X5969000Y-3984460D01*
X5919000Y-3934460D02*
X6019000Y-3934460D01*
X5974080Y-5108740D02*
X5974080Y-5208740D01*
X5924080Y-5158740D02*
X6024080Y-5158740D01*
X5974080Y-5362740D02*
X5974080Y-5462740D01*
X5924080Y-5412740D02*
X6024080Y-5412740D01*
X6223000Y-3630460D02*
X6223000Y-3730460D01*
X6173000Y-3680460D02*
X6273000Y-3680460D01*
X6223000Y-3884460D02*
X6223000Y-3984460D01*
X6173000Y-3934460D02*
X6273000Y-3934460D01*
X6228080Y-5108740D02*
X6228080Y-5208740D01*
X6178080Y-5158740D02*
X6278080Y-5158740D01*
X6228080Y-5362740D02*
X6228080Y-5462740D01*
X6178080Y-5412740D02*
X6278080Y-5412740D01*
X6477000Y-3630460D02*
X6477000Y-3730460D01*
X6427000Y-3680460D02*
X6527000Y-3680460D01*
X6477000Y-3884460D02*
X6477000Y-3984460D01*
X6427000Y-3934460D02*
X6527000Y-3934460D01*
X6482080Y-5108740D02*
X6482080Y-5208740D01*
X6432080Y-5158740D02*
X6532080Y-5158740D01*
X6482080Y-5362740D02*
X6482080Y-5462740D01*
X6432080Y-5412740D02*
X6532080Y-5412740D01*
X6731000Y-3630460D02*
X6731000Y-3730460D01*
X6681000Y-3680460D02*
X6781000Y-3680460D01*
X6731000Y-3884460D02*
X6731000Y-3984460D01*
X6681000Y-3934460D02*
X6781000Y-3934460D01*
X6736080Y-5108740D02*
X6736080Y-5208740D01*
X6686080Y-5158740D02*
X6786080Y-5158740D01*
X6736080Y-5362740D02*
X6736080Y-5462740D01*
X6686080Y-5412740D02*
X6786080Y-5412740D01*
X6985000Y-3630460D02*
X6985000Y-3730460D01*
X6935000Y-3680460D02*
X7035000Y-3680460D01*
X6985000Y-3884460D02*
X6985000Y-3984460D01*
X6935000Y-3934460D02*
X7035000Y-3934460D01*
X6990080Y-5108740D02*
X6990080Y-5208740D01*
X6940080Y-5158740D02*
X7040080Y-5158740D01*
X6990080Y-5362740D02*
X6990080Y-5462740D01*
X6940080Y-5412740D02*
X7040080Y-5412740D01*
X7239000Y-3630460D02*
X7239000Y-3730460D01*
X7189000Y-3680460D02*
X7289000Y-3680460D01*
X7239000Y-3884460D02*
X7239000Y-3984460D01*
X7189000Y-3934460D02*
X7289000Y-3934460D01*
X7244080Y-5108740D02*
X7244080Y-5208740D01*
X7194080Y-5158740D02*
X7294080Y-5158740D01*
X7244080Y-5362740D02*
X7244080Y-5462740D01*
X7194080Y-5412740D02*
X7294080Y-5412740D01*
D13*
X3161138Y-3275438D02*
X3161138Y-3049162D01*
X2934862Y-3049162D01*
X2934862Y-3275438D01*
X3161138Y-3275438D01*
X3161138Y-11530438D02*
X3161138Y-11304162D01*
X2934862Y-11304162D01*
X2934862Y-11530438D01*
X3161138Y-11530438D01*
X11416138Y-3275438D02*
X11416138Y-3049162D01*
X11189862Y-3049162D01*
X11189862Y-3275438D01*
X11416138Y-3275438D01*
X11416138Y-11530438D02*
X11416138Y-11304162D01*
X11189862Y-11304162D01*
X11189862Y-11530438D01*
X11416138Y-11530438D01*
D11*
X2988777Y-12048784D02*
X2988777Y-11848784D01*
X2988777Y-11848784D02*
X3036396Y-11848784D01*
X3036396Y-11848784D02*
X3064967Y-11858308D01*
X3064967Y-11858308D02*
X3084015Y-11877355D01*
X3084015Y-11877355D02*
X3093539Y-11896403D01*
X3093539Y-11896403D02*
X3103062Y-11934498D01*
X3103062Y-11934498D02*
X3103062Y-11963069D01*
X3103062Y-11963069D02*
X3093539Y-12001165D01*
X3093539Y-12001165D02*
X3084015Y-12020212D01*
X3084015Y-12020212D02*
X3064967Y-12039260D01*
X3064967Y-12039260D02*
X3036396Y-12048784D01*
X3036396Y-12048784D02*
X2988777Y-12048784D01*
X3188777Y-12048784D02*
X3188777Y-11915450D01*
X3188777Y-11953546D02*
X3198301Y-11934498D01*
X3198301Y-11934498D02*
X3207824Y-11924974D01*
X3207824Y-11924974D02*
X3226872Y-11915450D01*
X3226872Y-11915450D02*
X3245920Y-11915450D01*
X3312586Y-12048784D02*
X3312586Y-11915450D01*
X3312586Y-11848784D02*
X3303062Y-11858308D01*
X3303062Y-11858308D02*
X3312586Y-11867831D01*
X3312586Y-11867831D02*
X3322110Y-11858308D01*
X3322110Y-11858308D02*
X3312586Y-11848784D01*
X3312586Y-11848784D02*
X3312586Y-11867831D01*
X3436396Y-12048784D02*
X3417348Y-12039260D01*
X3417348Y-12039260D02*
X3407824Y-12020212D01*
X3407824Y-12020212D02*
X3407824Y-11848784D01*
X3541158Y-12048784D02*
X3522110Y-12039260D01*
X3522110Y-12039260D02*
X3512586Y-12020212D01*
X3512586Y-12020212D02*
X3512586Y-11848784D01*
X3769729Y-12048784D02*
X3769729Y-11848784D01*
X3769729Y-11848784D02*
X3836396Y-11991641D01*
X3836396Y-11991641D02*
X3903062Y-11848784D01*
X3903062Y-11848784D02*
X3903062Y-12048784D01*
X4084015Y-12048784D02*
X4084015Y-11944022D01*
X4084015Y-11944022D02*
X4074491Y-11924974D01*
X4074491Y-11924974D02*
X4055443Y-11915450D01*
X4055443Y-11915450D02*
X4017348Y-11915450D01*
X4017348Y-11915450D02*
X3998301Y-11924974D01*
X4084015Y-12039260D02*
X4064967Y-12048784D01*
X4064967Y-12048784D02*
X4017348Y-12048784D01*
X4017348Y-12048784D02*
X3998301Y-12039260D01*
X3998301Y-12039260D02*
X3988777Y-12020212D01*
X3988777Y-12020212D02*
X3988777Y-12001165D01*
X3988777Y-12001165D02*
X3998301Y-11982117D01*
X3998301Y-11982117D02*
X4017348Y-11972593D01*
X4017348Y-11972593D02*
X4064967Y-11972593D01*
X4064967Y-11972593D02*
X4084015Y-11963069D01*
X4179253Y-11915450D02*
X4179253Y-12115450D01*
X4179253Y-11924974D02*
X4198301Y-11915450D01*
X4198301Y-11915450D02*
X4236396Y-11915450D01*
X4236396Y-11915450D02*
X4255444Y-11924974D01*
X4255444Y-11924974D02*
X4264967Y-11934498D01*
X4264967Y-11934498D02*
X4274491Y-11953546D01*
X4274491Y-11953546D02*
X4274491Y-12010688D01*
X4274491Y-12010688D02*
X4264967Y-12029736D01*
X4264967Y-12029736D02*
X4255444Y-12039260D01*
X4255444Y-12039260D02*
X4236396Y-12048784D01*
X4236396Y-12048784D02*
X4198301Y-12048784D01*
X4198301Y-12048784D02*
X4179253Y-12039260D01*
X4360205Y-12029736D02*
X4369729Y-12039260D01*
X4369729Y-12039260D02*
X4360205Y-12048784D01*
X4360205Y-12048784D02*
X4350682Y-12039260D01*
X4350682Y-12039260D02*
X4360205Y-12029736D01*
X4360205Y-12029736D02*
X4360205Y-12048784D01*
X4360205Y-11924974D02*
X4369729Y-11934498D01*
X4369729Y-11934498D02*
X4360205Y-11944022D01*
X4360205Y-11944022D02*
X4350682Y-11934498D01*
X4350682Y-11934498D02*
X4360205Y-11924974D01*
X4360205Y-11924974D02*
X4360205Y-11944022D01*
D12*
X2688000Y-12357300D02*
X2728000Y-12397300D01*
X2728000Y-12357300D02*
X2688000Y-12397300D01*
D11*
X3026872Y-12268784D02*
X3045920Y-12268784D01*
X3045920Y-12268784D02*
X3064967Y-12278308D01*
X3064967Y-12278308D02*
X3074491Y-12287831D01*
X3074491Y-12287831D02*
X3084015Y-12306879D01*
X3084015Y-12306879D02*
X3093539Y-12344974D01*
X3093539Y-12344974D02*
X3093539Y-12392593D01*
X3093539Y-12392593D02*
X3084015Y-12430688D01*
X3084015Y-12430688D02*
X3074491Y-12449736D01*
X3074491Y-12449736D02*
X3064967Y-12459260D01*
X3064967Y-12459260D02*
X3045920Y-12468784D01*
X3045920Y-12468784D02*
X3026872Y-12468784D01*
X3026872Y-12468784D02*
X3007824Y-12459260D01*
X3007824Y-12459260D02*
X2998301Y-12449736D01*
X2998301Y-12449736D02*
X2988777Y-12430688D01*
X2988777Y-12430688D02*
X2979253Y-12392593D01*
X2979253Y-12392593D02*
X2979253Y-12344974D01*
X2979253Y-12344974D02*
X2988777Y-12306879D01*
X2988777Y-12306879D02*
X2998301Y-12287831D01*
X2998301Y-12287831D02*
X3007824Y-12278308D01*
X3007824Y-12278308D02*
X3026872Y-12268784D01*
X3179253Y-12449736D02*
X3188777Y-12459260D01*
X3188777Y-12459260D02*
X3179253Y-12468784D01*
X3179253Y-12468784D02*
X3169729Y-12459260D01*
X3169729Y-12459260D02*
X3179253Y-12449736D01*
X3179253Y-12449736D02*
X3179253Y-12468784D01*
X3360205Y-12335450D02*
X3360205Y-12468784D01*
X3312586Y-12259260D02*
X3264967Y-12402117D01*
X3264967Y-12402117D02*
X3388777Y-12402117D01*
X3503062Y-12268784D02*
X3522110Y-12268784D01*
X3522110Y-12268784D02*
X3541158Y-12278308D01*
X3541158Y-12278308D02*
X3550682Y-12287831D01*
X3550682Y-12287831D02*
X3560205Y-12306879D01*
X3560205Y-12306879D02*
X3569729Y-12344974D01*
X3569729Y-12344974D02*
X3569729Y-12392593D01*
X3569729Y-12392593D02*
X3560205Y-12430688D01*
X3560205Y-12430688D02*
X3550682Y-12449736D01*
X3550682Y-12449736D02*
X3541158Y-12459260D01*
X3541158Y-12459260D02*
X3522110Y-12468784D01*
X3522110Y-12468784D02*
X3503062Y-12468784D01*
X3503062Y-12468784D02*
X3484015Y-12459260D01*
X3484015Y-12459260D02*
X3474491Y-12449736D01*
X3474491Y-12449736D02*
X3464967Y-12430688D01*
X3464967Y-12430688D02*
X3455443Y-12392593D01*
X3455443Y-12392593D02*
X3455443Y-12344974D01*
X3455443Y-12344974D02*
X3464967Y-12306879D01*
X3464967Y-12306879D02*
X3474491Y-12287831D01*
X3474491Y-12287831D02*
X3484015Y-12278308D01*
X3484015Y-12278308D02*
X3503062Y-12268784D01*
X3693539Y-12268784D02*
X3712586Y-12268784D01*
X3712586Y-12268784D02*
X3731634Y-12278308D01*
X3731634Y-12278308D02*
X3741158Y-12287831D01*
X3741158Y-12287831D02*
X3750682Y-12306879D01*
X3750682Y-12306879D02*
X3760205Y-12344974D01*
X3760205Y-12344974D02*
X3760205Y-12392593D01*
X3760205Y-12392593D02*
X3750682Y-12430688D01*
X3750682Y-12430688D02*
X3741158Y-12449736D01*
X3741158Y-12449736D02*
X3731634Y-12459260D01*
X3731634Y-12459260D02*
X3712586Y-12468784D01*
X3712586Y-12468784D02*
X3693539Y-12468784D01*
X3693539Y-12468784D02*
X3674491Y-12459260D01*
X3674491Y-12459260D02*
X3664967Y-12449736D01*
X3664967Y-12449736D02*
X3655443Y-12430688D01*
X3655443Y-12430688D02*
X3645920Y-12392593D01*
X3645920Y-12392593D02*
X3645920Y-12344974D01*
X3645920Y-12344974D02*
X3655443Y-12306879D01*
X3655443Y-12306879D02*
X3664967Y-12287831D01*
X3664967Y-12287831D02*
X3674491Y-12278308D01*
X3674491Y-12278308D02*
X3693539Y-12268784D01*
X3845920Y-12468784D02*
X3845920Y-12335450D01*
X3845920Y-12354498D02*
X3855443Y-12344974D01*
X3855443Y-12344974D02*
X3874491Y-12335450D01*
X3874491Y-12335450D02*
X3903063Y-12335450D01*
X3903063Y-12335450D02*
X3922110Y-12344974D01*
X3922110Y-12344974D02*
X3931634Y-12364022D01*
X3931634Y-12364022D02*
X3931634Y-12468784D01*
X3931634Y-12364022D02*
X3941158Y-12344974D01*
X3941158Y-12344974D02*
X3960205Y-12335450D01*
X3960205Y-12335450D02*
X3988777Y-12335450D01*
X3988777Y-12335450D02*
X4007824Y-12344974D01*
X4007824Y-12344974D02*
X4017348Y-12364022D01*
X4017348Y-12364022D02*
X4017348Y-12468784D01*
X4112586Y-12468784D02*
X4112586Y-12335450D01*
X4112586Y-12354498D02*
X4122110Y-12344974D01*
X4122110Y-12344974D02*
X4141158Y-12335450D01*
X4141158Y-12335450D02*
X4169729Y-12335450D01*
X4169729Y-12335450D02*
X4188777Y-12344974D01*
X4188777Y-12344974D02*
X4198301Y-12364022D01*
X4198301Y-12364022D02*
X4198301Y-12468784D01*
X4198301Y-12364022D02*
X4207825Y-12344974D01*
X4207825Y-12344974D02*
X4226872Y-12335450D01*
X4226872Y-12335450D02*
X4255444Y-12335450D01*
X4255444Y-12335450D02*
X4274491Y-12344974D01*
X4274491Y-12344974D02*
X4284015Y-12364022D01*
X4284015Y-12364022D02*
X4284015Y-12468784D01*
X4674491Y-12259260D02*
X4503063Y-12516403D01*
X4931634Y-12268784D02*
X4950682Y-12268784D01*
X4950682Y-12268784D02*
X4969729Y-12278308D01*
X4969729Y-12278308D02*
X4979253Y-12287831D01*
X4979253Y-12287831D02*
X4988777Y-12306879D01*
X4988777Y-12306879D02*
X4998301Y-12344974D01*
X4998301Y-12344974D02*
X4998301Y-12392593D01*
X4998301Y-12392593D02*
X4988777Y-12430688D01*
X4988777Y-12430688D02*
X4979253Y-12449736D01*
X4979253Y-12449736D02*
X4969729Y-12459260D01*
X4969729Y-12459260D02*
X4950682Y-12468784D01*
X4950682Y-12468784D02*
X4931634Y-12468784D01*
X4931634Y-12468784D02*
X4912587Y-12459260D01*
X4912587Y-12459260D02*
X4903063Y-12449736D01*
X4903063Y-12449736D02*
X4893539Y-12430688D01*
X4893539Y-12430688D02*
X4884015Y-12392593D01*
X4884015Y-12392593D02*
X4884015Y-12344974D01*
X4884015Y-12344974D02*
X4893539Y-12306879D01*
X4893539Y-12306879D02*
X4903063Y-12287831D01*
X4903063Y-12287831D02*
X4912587Y-12278308D01*
X4912587Y-12278308D02*
X4931634Y-12268784D01*
X5084015Y-12449736D02*
X5093539Y-12459260D01*
X5093539Y-12459260D02*
X5084015Y-12468784D01*
X5084015Y-12468784D02*
X5074491Y-12459260D01*
X5074491Y-12459260D02*
X5084015Y-12449736D01*
X5084015Y-12449736D02*
X5084015Y-12468784D01*
X5217348Y-12268784D02*
X5236396Y-12268784D01*
X5236396Y-12268784D02*
X5255444Y-12278308D01*
X5255444Y-12278308D02*
X5264968Y-12287831D01*
X5264968Y-12287831D02*
X5274491Y-12306879D01*
X5274491Y-12306879D02*
X5284015Y-12344974D01*
X5284015Y-12344974D02*
X5284015Y-12392593D01*
X5284015Y-12392593D02*
X5274491Y-12430688D01*
X5274491Y-12430688D02*
X5264968Y-12449736D01*
X5264968Y-12449736D02*
X5255444Y-12459260D01*
X5255444Y-12459260D02*
X5236396Y-12468784D01*
X5236396Y-12468784D02*
X5217348Y-12468784D01*
X5217348Y-12468784D02*
X5198301Y-12459260D01*
X5198301Y-12459260D02*
X5188777Y-12449736D01*
X5188777Y-12449736D02*
X5179253Y-12430688D01*
X5179253Y-12430688D02*
X5169729Y-12392593D01*
X5169729Y-12392593D02*
X5169729Y-12344974D01*
X5169729Y-12344974D02*
X5179253Y-12306879D01*
X5179253Y-12306879D02*
X5188777Y-12287831D01*
X5188777Y-12287831D02*
X5198301Y-12278308D01*
X5198301Y-12278308D02*
X5217348Y-12268784D01*
X5474491Y-12468784D02*
X5360206Y-12468784D01*
X5417348Y-12468784D02*
X5417348Y-12268784D01*
X5417348Y-12268784D02*
X5398301Y-12297355D01*
X5398301Y-12297355D02*
X5379253Y-12316403D01*
X5379253Y-12316403D02*
X5360206Y-12325927D01*
X5655444Y-12268784D02*
X5560206Y-12268784D01*
X5560206Y-12268784D02*
X5550682Y-12364022D01*
X5550682Y-12364022D02*
X5560206Y-12354498D01*
X5560206Y-12354498D02*
X5579253Y-12344974D01*
X5579253Y-12344974D02*
X5626872Y-12344974D01*
X5626872Y-12344974D02*
X5645920Y-12354498D01*
X5645920Y-12354498D02*
X5655444Y-12364022D01*
X5655444Y-12364022D02*
X5664967Y-12383069D01*
X5664967Y-12383069D02*
X5664967Y-12430688D01*
X5664967Y-12430688D02*
X5655444Y-12449736D01*
X5655444Y-12449736D02*
X5645920Y-12459260D01*
X5645920Y-12459260D02*
X5626872Y-12468784D01*
X5626872Y-12468784D02*
X5579253Y-12468784D01*
X5579253Y-12468784D02*
X5560206Y-12459260D01*
X5560206Y-12459260D02*
X5550682Y-12449736D01*
X5731634Y-12268784D02*
X5864967Y-12268784D01*
X5864967Y-12268784D02*
X5779253Y-12468784D01*
X5931634Y-12268784D02*
X5931634Y-12306879D01*
X6007825Y-12268784D02*
X6007825Y-12306879D01*
X6303063Y-12544974D02*
X6293539Y-12535450D01*
X6293539Y-12535450D02*
X6274491Y-12506879D01*
X6274491Y-12506879D02*
X6264968Y-12487831D01*
X6264968Y-12487831D02*
X6255444Y-12459260D01*
X6255444Y-12459260D02*
X6245920Y-12411641D01*
X6245920Y-12411641D02*
X6245920Y-12373546D01*
X6245920Y-12373546D02*
X6255444Y-12325927D01*
X6255444Y-12325927D02*
X6264968Y-12297355D01*
X6264968Y-12297355D02*
X6274491Y-12278308D01*
X6274491Y-12278308D02*
X6293539Y-12249736D01*
X6293539Y-12249736D02*
X6303063Y-12240212D01*
X6369729Y-12287831D02*
X6379253Y-12278308D01*
X6379253Y-12278308D02*
X6398301Y-12268784D01*
X6398301Y-12268784D02*
X6445920Y-12268784D01*
X6445920Y-12268784D02*
X6464968Y-12278308D01*
X6464968Y-12278308D02*
X6474491Y-12287831D01*
X6474491Y-12287831D02*
X6484015Y-12306879D01*
X6484015Y-12306879D02*
X6484015Y-12325927D01*
X6484015Y-12325927D02*
X6474491Y-12354498D01*
X6474491Y-12354498D02*
X6360206Y-12468784D01*
X6360206Y-12468784D02*
X6484015Y-12468784D01*
X6598301Y-12354498D02*
X6579253Y-12344974D01*
X6579253Y-12344974D02*
X6569729Y-12335450D01*
X6569729Y-12335450D02*
X6560206Y-12316403D01*
X6560206Y-12316403D02*
X6560206Y-12306879D01*
X6560206Y-12306879D02*
X6569729Y-12287831D01*
X6569729Y-12287831D02*
X6579253Y-12278308D01*
X6579253Y-12278308D02*
X6598301Y-12268784D01*
X6598301Y-12268784D02*
X6636396Y-12268784D01*
X6636396Y-12268784D02*
X6655444Y-12278308D01*
X6655444Y-12278308D02*
X6664968Y-12287831D01*
X6664968Y-12287831D02*
X6674491Y-12306879D01*
X6674491Y-12306879D02*
X6674491Y-12316403D01*
X6674491Y-12316403D02*
X6664968Y-12335450D01*
X6664968Y-12335450D02*
X6655444Y-12344974D01*
X6655444Y-12344974D02*
X6636396Y-12354498D01*
X6636396Y-12354498D02*
X6598301Y-12354498D01*
X6598301Y-12354498D02*
X6579253Y-12364022D01*
X6579253Y-12364022D02*
X6569729Y-12373546D01*
X6569729Y-12373546D02*
X6560206Y-12392593D01*
X6560206Y-12392593D02*
X6560206Y-12430688D01*
X6560206Y-12430688D02*
X6569729Y-12449736D01*
X6569729Y-12449736D02*
X6579253Y-12459260D01*
X6579253Y-12459260D02*
X6598301Y-12468784D01*
X6598301Y-12468784D02*
X6636396Y-12468784D01*
X6636396Y-12468784D02*
X6655444Y-12459260D01*
X6655444Y-12459260D02*
X6664968Y-12449736D01*
X6664968Y-12449736D02*
X6674491Y-12430688D01*
X6674491Y-12430688D02*
X6674491Y-12392593D01*
X6674491Y-12392593D02*
X6664968Y-12373546D01*
X6664968Y-12373546D02*
X6655444Y-12364022D01*
X6655444Y-12364022D02*
X6636396Y-12354498D01*
X6864968Y-12468784D02*
X6750682Y-12468784D01*
X6807825Y-12468784D02*
X6807825Y-12268784D01*
X6807825Y-12268784D02*
X6788777Y-12297355D01*
X6788777Y-12297355D02*
X6769729Y-12316403D01*
X6769729Y-12316403D02*
X6750682Y-12325927D01*
X7103063Y-12468784D02*
X7103063Y-12268784D01*
X7188777Y-12468784D02*
X7188777Y-12364022D01*
X7188777Y-12364022D02*
X7179253Y-12344974D01*
X7179253Y-12344974D02*
X7160206Y-12335450D01*
X7160206Y-12335450D02*
X7131634Y-12335450D01*
X7131634Y-12335450D02*
X7112587Y-12344974D01*
X7112587Y-12344974D02*
X7103063Y-12354498D01*
X7312587Y-12468784D02*
X7293539Y-12459260D01*
X7293539Y-12459260D02*
X7284015Y-12449736D01*
X7284015Y-12449736D02*
X7274491Y-12430688D01*
X7274491Y-12430688D02*
X7274491Y-12373546D01*
X7274491Y-12373546D02*
X7284015Y-12354498D01*
X7284015Y-12354498D02*
X7293539Y-12344974D01*
X7293539Y-12344974D02*
X7312587Y-12335450D01*
X7312587Y-12335450D02*
X7341158Y-12335450D01*
X7341158Y-12335450D02*
X7360206Y-12344974D01*
X7360206Y-12344974D02*
X7369730Y-12354498D01*
X7369730Y-12354498D02*
X7379253Y-12373546D01*
X7379253Y-12373546D02*
X7379253Y-12430688D01*
X7379253Y-12430688D02*
X7369730Y-12449736D01*
X7369730Y-12449736D02*
X7360206Y-12459260D01*
X7360206Y-12459260D02*
X7341158Y-12468784D01*
X7341158Y-12468784D02*
X7312587Y-12468784D01*
X7493539Y-12468784D02*
X7474491Y-12459260D01*
X7474491Y-12459260D02*
X7464968Y-12440212D01*
X7464968Y-12440212D02*
X7464968Y-12268784D01*
X7645920Y-12459260D02*
X7626872Y-12468784D01*
X7626872Y-12468784D02*
X7588777Y-12468784D01*
X7588777Y-12468784D02*
X7569730Y-12459260D01*
X7569730Y-12459260D02*
X7560206Y-12440212D01*
X7560206Y-12440212D02*
X7560206Y-12364022D01*
X7560206Y-12364022D02*
X7569730Y-12344974D01*
X7569730Y-12344974D02*
X7588777Y-12335450D01*
X7588777Y-12335450D02*
X7626872Y-12335450D01*
X7626872Y-12335450D02*
X7645920Y-12344974D01*
X7645920Y-12344974D02*
X7655444Y-12364022D01*
X7655444Y-12364022D02*
X7655444Y-12383069D01*
X7655444Y-12383069D02*
X7560206Y-12402117D01*
X7731634Y-12459260D02*
X7750682Y-12468784D01*
X7750682Y-12468784D02*
X7788777Y-12468784D01*
X7788777Y-12468784D02*
X7807825Y-12459260D01*
X7807825Y-12459260D02*
X7817349Y-12440212D01*
X7817349Y-12440212D02*
X7817349Y-12430688D01*
X7817349Y-12430688D02*
X7807825Y-12411641D01*
X7807825Y-12411641D02*
X7788777Y-12402117D01*
X7788777Y-12402117D02*
X7760206Y-12402117D01*
X7760206Y-12402117D02*
X7741158Y-12392593D01*
X7741158Y-12392593D02*
X7731634Y-12373546D01*
X7731634Y-12373546D02*
X7731634Y-12364022D01*
X7731634Y-12364022D02*
X7741158Y-12344974D01*
X7741158Y-12344974D02*
X7760206Y-12335450D01*
X7760206Y-12335450D02*
X7788777Y-12335450D01*
X7788777Y-12335450D02*
X7807825Y-12344974D01*
X7884015Y-12544974D02*
X7893539Y-12535450D01*
X7893539Y-12535450D02*
X7912587Y-12506879D01*
X7912587Y-12506879D02*
X7922111Y-12487831D01*
X7922111Y-12487831D02*
X7931634Y-12459260D01*
X7931634Y-12459260D02*
X7941158Y-12411641D01*
X7941158Y-12411641D02*
X7941158Y-12373546D01*
X7941158Y-12373546D02*
X7931634Y-12325927D01*
X7931634Y-12325927D02*
X7922111Y-12297355D01*
X7922111Y-12297355D02*
X7912587Y-12278308D01*
X7912587Y-12278308D02*
X7893539Y-12249736D01*
X7893539Y-12249736D02*
X7884015Y-12240212D01*
D12*
X2728000Y-12641300D02*
G75*
G02*
X2648000Y-12641300I-40000J0D01*
G01*
X2648000Y-12641300D02*
G75*
G02*
X2728000Y-12641300I40000J0D01*
G01*
D11*
X3026872Y-12532784D02*
X3045920Y-12532784D01*
X3045920Y-12532784D02*
X3064967Y-12542308D01*
X3064967Y-12542308D02*
X3074491Y-12551831D01*
X3074491Y-12551831D02*
X3084015Y-12570879D01*
X3084015Y-12570879D02*
X3093539Y-12608974D01*
X3093539Y-12608974D02*
X3093539Y-12656593D01*
X3093539Y-12656593D02*
X3084015Y-12694688D01*
X3084015Y-12694688D02*
X3074491Y-12713736D01*
X3074491Y-12713736D02*
X3064967Y-12723260D01*
X3064967Y-12723260D02*
X3045920Y-12732784D01*
X3045920Y-12732784D02*
X3026872Y-12732784D01*
X3026872Y-12732784D02*
X3007824Y-12723260D01*
X3007824Y-12723260D02*
X2998301Y-12713736D01*
X2998301Y-12713736D02*
X2988777Y-12694688D01*
X2988777Y-12694688D02*
X2979253Y-12656593D01*
X2979253Y-12656593D02*
X2979253Y-12608974D01*
X2979253Y-12608974D02*
X2988777Y-12570879D01*
X2988777Y-12570879D02*
X2998301Y-12551831D01*
X2998301Y-12551831D02*
X3007824Y-12542308D01*
X3007824Y-12542308D02*
X3026872Y-12532784D01*
X3179253Y-12713736D02*
X3188777Y-12723260D01*
X3188777Y-12723260D02*
X3179253Y-12732784D01*
X3179253Y-12732784D02*
X3169729Y-12723260D01*
X3169729Y-12723260D02*
X3179253Y-12713736D01*
X3179253Y-12713736D02*
X3179253Y-12732784D01*
X3303062Y-12618498D02*
X3284015Y-12608974D01*
X3284015Y-12608974D02*
X3274491Y-12599450D01*
X3274491Y-12599450D02*
X3264967Y-12580403D01*
X3264967Y-12580403D02*
X3264967Y-12570879D01*
X3264967Y-12570879D02*
X3274491Y-12551831D01*
X3274491Y-12551831D02*
X3284015Y-12542308D01*
X3284015Y-12542308D02*
X3303062Y-12532784D01*
X3303062Y-12532784D02*
X3341158Y-12532784D01*
X3341158Y-12532784D02*
X3360205Y-12542308D01*
X3360205Y-12542308D02*
X3369729Y-12551831D01*
X3369729Y-12551831D02*
X3379253Y-12570879D01*
X3379253Y-12570879D02*
X3379253Y-12580403D01*
X3379253Y-12580403D02*
X3369729Y-12599450D01*
X3369729Y-12599450D02*
X3360205Y-12608974D01*
X3360205Y-12608974D02*
X3341158Y-12618498D01*
X3341158Y-12618498D02*
X3303062Y-12618498D01*
X3303062Y-12618498D02*
X3284015Y-12628022D01*
X3284015Y-12628022D02*
X3274491Y-12637546D01*
X3274491Y-12637546D02*
X3264967Y-12656593D01*
X3264967Y-12656593D02*
X3264967Y-12694688D01*
X3264967Y-12694688D02*
X3274491Y-12713736D01*
X3274491Y-12713736D02*
X3284015Y-12723260D01*
X3284015Y-12723260D02*
X3303062Y-12732784D01*
X3303062Y-12732784D02*
X3341158Y-12732784D01*
X3341158Y-12732784D02*
X3360205Y-12723260D01*
X3360205Y-12723260D02*
X3369729Y-12713736D01*
X3369729Y-12713736D02*
X3379253Y-12694688D01*
X3379253Y-12694688D02*
X3379253Y-12656593D01*
X3379253Y-12656593D02*
X3369729Y-12637546D01*
X3369729Y-12637546D02*
X3360205Y-12628022D01*
X3360205Y-12628022D02*
X3341158Y-12618498D01*
X3503062Y-12532784D02*
X3522110Y-12532784D01*
X3522110Y-12532784D02*
X3541158Y-12542308D01*
X3541158Y-12542308D02*
X3550682Y-12551831D01*
X3550682Y-12551831D02*
X3560205Y-12570879D01*
X3560205Y-12570879D02*
X3569729Y-12608974D01*
X3569729Y-12608974D02*
X3569729Y-12656593D01*
X3569729Y-12656593D02*
X3560205Y-12694688D01*
X3560205Y-12694688D02*
X3550682Y-12713736D01*
X3550682Y-12713736D02*
X3541158Y-12723260D01*
X3541158Y-12723260D02*
X3522110Y-12732784D01*
X3522110Y-12732784D02*
X3503062Y-12732784D01*
X3503062Y-12732784D02*
X3484015Y-12723260D01*
X3484015Y-12723260D02*
X3474491Y-12713736D01*
X3474491Y-12713736D02*
X3464967Y-12694688D01*
X3464967Y-12694688D02*
X3455443Y-12656593D01*
X3455443Y-12656593D02*
X3455443Y-12608974D01*
X3455443Y-12608974D02*
X3464967Y-12570879D01*
X3464967Y-12570879D02*
X3474491Y-12551831D01*
X3474491Y-12551831D02*
X3484015Y-12542308D01*
X3484015Y-12542308D02*
X3503062Y-12532784D01*
X3693539Y-12532784D02*
X3712586Y-12532784D01*
X3712586Y-12532784D02*
X3731634Y-12542308D01*
X3731634Y-12542308D02*
X3741158Y-12551831D01*
X3741158Y-12551831D02*
X3750682Y-12570879D01*
X3750682Y-12570879D02*
X3760205Y-12608974D01*
X3760205Y-12608974D02*
X3760205Y-12656593D01*
X3760205Y-12656593D02*
X3750682Y-12694688D01*
X3750682Y-12694688D02*
X3741158Y-12713736D01*
X3741158Y-12713736D02*
X3731634Y-12723260D01*
X3731634Y-12723260D02*
X3712586Y-12732784D01*
X3712586Y-12732784D02*
X3693539Y-12732784D01*
X3693539Y-12732784D02*
X3674491Y-12723260D01*
X3674491Y-12723260D02*
X3664967Y-12713736D01*
X3664967Y-12713736D02*
X3655443Y-12694688D01*
X3655443Y-12694688D02*
X3645920Y-12656593D01*
X3645920Y-12656593D02*
X3645920Y-12608974D01*
X3645920Y-12608974D02*
X3655443Y-12570879D01*
X3655443Y-12570879D02*
X3664967Y-12551831D01*
X3664967Y-12551831D02*
X3674491Y-12542308D01*
X3674491Y-12542308D02*
X3693539Y-12532784D01*
X3845920Y-12732784D02*
X3845920Y-12599450D01*
X3845920Y-12618498D02*
X3855443Y-12608974D01*
X3855443Y-12608974D02*
X3874491Y-12599450D01*
X3874491Y-12599450D02*
X3903063Y-12599450D01*
X3903063Y-12599450D02*
X3922110Y-12608974D01*
X3922110Y-12608974D02*
X3931634Y-12628022D01*
X3931634Y-12628022D02*
X3931634Y-12732784D01*
X3931634Y-12628022D02*
X3941158Y-12608974D01*
X3941158Y-12608974D02*
X3960205Y-12599450D01*
X3960205Y-12599450D02*
X3988777Y-12599450D01*
X3988777Y-12599450D02*
X4007824Y-12608974D01*
X4007824Y-12608974D02*
X4017348Y-12628022D01*
X4017348Y-12628022D02*
X4017348Y-12732784D01*
X4112586Y-12732784D02*
X4112586Y-12599450D01*
X4112586Y-12618498D02*
X4122110Y-12608974D01*
X4122110Y-12608974D02*
X4141158Y-12599450D01*
X4141158Y-12599450D02*
X4169729Y-12599450D01*
X4169729Y-12599450D02*
X4188777Y-12608974D01*
X4188777Y-12608974D02*
X4198301Y-12628022D01*
X4198301Y-12628022D02*
X4198301Y-12732784D01*
X4198301Y-12628022D02*
X4207825Y-12608974D01*
X4207825Y-12608974D02*
X4226872Y-12599450D01*
X4226872Y-12599450D02*
X4255444Y-12599450D01*
X4255444Y-12599450D02*
X4274491Y-12608974D01*
X4274491Y-12608974D02*
X4284015Y-12628022D01*
X4284015Y-12628022D02*
X4284015Y-12732784D01*
X4674491Y-12523260D02*
X4503063Y-12780403D01*
X4931634Y-12532784D02*
X4950682Y-12532784D01*
X4950682Y-12532784D02*
X4969729Y-12542308D01*
X4969729Y-12542308D02*
X4979253Y-12551831D01*
X4979253Y-12551831D02*
X4988777Y-12570879D01*
X4988777Y-12570879D02*
X4998301Y-12608974D01*
X4998301Y-12608974D02*
X4998301Y-12656593D01*
X4998301Y-12656593D02*
X4988777Y-12694688D01*
X4988777Y-12694688D02*
X4979253Y-12713736D01*
X4979253Y-12713736D02*
X4969729Y-12723260D01*
X4969729Y-12723260D02*
X4950682Y-12732784D01*
X4950682Y-12732784D02*
X4931634Y-12732784D01*
X4931634Y-12732784D02*
X4912587Y-12723260D01*
X4912587Y-12723260D02*
X4903063Y-12713736D01*
X4903063Y-12713736D02*
X4893539Y-12694688D01*
X4893539Y-12694688D02*
X4884015Y-12656593D01*
X4884015Y-12656593D02*
X4884015Y-12608974D01*
X4884015Y-12608974D02*
X4893539Y-12570879D01*
X4893539Y-12570879D02*
X4903063Y-12551831D01*
X4903063Y-12551831D02*
X4912587Y-12542308D01*
X4912587Y-12542308D02*
X4931634Y-12532784D01*
X5084015Y-12713736D02*
X5093539Y-12723260D01*
X5093539Y-12723260D02*
X5084015Y-12732784D01*
X5084015Y-12732784D02*
X5074491Y-12723260D01*
X5074491Y-12723260D02*
X5084015Y-12713736D01*
X5084015Y-12713736D02*
X5084015Y-12732784D01*
X5217348Y-12532784D02*
X5236396Y-12532784D01*
X5236396Y-12532784D02*
X5255444Y-12542308D01*
X5255444Y-12542308D02*
X5264968Y-12551831D01*
X5264968Y-12551831D02*
X5274491Y-12570879D01*
X5274491Y-12570879D02*
X5284015Y-12608974D01*
X5284015Y-12608974D02*
X5284015Y-12656593D01*
X5284015Y-12656593D02*
X5274491Y-12694688D01*
X5274491Y-12694688D02*
X5264968Y-12713736D01*
X5264968Y-12713736D02*
X5255444Y-12723260D01*
X5255444Y-12723260D02*
X5236396Y-12732784D01*
X5236396Y-12732784D02*
X5217348Y-12732784D01*
X5217348Y-12732784D02*
X5198301Y-12723260D01*
X5198301Y-12723260D02*
X5188777Y-12713736D01*
X5188777Y-12713736D02*
X5179253Y-12694688D01*
X5179253Y-12694688D02*
X5169729Y-12656593D01*
X5169729Y-12656593D02*
X5169729Y-12608974D01*
X5169729Y-12608974D02*
X5179253Y-12570879D01*
X5179253Y-12570879D02*
X5188777Y-12551831D01*
X5188777Y-12551831D02*
X5198301Y-12542308D01*
X5198301Y-12542308D02*
X5217348Y-12532784D01*
X5350682Y-12532784D02*
X5474491Y-12532784D01*
X5474491Y-12532784D02*
X5407825Y-12608974D01*
X5407825Y-12608974D02*
X5436396Y-12608974D01*
X5436396Y-12608974D02*
X5455444Y-12618498D01*
X5455444Y-12618498D02*
X5464968Y-12628022D01*
X5464968Y-12628022D02*
X5474491Y-12647069D01*
X5474491Y-12647069D02*
X5474491Y-12694688D01*
X5474491Y-12694688D02*
X5464968Y-12713736D01*
X5464968Y-12713736D02*
X5455444Y-12723260D01*
X5455444Y-12723260D02*
X5436396Y-12732784D01*
X5436396Y-12732784D02*
X5379253Y-12732784D01*
X5379253Y-12732784D02*
X5360206Y-12723260D01*
X5360206Y-12723260D02*
X5350682Y-12713736D01*
X5664967Y-12732784D02*
X5550682Y-12732784D01*
X5607825Y-12732784D02*
X5607825Y-12532784D01*
X5607825Y-12532784D02*
X5588777Y-12561355D01*
X5588777Y-12561355D02*
X5569729Y-12580403D01*
X5569729Y-12580403D02*
X5550682Y-12589927D01*
X5845920Y-12532784D02*
X5750682Y-12532784D01*
X5750682Y-12532784D02*
X5741158Y-12628022D01*
X5741158Y-12628022D02*
X5750682Y-12618498D01*
X5750682Y-12618498D02*
X5769729Y-12608974D01*
X5769729Y-12608974D02*
X5817348Y-12608974D01*
X5817348Y-12608974D02*
X5836396Y-12618498D01*
X5836396Y-12618498D02*
X5845920Y-12628022D01*
X5845920Y-12628022D02*
X5855444Y-12647069D01*
X5855444Y-12647069D02*
X5855444Y-12694688D01*
X5855444Y-12694688D02*
X5845920Y-12713736D01*
X5845920Y-12713736D02*
X5836396Y-12723260D01*
X5836396Y-12723260D02*
X5817348Y-12732784D01*
X5817348Y-12732784D02*
X5769729Y-12732784D01*
X5769729Y-12732784D02*
X5750682Y-12723260D01*
X5750682Y-12723260D02*
X5741158Y-12713736D01*
X5931634Y-12532784D02*
X5931634Y-12570879D01*
X6007825Y-12532784D02*
X6007825Y-12570879D01*
X6303063Y-12808974D02*
X6293539Y-12799450D01*
X6293539Y-12799450D02*
X6274491Y-12770879D01*
X6274491Y-12770879D02*
X6264968Y-12751831D01*
X6264968Y-12751831D02*
X6255444Y-12723260D01*
X6255444Y-12723260D02*
X6245920Y-12675641D01*
X6245920Y-12675641D02*
X6245920Y-12637546D01*
X6245920Y-12637546D02*
X6255444Y-12589927D01*
X6255444Y-12589927D02*
X6264968Y-12561355D01*
X6264968Y-12561355D02*
X6274491Y-12542308D01*
X6274491Y-12542308D02*
X6293539Y-12513736D01*
X6293539Y-12513736D02*
X6303063Y-12504212D01*
X6484015Y-12732784D02*
X6369729Y-12732784D01*
X6426872Y-12732784D02*
X6426872Y-12532784D01*
X6426872Y-12532784D02*
X6407825Y-12561355D01*
X6407825Y-12561355D02*
X6388777Y-12580403D01*
X6388777Y-12580403D02*
X6369729Y-12589927D01*
X6655444Y-12532784D02*
X6617348Y-12532784D01*
X6617348Y-12532784D02*
X6598301Y-12542308D01*
X6598301Y-12542308D02*
X6588777Y-12551831D01*
X6588777Y-12551831D02*
X6569729Y-12580403D01*
X6569729Y-12580403D02*
X6560206Y-12618498D01*
X6560206Y-12618498D02*
X6560206Y-12694688D01*
X6560206Y-12694688D02*
X6569729Y-12713736D01*
X6569729Y-12713736D02*
X6579253Y-12723260D01*
X6579253Y-12723260D02*
X6598301Y-12732784D01*
X6598301Y-12732784D02*
X6636396Y-12732784D01*
X6636396Y-12732784D02*
X6655444Y-12723260D01*
X6655444Y-12723260D02*
X6664968Y-12713736D01*
X6664968Y-12713736D02*
X6674491Y-12694688D01*
X6674491Y-12694688D02*
X6674491Y-12647069D01*
X6674491Y-12647069D02*
X6664968Y-12628022D01*
X6664968Y-12628022D02*
X6655444Y-12618498D01*
X6655444Y-12618498D02*
X6636396Y-12608974D01*
X6636396Y-12608974D02*
X6598301Y-12608974D01*
X6598301Y-12608974D02*
X6579253Y-12618498D01*
X6579253Y-12618498D02*
X6569729Y-12628022D01*
X6569729Y-12628022D02*
X6560206Y-12647069D01*
X6912587Y-12732784D02*
X6912587Y-12532784D01*
X6998301Y-12732784D02*
X6998301Y-12628022D01*
X6998301Y-12628022D02*
X6988777Y-12608974D01*
X6988777Y-12608974D02*
X6969730Y-12599450D01*
X6969730Y-12599450D02*
X6941158Y-12599450D01*
X6941158Y-12599450D02*
X6922110Y-12608974D01*
X6922110Y-12608974D02*
X6912587Y-12618498D01*
X7122110Y-12732784D02*
X7103063Y-12723260D01*
X7103063Y-12723260D02*
X7093539Y-12713736D01*
X7093539Y-12713736D02*
X7084015Y-12694688D01*
X7084015Y-12694688D02*
X7084015Y-12637546D01*
X7084015Y-12637546D02*
X7093539Y-12618498D01*
X7093539Y-12618498D02*
X7103063Y-12608974D01*
X7103063Y-12608974D02*
X7122110Y-12599450D01*
X7122110Y-12599450D02*
X7150682Y-12599450D01*
X7150682Y-12599450D02*
X7169730Y-12608974D01*
X7169730Y-12608974D02*
X7179253Y-12618498D01*
X7179253Y-12618498D02*
X7188777Y-12637546D01*
X7188777Y-12637546D02*
X7188777Y-12694688D01*
X7188777Y-12694688D02*
X7179253Y-12713736D01*
X7179253Y-12713736D02*
X7169730Y-12723260D01*
X7169730Y-12723260D02*
X7150682Y-12732784D01*
X7150682Y-12732784D02*
X7122110Y-12732784D01*
X7303063Y-12732784D02*
X7284015Y-12723260D01*
X7284015Y-12723260D02*
X7274491Y-12704212D01*
X7274491Y-12704212D02*
X7274491Y-12532784D01*
X7455444Y-12723260D02*
X7436396Y-12732784D01*
X7436396Y-12732784D02*
X7398301Y-12732784D01*
X7398301Y-12732784D02*
X7379253Y-12723260D01*
X7379253Y-12723260D02*
X7369730Y-12704212D01*
X7369730Y-12704212D02*
X7369730Y-12628022D01*
X7369730Y-12628022D02*
X7379253Y-12608974D01*
X7379253Y-12608974D02*
X7398301Y-12599450D01*
X7398301Y-12599450D02*
X7436396Y-12599450D01*
X7436396Y-12599450D02*
X7455444Y-12608974D01*
X7455444Y-12608974D02*
X7464968Y-12628022D01*
X7464968Y-12628022D02*
X7464968Y-12647069D01*
X7464968Y-12647069D02*
X7369730Y-12666117D01*
X7541158Y-12723260D02*
X7560206Y-12732784D01*
X7560206Y-12732784D02*
X7598301Y-12732784D01*
X7598301Y-12732784D02*
X7617349Y-12723260D01*
X7617349Y-12723260D02*
X7626872Y-12704212D01*
X7626872Y-12704212D02*
X7626872Y-12694688D01*
X7626872Y-12694688D02*
X7617349Y-12675641D01*
X7617349Y-12675641D02*
X7598301Y-12666117D01*
X7598301Y-12666117D02*
X7569730Y-12666117D01*
X7569730Y-12666117D02*
X7550682Y-12656593D01*
X7550682Y-12656593D02*
X7541158Y-12637546D01*
X7541158Y-12637546D02*
X7541158Y-12628022D01*
X7541158Y-12628022D02*
X7550682Y-12608974D01*
X7550682Y-12608974D02*
X7569730Y-12599450D01*
X7569730Y-12599450D02*
X7598301Y-12599450D01*
X7598301Y-12599450D02*
X7617349Y-12608974D01*
X7693539Y-12808974D02*
X7703063Y-12799450D01*
X7703063Y-12799450D02*
X7722111Y-12770879D01*
X7722111Y-12770879D02*
X7731634Y-12751831D01*
X7731634Y-12751831D02*
X7741158Y-12723260D01*
X7741158Y-12723260D02*
X7750682Y-12675641D01*
X7750682Y-12675641D02*
X7750682Y-12637546D01*
X7750682Y-12637546D02*
X7741158Y-12589927D01*
X7741158Y-12589927D02*
X7731634Y-12561355D01*
X7731634Y-12561355D02*
X7722111Y-12542308D01*
X7722111Y-12542308D02*
X7703063Y-12513736D01*
X7703063Y-12513736D02*
X7693539Y-12504212D01*
D12*
X2678000Y-12855300D02*
X2678000Y-12955300D01*
X2628000Y-12905300D02*
X2728000Y-12905300D01*
D11*
X3093539Y-12996784D02*
X2979253Y-12996784D01*
X3036396Y-12996784D02*
X3036396Y-12796784D01*
X3036396Y-12796784D02*
X3017348Y-12825355D01*
X3017348Y-12825355D02*
X2998301Y-12844403D01*
X2998301Y-12844403D02*
X2979253Y-12853927D01*
X3179253Y-12977736D02*
X3188777Y-12987260D01*
X3188777Y-12987260D02*
X3179253Y-12996784D01*
X3179253Y-12996784D02*
X3169729Y-12987260D01*
X3169729Y-12987260D02*
X3179253Y-12977736D01*
X3179253Y-12977736D02*
X3179253Y-12996784D01*
X3312586Y-12796784D02*
X3331634Y-12796784D01*
X3331634Y-12796784D02*
X3350682Y-12806308D01*
X3350682Y-12806308D02*
X3360205Y-12815831D01*
X3360205Y-12815831D02*
X3369729Y-12834879D01*
X3369729Y-12834879D02*
X3379253Y-12872974D01*
X3379253Y-12872974D02*
X3379253Y-12920593D01*
X3379253Y-12920593D02*
X3369729Y-12958688D01*
X3369729Y-12958688D02*
X3360205Y-12977736D01*
X3360205Y-12977736D02*
X3350682Y-12987260D01*
X3350682Y-12987260D02*
X3331634Y-12996784D01*
X3331634Y-12996784D02*
X3312586Y-12996784D01*
X3312586Y-12996784D02*
X3293539Y-12987260D01*
X3293539Y-12987260D02*
X3284015Y-12977736D01*
X3284015Y-12977736D02*
X3274491Y-12958688D01*
X3274491Y-12958688D02*
X3264967Y-12920593D01*
X3264967Y-12920593D02*
X3264967Y-12872974D01*
X3264967Y-12872974D02*
X3274491Y-12834879D01*
X3274491Y-12834879D02*
X3284015Y-12815831D01*
X3284015Y-12815831D02*
X3293539Y-12806308D01*
X3293539Y-12806308D02*
X3312586Y-12796784D01*
X3503062Y-12796784D02*
X3522110Y-12796784D01*
X3522110Y-12796784D02*
X3541158Y-12806308D01*
X3541158Y-12806308D02*
X3550682Y-12815831D01*
X3550682Y-12815831D02*
X3560205Y-12834879D01*
X3560205Y-12834879D02*
X3569729Y-12872974D01*
X3569729Y-12872974D02*
X3569729Y-12920593D01*
X3569729Y-12920593D02*
X3560205Y-12958688D01*
X3560205Y-12958688D02*
X3550682Y-12977736D01*
X3550682Y-12977736D02*
X3541158Y-12987260D01*
X3541158Y-12987260D02*
X3522110Y-12996784D01*
X3522110Y-12996784D02*
X3503062Y-12996784D01*
X3503062Y-12996784D02*
X3484015Y-12987260D01*
X3484015Y-12987260D02*
X3474491Y-12977736D01*
X3474491Y-12977736D02*
X3464967Y-12958688D01*
X3464967Y-12958688D02*
X3455443Y-12920593D01*
X3455443Y-12920593D02*
X3455443Y-12872974D01*
X3455443Y-12872974D02*
X3464967Y-12834879D01*
X3464967Y-12834879D02*
X3474491Y-12815831D01*
X3474491Y-12815831D02*
X3484015Y-12806308D01*
X3484015Y-12806308D02*
X3503062Y-12796784D01*
X3693539Y-12796784D02*
X3712586Y-12796784D01*
X3712586Y-12796784D02*
X3731634Y-12806308D01*
X3731634Y-12806308D02*
X3741158Y-12815831D01*
X3741158Y-12815831D02*
X3750682Y-12834879D01*
X3750682Y-12834879D02*
X3760205Y-12872974D01*
X3760205Y-12872974D02*
X3760205Y-12920593D01*
X3760205Y-12920593D02*
X3750682Y-12958688D01*
X3750682Y-12958688D02*
X3741158Y-12977736D01*
X3741158Y-12977736D02*
X3731634Y-12987260D01*
X3731634Y-12987260D02*
X3712586Y-12996784D01*
X3712586Y-12996784D02*
X3693539Y-12996784D01*
X3693539Y-12996784D02*
X3674491Y-12987260D01*
X3674491Y-12987260D02*
X3664967Y-12977736D01*
X3664967Y-12977736D02*
X3655443Y-12958688D01*
X3655443Y-12958688D02*
X3645920Y-12920593D01*
X3645920Y-12920593D02*
X3645920Y-12872974D01*
X3645920Y-12872974D02*
X3655443Y-12834879D01*
X3655443Y-12834879D02*
X3664967Y-12815831D01*
X3664967Y-12815831D02*
X3674491Y-12806308D01*
X3674491Y-12806308D02*
X3693539Y-12796784D01*
X3845920Y-12996784D02*
X3845920Y-12863450D01*
X3845920Y-12882498D02*
X3855443Y-12872974D01*
X3855443Y-12872974D02*
X3874491Y-12863450D01*
X3874491Y-12863450D02*
X3903063Y-12863450D01*
X3903063Y-12863450D02*
X3922110Y-12872974D01*
X3922110Y-12872974D02*
X3931634Y-12892022D01*
X3931634Y-12892022D02*
X3931634Y-12996784D01*
X3931634Y-12892022D02*
X3941158Y-12872974D01*
X3941158Y-12872974D02*
X3960205Y-12863450D01*
X3960205Y-12863450D02*
X3988777Y-12863450D01*
X3988777Y-12863450D02*
X4007824Y-12872974D01*
X4007824Y-12872974D02*
X4017348Y-12892022D01*
X4017348Y-12892022D02*
X4017348Y-12996784D01*
X4112586Y-12996784D02*
X4112586Y-12863450D01*
X4112586Y-12882498D02*
X4122110Y-12872974D01*
X4122110Y-12872974D02*
X4141158Y-12863450D01*
X4141158Y-12863450D02*
X4169729Y-12863450D01*
X4169729Y-12863450D02*
X4188777Y-12872974D01*
X4188777Y-12872974D02*
X4198301Y-12892022D01*
X4198301Y-12892022D02*
X4198301Y-12996784D01*
X4198301Y-12892022D02*
X4207825Y-12872974D01*
X4207825Y-12872974D02*
X4226872Y-12863450D01*
X4226872Y-12863450D02*
X4255444Y-12863450D01*
X4255444Y-12863450D02*
X4274491Y-12872974D01*
X4274491Y-12872974D02*
X4284015Y-12892022D01*
X4284015Y-12892022D02*
X4284015Y-12996784D01*
X4674491Y-12787260D02*
X4503063Y-13044403D01*
X4931634Y-12796784D02*
X4950682Y-12796784D01*
X4950682Y-12796784D02*
X4969729Y-12806308D01*
X4969729Y-12806308D02*
X4979253Y-12815831D01*
X4979253Y-12815831D02*
X4988777Y-12834879D01*
X4988777Y-12834879D02*
X4998301Y-12872974D01*
X4998301Y-12872974D02*
X4998301Y-12920593D01*
X4998301Y-12920593D02*
X4988777Y-12958688D01*
X4988777Y-12958688D02*
X4979253Y-12977736D01*
X4979253Y-12977736D02*
X4969729Y-12987260D01*
X4969729Y-12987260D02*
X4950682Y-12996784D01*
X4950682Y-12996784D02*
X4931634Y-12996784D01*
X4931634Y-12996784D02*
X4912587Y-12987260D01*
X4912587Y-12987260D02*
X4903063Y-12977736D01*
X4903063Y-12977736D02*
X4893539Y-12958688D01*
X4893539Y-12958688D02*
X4884015Y-12920593D01*
X4884015Y-12920593D02*
X4884015Y-12872974D01*
X4884015Y-12872974D02*
X4893539Y-12834879D01*
X4893539Y-12834879D02*
X4903063Y-12815831D01*
X4903063Y-12815831D02*
X4912587Y-12806308D01*
X4912587Y-12806308D02*
X4931634Y-12796784D01*
X5084015Y-12977736D02*
X5093539Y-12987260D01*
X5093539Y-12987260D02*
X5084015Y-12996784D01*
X5084015Y-12996784D02*
X5074491Y-12987260D01*
X5074491Y-12987260D02*
X5084015Y-12977736D01*
X5084015Y-12977736D02*
X5084015Y-12996784D01*
X5217348Y-12796784D02*
X5236396Y-12796784D01*
X5236396Y-12796784D02*
X5255444Y-12806308D01*
X5255444Y-12806308D02*
X5264968Y-12815831D01*
X5264968Y-12815831D02*
X5274491Y-12834879D01*
X5274491Y-12834879D02*
X5284015Y-12872974D01*
X5284015Y-12872974D02*
X5284015Y-12920593D01*
X5284015Y-12920593D02*
X5274491Y-12958688D01*
X5274491Y-12958688D02*
X5264968Y-12977736D01*
X5264968Y-12977736D02*
X5255444Y-12987260D01*
X5255444Y-12987260D02*
X5236396Y-12996784D01*
X5236396Y-12996784D02*
X5217348Y-12996784D01*
X5217348Y-12996784D02*
X5198301Y-12987260D01*
X5198301Y-12987260D02*
X5188777Y-12977736D01*
X5188777Y-12977736D02*
X5179253Y-12958688D01*
X5179253Y-12958688D02*
X5169729Y-12920593D01*
X5169729Y-12920593D02*
X5169729Y-12872974D01*
X5169729Y-12872974D02*
X5179253Y-12834879D01*
X5179253Y-12834879D02*
X5188777Y-12815831D01*
X5188777Y-12815831D02*
X5198301Y-12806308D01*
X5198301Y-12806308D02*
X5217348Y-12796784D01*
X5350682Y-12796784D02*
X5474491Y-12796784D01*
X5474491Y-12796784D02*
X5407825Y-12872974D01*
X5407825Y-12872974D02*
X5436396Y-12872974D01*
X5436396Y-12872974D02*
X5455444Y-12882498D01*
X5455444Y-12882498D02*
X5464968Y-12892022D01*
X5464968Y-12892022D02*
X5474491Y-12911069D01*
X5474491Y-12911069D02*
X5474491Y-12958688D01*
X5474491Y-12958688D02*
X5464968Y-12977736D01*
X5464968Y-12977736D02*
X5455444Y-12987260D01*
X5455444Y-12987260D02*
X5436396Y-12996784D01*
X5436396Y-12996784D02*
X5379253Y-12996784D01*
X5379253Y-12996784D02*
X5360206Y-12987260D01*
X5360206Y-12987260D02*
X5350682Y-12977736D01*
X5569729Y-12996784D02*
X5607825Y-12996784D01*
X5607825Y-12996784D02*
X5626872Y-12987260D01*
X5626872Y-12987260D02*
X5636396Y-12977736D01*
X5636396Y-12977736D02*
X5655444Y-12949165D01*
X5655444Y-12949165D02*
X5664967Y-12911069D01*
X5664967Y-12911069D02*
X5664967Y-12834879D01*
X5664967Y-12834879D02*
X5655444Y-12815831D01*
X5655444Y-12815831D02*
X5645920Y-12806308D01*
X5645920Y-12806308D02*
X5626872Y-12796784D01*
X5626872Y-12796784D02*
X5588777Y-12796784D01*
X5588777Y-12796784D02*
X5569729Y-12806308D01*
X5569729Y-12806308D02*
X5560206Y-12815831D01*
X5560206Y-12815831D02*
X5550682Y-12834879D01*
X5550682Y-12834879D02*
X5550682Y-12882498D01*
X5550682Y-12882498D02*
X5560206Y-12901546D01*
X5560206Y-12901546D02*
X5569729Y-12911069D01*
X5569729Y-12911069D02*
X5588777Y-12920593D01*
X5588777Y-12920593D02*
X5626872Y-12920593D01*
X5626872Y-12920593D02*
X5645920Y-12911069D01*
X5645920Y-12911069D02*
X5655444Y-12901546D01*
X5655444Y-12901546D02*
X5664967Y-12882498D01*
X5836396Y-12863450D02*
X5836396Y-12996784D01*
X5788777Y-12787260D02*
X5741158Y-12930117D01*
X5741158Y-12930117D02*
X5864967Y-12930117D01*
X5931634Y-12796784D02*
X5931634Y-12834879D01*
X6007825Y-12796784D02*
X6007825Y-12834879D01*
X6303063Y-13072974D02*
X6293539Y-13063450D01*
X6293539Y-13063450D02*
X6274491Y-13034879D01*
X6274491Y-13034879D02*
X6264968Y-13015831D01*
X6264968Y-13015831D02*
X6255444Y-12987260D01*
X6255444Y-12987260D02*
X6245920Y-12939641D01*
X6245920Y-12939641D02*
X6245920Y-12901546D01*
X6245920Y-12901546D02*
X6255444Y-12853927D01*
X6255444Y-12853927D02*
X6264968Y-12825355D01*
X6264968Y-12825355D02*
X6274491Y-12806308D01*
X6274491Y-12806308D02*
X6293539Y-12777736D01*
X6293539Y-12777736D02*
X6303063Y-12768212D01*
X6474491Y-12796784D02*
X6379253Y-12796784D01*
X6379253Y-12796784D02*
X6369729Y-12892022D01*
X6369729Y-12892022D02*
X6379253Y-12882498D01*
X6379253Y-12882498D02*
X6398301Y-12872974D01*
X6398301Y-12872974D02*
X6445920Y-12872974D01*
X6445920Y-12872974D02*
X6464968Y-12882498D01*
X6464968Y-12882498D02*
X6474491Y-12892022D01*
X6474491Y-12892022D02*
X6484015Y-12911069D01*
X6484015Y-12911069D02*
X6484015Y-12958688D01*
X6484015Y-12958688D02*
X6474491Y-12977736D01*
X6474491Y-12977736D02*
X6464968Y-12987260D01*
X6464968Y-12987260D02*
X6445920Y-12996784D01*
X6445920Y-12996784D02*
X6398301Y-12996784D01*
X6398301Y-12996784D02*
X6379253Y-12987260D01*
X6379253Y-12987260D02*
X6369729Y-12977736D01*
X6560206Y-12815831D02*
X6569729Y-12806308D01*
X6569729Y-12806308D02*
X6588777Y-12796784D01*
X6588777Y-12796784D02*
X6636396Y-12796784D01*
X6636396Y-12796784D02*
X6655444Y-12806308D01*
X6655444Y-12806308D02*
X6664968Y-12815831D01*
X6664968Y-12815831D02*
X6674491Y-12834879D01*
X6674491Y-12834879D02*
X6674491Y-12853927D01*
X6674491Y-12853927D02*
X6664968Y-12882498D01*
X6664968Y-12882498D02*
X6550682Y-12996784D01*
X6550682Y-12996784D02*
X6674491Y-12996784D01*
X6912587Y-12996784D02*
X6912587Y-12796784D01*
X6998301Y-12996784D02*
X6998301Y-12892022D01*
X6998301Y-12892022D02*
X6988777Y-12872974D01*
X6988777Y-12872974D02*
X6969730Y-12863450D01*
X6969730Y-12863450D02*
X6941158Y-12863450D01*
X6941158Y-12863450D02*
X6922110Y-12872974D01*
X6922110Y-12872974D02*
X6912587Y-12882498D01*
X7122110Y-12996784D02*
X7103063Y-12987260D01*
X7103063Y-12987260D02*
X7093539Y-12977736D01*
X7093539Y-12977736D02*
X7084015Y-12958688D01*
X7084015Y-12958688D02*
X7084015Y-12901546D01*
X7084015Y-12901546D02*
X7093539Y-12882498D01*
X7093539Y-12882498D02*
X7103063Y-12872974D01*
X7103063Y-12872974D02*
X7122110Y-12863450D01*
X7122110Y-12863450D02*
X7150682Y-12863450D01*
X7150682Y-12863450D02*
X7169730Y-12872974D01*
X7169730Y-12872974D02*
X7179253Y-12882498D01*
X7179253Y-12882498D02*
X7188777Y-12901546D01*
X7188777Y-12901546D02*
X7188777Y-12958688D01*
X7188777Y-12958688D02*
X7179253Y-12977736D01*
X7179253Y-12977736D02*
X7169730Y-12987260D01*
X7169730Y-12987260D02*
X7150682Y-12996784D01*
X7150682Y-12996784D02*
X7122110Y-12996784D01*
X7303063Y-12996784D02*
X7284015Y-12987260D01*
X7284015Y-12987260D02*
X7274491Y-12968212D01*
X7274491Y-12968212D02*
X7274491Y-12796784D01*
X7455444Y-12987260D02*
X7436396Y-12996784D01*
X7436396Y-12996784D02*
X7398301Y-12996784D01*
X7398301Y-12996784D02*
X7379253Y-12987260D01*
X7379253Y-12987260D02*
X7369730Y-12968212D01*
X7369730Y-12968212D02*
X7369730Y-12892022D01*
X7369730Y-12892022D02*
X7379253Y-12872974D01*
X7379253Y-12872974D02*
X7398301Y-12863450D01*
X7398301Y-12863450D02*
X7436396Y-12863450D01*
X7436396Y-12863450D02*
X7455444Y-12872974D01*
X7455444Y-12872974D02*
X7464968Y-12892022D01*
X7464968Y-12892022D02*
X7464968Y-12911069D01*
X7464968Y-12911069D02*
X7369730Y-12930117D01*
X7541158Y-12987260D02*
X7560206Y-12996784D01*
X7560206Y-12996784D02*
X7598301Y-12996784D01*
X7598301Y-12996784D02*
X7617349Y-12987260D01*
X7617349Y-12987260D02*
X7626872Y-12968212D01*
X7626872Y-12968212D02*
X7626872Y-12958688D01*
X7626872Y-12958688D02*
X7617349Y-12939641D01*
X7617349Y-12939641D02*
X7598301Y-12930117D01*
X7598301Y-12930117D02*
X7569730Y-12930117D01*
X7569730Y-12930117D02*
X7550682Y-12920593D01*
X7550682Y-12920593D02*
X7541158Y-12901546D01*
X7541158Y-12901546D02*
X7541158Y-12892022D01*
X7541158Y-12892022D02*
X7550682Y-12872974D01*
X7550682Y-12872974D02*
X7569730Y-12863450D01*
X7569730Y-12863450D02*
X7598301Y-12863450D01*
X7598301Y-12863450D02*
X7617349Y-12872974D01*
X7693539Y-13072974D02*
X7703063Y-13063450D01*
X7703063Y-13063450D02*
X7722111Y-13034879D01*
X7722111Y-13034879D02*
X7731634Y-13015831D01*
X7731634Y-13015831D02*
X7741158Y-12987260D01*
X7741158Y-12987260D02*
X7750682Y-12939641D01*
X7750682Y-12939641D02*
X7750682Y-12901546D01*
X7750682Y-12901546D02*
X7741158Y-12853927D01*
X7741158Y-12853927D02*
X7731634Y-12825355D01*
X7731634Y-12825355D02*
X7722111Y-12806308D01*
X7722111Y-12806308D02*
X7703063Y-12777736D01*
X7703063Y-12777736D02*
X7693539Y-12768212D01*
X2698711Y-13240011D02*
X2698711Y-13098589D01*
X2557289Y-13098589D01*
X2557289Y-13240011D01*
X2698711Y-13240011D01*
X2969729Y-13060784D02*
X3093539Y-13060784D01*
X3093539Y-13060784D02*
X3026872Y-13136974D01*
X3026872Y-13136974D02*
X3055443Y-13136974D01*
X3055443Y-13136974D02*
X3074491Y-13146498D01*
X3074491Y-13146498D02*
X3084015Y-13156022D01*
X3084015Y-13156022D02*
X3093539Y-13175069D01*
X3093539Y-13175069D02*
X3093539Y-13222688D01*
X3093539Y-13222688D02*
X3084015Y-13241736D01*
X3084015Y-13241736D02*
X3074491Y-13251260D01*
X3074491Y-13251260D02*
X3055443Y-13260784D01*
X3055443Y-13260784D02*
X2998301Y-13260784D01*
X2998301Y-13260784D02*
X2979253Y-13251260D01*
X2979253Y-13251260D02*
X2969729Y-13241736D01*
X3179253Y-13241736D02*
X3188777Y-13251260D01*
X3188777Y-13251260D02*
X3179253Y-13260784D01*
X3179253Y-13260784D02*
X3169729Y-13251260D01*
X3169729Y-13251260D02*
X3179253Y-13241736D01*
X3179253Y-13241736D02*
X3179253Y-13260784D01*
X3264967Y-13079831D02*
X3274491Y-13070308D01*
X3274491Y-13070308D02*
X3293539Y-13060784D01*
X3293539Y-13060784D02*
X3341158Y-13060784D01*
X3341158Y-13060784D02*
X3360205Y-13070308D01*
X3360205Y-13070308D02*
X3369729Y-13079831D01*
X3369729Y-13079831D02*
X3379253Y-13098879D01*
X3379253Y-13098879D02*
X3379253Y-13117927D01*
X3379253Y-13117927D02*
X3369729Y-13146498D01*
X3369729Y-13146498D02*
X3255443Y-13260784D01*
X3255443Y-13260784D02*
X3379253Y-13260784D01*
X3503062Y-13060784D02*
X3522110Y-13060784D01*
X3522110Y-13060784D02*
X3541158Y-13070308D01*
X3541158Y-13070308D02*
X3550682Y-13079831D01*
X3550682Y-13079831D02*
X3560205Y-13098879D01*
X3560205Y-13098879D02*
X3569729Y-13136974D01*
X3569729Y-13136974D02*
X3569729Y-13184593D01*
X3569729Y-13184593D02*
X3560205Y-13222688D01*
X3560205Y-13222688D02*
X3550682Y-13241736D01*
X3550682Y-13241736D02*
X3541158Y-13251260D01*
X3541158Y-13251260D02*
X3522110Y-13260784D01*
X3522110Y-13260784D02*
X3503062Y-13260784D01*
X3503062Y-13260784D02*
X3484015Y-13251260D01*
X3484015Y-13251260D02*
X3474491Y-13241736D01*
X3474491Y-13241736D02*
X3464967Y-13222688D01*
X3464967Y-13222688D02*
X3455443Y-13184593D01*
X3455443Y-13184593D02*
X3455443Y-13136974D01*
X3455443Y-13136974D02*
X3464967Y-13098879D01*
X3464967Y-13098879D02*
X3474491Y-13079831D01*
X3474491Y-13079831D02*
X3484015Y-13070308D01*
X3484015Y-13070308D02*
X3503062Y-13060784D01*
X3693539Y-13060784D02*
X3712586Y-13060784D01*
X3712586Y-13060784D02*
X3731634Y-13070308D01*
X3731634Y-13070308D02*
X3741158Y-13079831D01*
X3741158Y-13079831D02*
X3750682Y-13098879D01*
X3750682Y-13098879D02*
X3760205Y-13136974D01*
X3760205Y-13136974D02*
X3760205Y-13184593D01*
X3760205Y-13184593D02*
X3750682Y-13222688D01*
X3750682Y-13222688D02*
X3741158Y-13241736D01*
X3741158Y-13241736D02*
X3731634Y-13251260D01*
X3731634Y-13251260D02*
X3712586Y-13260784D01*
X3712586Y-13260784D02*
X3693539Y-13260784D01*
X3693539Y-13260784D02*
X3674491Y-13251260D01*
X3674491Y-13251260D02*
X3664967Y-13241736D01*
X3664967Y-13241736D02*
X3655443Y-13222688D01*
X3655443Y-13222688D02*
X3645920Y-13184593D01*
X3645920Y-13184593D02*
X3645920Y-13136974D01*
X3645920Y-13136974D02*
X3655443Y-13098879D01*
X3655443Y-13098879D02*
X3664967Y-13079831D01*
X3664967Y-13079831D02*
X3674491Y-13070308D01*
X3674491Y-13070308D02*
X3693539Y-13060784D01*
X3845920Y-13260784D02*
X3845920Y-13127450D01*
X3845920Y-13146498D02*
X3855443Y-13136974D01*
X3855443Y-13136974D02*
X3874491Y-13127450D01*
X3874491Y-13127450D02*
X3903063Y-13127450D01*
X3903063Y-13127450D02*
X3922110Y-13136974D01*
X3922110Y-13136974D02*
X3931634Y-13156022D01*
X3931634Y-13156022D02*
X3931634Y-13260784D01*
X3931634Y-13156022D02*
X3941158Y-13136974D01*
X3941158Y-13136974D02*
X3960205Y-13127450D01*
X3960205Y-13127450D02*
X3988777Y-13127450D01*
X3988777Y-13127450D02*
X4007824Y-13136974D01*
X4007824Y-13136974D02*
X4017348Y-13156022D01*
X4017348Y-13156022D02*
X4017348Y-13260784D01*
X4112586Y-13260784D02*
X4112586Y-13127450D01*
X4112586Y-13146498D02*
X4122110Y-13136974D01*
X4122110Y-13136974D02*
X4141158Y-13127450D01*
X4141158Y-13127450D02*
X4169729Y-13127450D01*
X4169729Y-13127450D02*
X4188777Y-13136974D01*
X4188777Y-13136974D02*
X4198301Y-13156022D01*
X4198301Y-13156022D02*
X4198301Y-13260784D01*
X4198301Y-13156022D02*
X4207825Y-13136974D01*
X4207825Y-13136974D02*
X4226872Y-13127450D01*
X4226872Y-13127450D02*
X4255444Y-13127450D01*
X4255444Y-13127450D02*
X4274491Y-13136974D01*
X4274491Y-13136974D02*
X4284015Y-13156022D01*
X4284015Y-13156022D02*
X4284015Y-13260784D01*
X4674491Y-13051260D02*
X4503063Y-13308403D01*
X4931634Y-13060784D02*
X4950682Y-13060784D01*
X4950682Y-13060784D02*
X4969729Y-13070308D01*
X4969729Y-13070308D02*
X4979253Y-13079831D01*
X4979253Y-13079831D02*
X4988777Y-13098879D01*
X4988777Y-13098879D02*
X4998301Y-13136974D01*
X4998301Y-13136974D02*
X4998301Y-13184593D01*
X4998301Y-13184593D02*
X4988777Y-13222688D01*
X4988777Y-13222688D02*
X4979253Y-13241736D01*
X4979253Y-13241736D02*
X4969729Y-13251260D01*
X4969729Y-13251260D02*
X4950682Y-13260784D01*
X4950682Y-13260784D02*
X4931634Y-13260784D01*
X4931634Y-13260784D02*
X4912587Y-13251260D01*
X4912587Y-13251260D02*
X4903063Y-13241736D01*
X4903063Y-13241736D02*
X4893539Y-13222688D01*
X4893539Y-13222688D02*
X4884015Y-13184593D01*
X4884015Y-13184593D02*
X4884015Y-13136974D01*
X4884015Y-13136974D02*
X4893539Y-13098879D01*
X4893539Y-13098879D02*
X4903063Y-13079831D01*
X4903063Y-13079831D02*
X4912587Y-13070308D01*
X4912587Y-13070308D02*
X4931634Y-13060784D01*
X5084015Y-13241736D02*
X5093539Y-13251260D01*
X5093539Y-13251260D02*
X5084015Y-13260784D01*
X5084015Y-13260784D02*
X5074491Y-13251260D01*
X5074491Y-13251260D02*
X5084015Y-13241736D01*
X5084015Y-13241736D02*
X5084015Y-13260784D01*
X5284015Y-13260784D02*
X5169729Y-13260784D01*
X5226872Y-13260784D02*
X5226872Y-13060784D01*
X5226872Y-13060784D02*
X5207825Y-13089355D01*
X5207825Y-13089355D02*
X5188777Y-13108403D01*
X5188777Y-13108403D02*
X5169729Y-13117927D01*
X5360206Y-13079831D02*
X5369729Y-13070308D01*
X5369729Y-13070308D02*
X5388777Y-13060784D01*
X5388777Y-13060784D02*
X5436396Y-13060784D01*
X5436396Y-13060784D02*
X5455444Y-13070308D01*
X5455444Y-13070308D02*
X5464968Y-13079831D01*
X5464968Y-13079831D02*
X5474491Y-13098879D01*
X5474491Y-13098879D02*
X5474491Y-13117927D01*
X5474491Y-13117927D02*
X5464968Y-13146498D01*
X5464968Y-13146498D02*
X5350682Y-13260784D01*
X5350682Y-13260784D02*
X5474491Y-13260784D01*
X5645920Y-13060784D02*
X5607825Y-13060784D01*
X5607825Y-13060784D02*
X5588777Y-13070308D01*
X5588777Y-13070308D02*
X5579253Y-13079831D01*
X5579253Y-13079831D02*
X5560206Y-13108403D01*
X5560206Y-13108403D02*
X5550682Y-13146498D01*
X5550682Y-13146498D02*
X5550682Y-13222688D01*
X5550682Y-13222688D02*
X5560206Y-13241736D01*
X5560206Y-13241736D02*
X5569729Y-13251260D01*
X5569729Y-13251260D02*
X5588777Y-13260784D01*
X5588777Y-13260784D02*
X5626872Y-13260784D01*
X5626872Y-13260784D02*
X5645920Y-13251260D01*
X5645920Y-13251260D02*
X5655444Y-13241736D01*
X5655444Y-13241736D02*
X5664967Y-13222688D01*
X5664967Y-13222688D02*
X5664967Y-13175069D01*
X5664967Y-13175069D02*
X5655444Y-13156022D01*
X5655444Y-13156022D02*
X5645920Y-13146498D01*
X5645920Y-13146498D02*
X5626872Y-13136974D01*
X5626872Y-13136974D02*
X5588777Y-13136974D01*
X5588777Y-13136974D02*
X5569729Y-13146498D01*
X5569729Y-13146498D02*
X5560206Y-13156022D01*
X5560206Y-13156022D02*
X5550682Y-13175069D01*
X5788777Y-13060784D02*
X5807825Y-13060784D01*
X5807825Y-13060784D02*
X5826872Y-13070308D01*
X5826872Y-13070308D02*
X5836396Y-13079831D01*
X5836396Y-13079831D02*
X5845920Y-13098879D01*
X5845920Y-13098879D02*
X5855444Y-13136974D01*
X5855444Y-13136974D02*
X5855444Y-13184593D01*
X5855444Y-13184593D02*
X5845920Y-13222688D01*
X5845920Y-13222688D02*
X5836396Y-13241736D01*
X5836396Y-13241736D02*
X5826872Y-13251260D01*
X5826872Y-13251260D02*
X5807825Y-13260784D01*
X5807825Y-13260784D02*
X5788777Y-13260784D01*
X5788777Y-13260784D02*
X5769729Y-13251260D01*
X5769729Y-13251260D02*
X5760206Y-13241736D01*
X5760206Y-13241736D02*
X5750682Y-13222688D01*
X5750682Y-13222688D02*
X5741158Y-13184593D01*
X5741158Y-13184593D02*
X5741158Y-13136974D01*
X5741158Y-13136974D02*
X5750682Y-13098879D01*
X5750682Y-13098879D02*
X5760206Y-13079831D01*
X5760206Y-13079831D02*
X5769729Y-13070308D01*
X5769729Y-13070308D02*
X5788777Y-13060784D01*
X5931634Y-13060784D02*
X5931634Y-13098879D01*
X6007825Y-13060784D02*
X6007825Y-13098879D01*
X6303063Y-13336974D02*
X6293539Y-13327450D01*
X6293539Y-13327450D02*
X6274491Y-13298879D01*
X6274491Y-13298879D02*
X6264968Y-13279831D01*
X6264968Y-13279831D02*
X6255444Y-13251260D01*
X6255444Y-13251260D02*
X6245920Y-13203641D01*
X6245920Y-13203641D02*
X6245920Y-13165546D01*
X6245920Y-13165546D02*
X6255444Y-13117927D01*
X6255444Y-13117927D02*
X6264968Y-13089355D01*
X6264968Y-13089355D02*
X6274491Y-13070308D01*
X6274491Y-13070308D02*
X6293539Y-13041736D01*
X6293539Y-13041736D02*
X6303063Y-13032212D01*
X6464968Y-13127450D02*
X6464968Y-13260784D01*
X6417348Y-13051260D02*
X6369729Y-13194117D01*
X6369729Y-13194117D02*
X6493539Y-13194117D01*
X6722110Y-13260784D02*
X6722110Y-13060784D01*
X6807825Y-13260784D02*
X6807825Y-13156022D01*
X6807825Y-13156022D02*
X6798301Y-13136974D01*
X6798301Y-13136974D02*
X6779253Y-13127450D01*
X6779253Y-13127450D02*
X6750682Y-13127450D01*
X6750682Y-13127450D02*
X6731634Y-13136974D01*
X6731634Y-13136974D02*
X6722110Y-13146498D01*
X6931634Y-13260784D02*
X6912587Y-13251260D01*
X6912587Y-13251260D02*
X6903063Y-13241736D01*
X6903063Y-13241736D02*
X6893539Y-13222688D01*
X6893539Y-13222688D02*
X6893539Y-13165546D01*
X6893539Y-13165546D02*
X6903063Y-13146498D01*
X6903063Y-13146498D02*
X6912587Y-13136974D01*
X6912587Y-13136974D02*
X6931634Y-13127450D01*
X6931634Y-13127450D02*
X6960206Y-13127450D01*
X6960206Y-13127450D02*
X6979253Y-13136974D01*
X6979253Y-13136974D02*
X6988777Y-13146498D01*
X6988777Y-13146498D02*
X6998301Y-13165546D01*
X6998301Y-13165546D02*
X6998301Y-13222688D01*
X6998301Y-13222688D02*
X6988777Y-13241736D01*
X6988777Y-13241736D02*
X6979253Y-13251260D01*
X6979253Y-13251260D02*
X6960206Y-13260784D01*
X6960206Y-13260784D02*
X6931634Y-13260784D01*
X7112587Y-13260784D02*
X7093539Y-13251260D01*
X7093539Y-13251260D02*
X7084015Y-13232212D01*
X7084015Y-13232212D02*
X7084015Y-13060784D01*
X7264968Y-13251260D02*
X7245920Y-13260784D01*
X7245920Y-13260784D02*
X7207825Y-13260784D01*
X7207825Y-13260784D02*
X7188777Y-13251260D01*
X7188777Y-13251260D02*
X7179253Y-13232212D01*
X7179253Y-13232212D02*
X7179253Y-13156022D01*
X7179253Y-13156022D02*
X7188777Y-13136974D01*
X7188777Y-13136974D02*
X7207825Y-13127450D01*
X7207825Y-13127450D02*
X7245920Y-13127450D01*
X7245920Y-13127450D02*
X7264968Y-13136974D01*
X7264968Y-13136974D02*
X7274491Y-13156022D01*
X7274491Y-13156022D02*
X7274491Y-13175069D01*
X7274491Y-13175069D02*
X7179253Y-13194117D01*
X7350682Y-13251260D02*
X7369730Y-13260784D01*
X7369730Y-13260784D02*
X7407825Y-13260784D01*
X7407825Y-13260784D02*
X7426872Y-13251260D01*
X7426872Y-13251260D02*
X7436396Y-13232212D01*
X7436396Y-13232212D02*
X7436396Y-13222688D01*
X7436396Y-13222688D02*
X7426872Y-13203641D01*
X7426872Y-13203641D02*
X7407825Y-13194117D01*
X7407825Y-13194117D02*
X7379253Y-13194117D01*
X7379253Y-13194117D02*
X7360206Y-13184593D01*
X7360206Y-13184593D02*
X7350682Y-13165546D01*
X7350682Y-13165546D02*
X7350682Y-13156022D01*
X7350682Y-13156022D02*
X7360206Y-13136974D01*
X7360206Y-13136974D02*
X7379253Y-13127450D01*
X7379253Y-13127450D02*
X7407825Y-13127450D01*
X7407825Y-13127450D02*
X7426872Y-13136974D01*
X7503063Y-13336974D02*
X7512587Y-13327450D01*
X7512587Y-13327450D02*
X7531634Y-13298879D01*
X7531634Y-13298879D02*
X7541158Y-13279831D01*
X7541158Y-13279831D02*
X7550682Y-13251260D01*
X7550682Y-13251260D02*
X7560206Y-13203641D01*
X7560206Y-13203641D02*
X7560206Y-13165546D01*
X7560206Y-13165546D02*
X7550682Y-13117927D01*
X7550682Y-13117927D02*
X7541158Y-13089355D01*
X7541158Y-13089355D02*
X7531634Y-13070308D01*
X7531634Y-13070308D02*
X7512587Y-13041736D01*
X7512587Y-13041736D02*
X7503063Y-13032212D01*
M02*
