%TF.GenerationSoftware,KiCad,Pcbnew,8.0.3*%
%TF.CreationDate,2024-06-20T11:56:58+02:00*%
%TF.ProjectId,Mux Brd V1,4d757820-4272-4642-9056-312e6b696361,rev?*%
%TF.SameCoordinates,Original*%
%TF.FileFunction,Soldermask,Bot*%
%TF.FilePolarity,Negative*%
%FSLAX46Y46*%
G04 Gerber Fmt 4.6, Leading zero omitted, Abs format (unit mm)*
G04 Created by KiCad (PCBNEW 8.0.3) date 2024-06-20 11:56:58*
%MOMM*%
%LPD*%
G01*
G04 APERTURE LIST*
G04 Aperture macros list*
%AMRoundRect*
0 Rectangle with rounded corners*
0 $1 Rounding radius*
0 $2 $3 $4 $5 $6 $7 $8 $9 X,Y pos of 4 corners*
0 Add a 4 corners polygon primitive as box body*
4,1,4,$2,$3,$4,$5,$6,$7,$8,$9,$2,$3,0*
0 Add four circle primitives for the rounded corners*
1,1,$1+$1,$2,$3*
1,1,$1+$1,$4,$5*
1,1,$1+$1,$6,$7*
1,1,$1+$1,$8,$9*
0 Add four rect primitives between the rounded corners*
20,1,$1+$1,$2,$3,$4,$5,0*
20,1,$1+$1,$4,$5,$6,$7,0*
20,1,$1+$1,$6,$7,$8,$9,0*
20,1,$1+$1,$8,$9,$2,$3,0*%
G04 Aperture macros list end*
%ADD10R,1.600000X2.400000*%
%ADD11O,1.600000X2.400000*%
%ADD12C,3.200000*%
%ADD13RoundRect,0.250000X-0.600000X0.600000X-0.600000X-0.600000X0.600000X-0.600000X0.600000X0.600000X0*%
%ADD14C,1.700000*%
%ADD15RoundRect,0.102000X-1.750000X-0.750000X1.750000X-0.750000X1.750000X0.750000X-1.750000X0.750000X0*%
%ADD16RoundRect,0.102000X0.750000X-1.750000X0.750000X1.750000X-0.750000X1.750000X-0.750000X-1.750000X0*%
G04 APERTURE END LIST*
D10*
%TO.C,U1*%
X46990000Y-90170000D03*
D11*
X49530000Y-90170000D03*
X52070000Y-90170000D03*
X54610000Y-90170000D03*
X57150000Y-90170000D03*
X59690000Y-90170000D03*
X62230000Y-90170000D03*
X64770000Y-90170000D03*
X64770000Y-82550000D03*
X62230000Y-82550000D03*
X59690000Y-82550000D03*
X57150000Y-82550000D03*
X54610000Y-82550000D03*
X52070000Y-82550000D03*
X49530000Y-82550000D03*
X46990000Y-82550000D03*
%TD*%
D12*
%TO.C,H1*%
X30480000Y-31623000D03*
%TD*%
%TO.C,H2*%
X113030000Y-31623000D03*
%TD*%
%TO.C,H3*%
X113030000Y-114173000D03*
%TD*%
%TO.C,H4*%
X30480000Y-114173000D03*
%TD*%
D13*
%TO.C,J-RP-Ext1-1*%
X72390000Y-36804600D03*
D14*
X72390000Y-39344600D03*
X69850000Y-36804600D03*
X69850000Y-39344600D03*
X67310000Y-36804600D03*
X67310000Y-39344600D03*
X64770000Y-36804600D03*
X64770000Y-39344600D03*
X62230000Y-36804600D03*
X62230000Y-39344600D03*
X59690000Y-36804600D03*
X59690000Y-39344600D03*
X57150000Y-36804600D03*
X57150000Y-39344600D03*
X54610000Y-36804600D03*
X54610000Y-39344600D03*
X52070000Y-36804600D03*
X52070000Y-39344600D03*
X49530000Y-36804600D03*
X49530000Y-39344600D03*
X46990000Y-36804600D03*
X46990000Y-39344600D03*
X44450000Y-36804600D03*
X44450000Y-39344600D03*
X41910000Y-36804600D03*
X41910000Y-39344600D03*
%TD*%
D13*
%TO.C,J-RP-Ext1-2*%
X72440800Y-51587400D03*
D14*
X72440800Y-54127400D03*
X69900800Y-51587400D03*
X69900800Y-54127400D03*
X67360800Y-51587400D03*
X67360800Y-54127400D03*
X64820800Y-51587400D03*
X64820800Y-54127400D03*
X62280800Y-51587400D03*
X62280800Y-54127400D03*
X59740800Y-51587400D03*
X59740800Y-54127400D03*
X57200800Y-51587400D03*
X57200800Y-54127400D03*
X54660800Y-51587400D03*
X54660800Y-54127400D03*
X52120800Y-51587400D03*
X52120800Y-54127400D03*
X49580800Y-51587400D03*
X49580800Y-54127400D03*
X47040800Y-51587400D03*
X47040800Y-54127400D03*
X44500800Y-51587400D03*
X44500800Y-54127400D03*
X41960800Y-51587400D03*
X41960800Y-54127400D03*
%TD*%
D15*
%TO.C,RP-Out-1*%
X28702000Y-86200000D03*
X28702000Y-91600000D03*
%TD*%
D16*
%TO.C,SiPM-In-1*%
X35400000Y-115824000D03*
X40800000Y-115824000D03*
%TD*%
%TO.C,SiPM-In-2*%
X45560000Y-115824000D03*
X50960000Y-115824000D03*
%TD*%
%TO.C,SiPM-In-3*%
X55720000Y-115824000D03*
X61120000Y-115824000D03*
%TD*%
%TO.C,SiPM-In-4*%
X65880000Y-115824000D03*
X71280000Y-115824000D03*
%TD*%
%TO.C,SiPM-In-5*%
X76040000Y-115824000D03*
X81440000Y-115824000D03*
%TD*%
%TO.C,SiPM-In-6*%
X86200000Y-115824000D03*
X91600000Y-115824000D03*
%TD*%
M02*
