%TF.GenerationSoftware,KiCad,Pcbnew,8.0.3*%
%TF.CreationDate,2024-06-20T11:56:58+02:00*%
%TF.ProjectId,Mux Brd V1,4d757820-4272-4642-9056-312e6b696361,rev?*%
%TF.SameCoordinates,Original*%
%TF.FileFunction,Copper,L2,Bot*%
%TF.FilePolarity,Positive*%
%FSLAX46Y46*%
G04 Gerber Fmt 4.6, Leading zero omitted, Abs format (unit mm)*
G04 Created by KiCad (PCBNEW 8.0.3) date 2024-06-20 11:56:58*
%MOMM*%
%LPD*%
G01*
G04 APERTURE LIST*
G04 Aperture macros list*
%AMRoundRect*
0 Rectangle with rounded corners*
0 $1 Rounding radius*
0 $2 $3 $4 $5 $6 $7 $8 $9 X,Y pos of 4 corners*
0 Add a 4 corners polygon primitive as box body*
4,1,4,$2,$3,$4,$5,$6,$7,$8,$9,$2,$3,0*
0 Add four circle primitives for the rounded corners*
1,1,$1+$1,$2,$3*
1,1,$1+$1,$4,$5*
1,1,$1+$1,$6,$7*
1,1,$1+$1,$8,$9*
0 Add four rect primitives between the rounded corners*
20,1,$1+$1,$2,$3,$4,$5,0*
20,1,$1+$1,$4,$5,$6,$7,0*
20,1,$1+$1,$6,$7,$8,$9,0*
20,1,$1+$1,$8,$9,$2,$3,0*%
G04 Aperture macros list end*
%TA.AperFunction,ComponentPad*%
%ADD10R,1.600000X2.400000*%
%TD*%
%TA.AperFunction,ComponentPad*%
%ADD11O,1.600000X2.400000*%
%TD*%
%TA.AperFunction,ComponentPad*%
%ADD12C,3.200000*%
%TD*%
%TA.AperFunction,ComponentPad*%
%ADD13RoundRect,0.250000X-0.600000X0.600000X-0.600000X-0.600000X0.600000X-0.600000X0.600000X0.600000X0*%
%TD*%
%TA.AperFunction,ComponentPad*%
%ADD14C,1.700000*%
%TD*%
%TA.AperFunction,SMDPad,CuDef*%
%ADD15R,3.500000X1.500000*%
%TD*%
%TA.AperFunction,SMDPad,CuDef*%
%ADD16R,1.500000X3.500000*%
%TD*%
%TA.AperFunction,ViaPad*%
%ADD17C,0.800000*%
%TD*%
%TA.AperFunction,Conductor*%
%ADD18C,0.250000*%
%TD*%
%TA.AperFunction,Conductor*%
%ADD19C,0.440000*%
%TD*%
G04 APERTURE END LIST*
D10*
%TO.P,U1,1*%
%TO.N,Net-(R5-Pad1)*%
X46990000Y-90170000D03*
D11*
%TO.P,U1,2*%
%TO.N,N/C*%
X49530000Y-90170000D03*
%TO.P,U1,3*%
%TO.N,Net-(RP-Out-1-Pad1)*%
X52070000Y-90170000D03*
%TO.P,U1,4*%
%TO.N,N/C*%
X54610000Y-90170000D03*
%TO.P,U1,5*%
%TO.N,Net-(R6-Pad1)*%
X57150000Y-90170000D03*
%TO.P,U1,6*%
%TO.N,GND*%
X59690000Y-90170000D03*
%TO.P,U1,7*%
X62230000Y-90170000D03*
%TO.P,U1,8*%
X64770000Y-90170000D03*
%TO.P,U1,9*%
%TO.N,MUX_S2-RP*%
X64770000Y-82550000D03*
%TO.P,U1,10*%
%TO.N,MUX_S1-RP*%
X62230000Y-82550000D03*
%TO.P,U1,11*%
%TO.N,MUX_S0-RP*%
X59690000Y-82550000D03*
%TO.P,U1,12*%
%TO.N,Net-(R4-Pad1)*%
X57150000Y-82550000D03*
%TO.P,U1,13*%
%TO.N,Net-(R1-Pad1)*%
X54610000Y-82550000D03*
%TO.P,U1,14*%
%TO.N,Net-(R2-Pad1)*%
X52070000Y-82550000D03*
%TO.P,U1,15*%
%TO.N,Net-(R3-Pad1)*%
X49530000Y-82550000D03*
%TO.P,U1,16*%
%TO.N,+3V3*%
X46990000Y-82550000D03*
%TD*%
D12*
%TO.P,H1,1*%
%TO.N,N/C*%
X30480000Y-31623000D03*
%TD*%
%TO.P,H2,1*%
%TO.N,N/C*%
X113030000Y-31623000D03*
%TD*%
%TO.P,H3,1*%
%TO.N,N/C*%
X113030000Y-114173000D03*
%TD*%
%TO.P,H4,1*%
%TO.N,N/C*%
X30480000Y-114173000D03*
%TD*%
D13*
%TO.P,J-RP-Ext1-1,1*%
%TO.N,3.3V-RP*%
X72390000Y-36804600D03*
D14*
%TO.P,J-RP-Ext1-1,2*%
X72390000Y-39344600D03*
%TO.P,J-RP-Ext1-1,3*%
%TO.N,/RP_EXT1_3*%
X69850000Y-36804600D03*
%TO.P,J-RP-Ext1-1,4*%
%TO.N,MUX_S0-RP*%
X69850000Y-39344600D03*
%TO.P,J-RP-Ext1-1,5*%
%TO.N,MUX_S1-RP*%
X67310000Y-36804600D03*
%TO.P,J-RP-Ext1-1,6*%
%TO.N,MUX_S2-RP*%
X67310000Y-39344600D03*
%TO.P,J-RP-Ext1-1,7*%
%TO.N,/RP_EXT1_7*%
X64770000Y-36804600D03*
%TO.P,J-RP-Ext1-1,8*%
%TO.N,/RP_EXT1_8*%
X64770000Y-39344600D03*
%TO.P,J-RP-Ext1-1,9*%
%TO.N,/RP_EXT1_9*%
X62230000Y-36804600D03*
%TO.P,J-RP-Ext1-1,10*%
%TO.N,/RP_EXT1_10*%
X62230000Y-39344600D03*
%TO.P,J-RP-Ext1-1,11*%
%TO.N,/RP_EXT1_11*%
X59690000Y-36804600D03*
%TO.P,J-RP-Ext1-1,12*%
%TO.N,/RP_EXT1_12*%
X59690000Y-39344600D03*
%TO.P,J-RP-Ext1-1,13*%
%TO.N,/RP_EXT1_13*%
X57150000Y-36804600D03*
%TO.P,J-RP-Ext1-1,14*%
%TO.N,/RP_EXT1_14*%
X57150000Y-39344600D03*
%TO.P,J-RP-Ext1-1,15*%
%TO.N,/RP_EXT1_15*%
X54610000Y-36804600D03*
%TO.P,J-RP-Ext1-1,16*%
%TO.N,/RP_EXT1_16*%
X54610000Y-39344600D03*
%TO.P,J-RP-Ext1-1,17*%
%TO.N,/RP_EXT1_17*%
X52070000Y-36804600D03*
%TO.P,J-RP-Ext1-1,18*%
%TO.N,/RP_EXT1_18*%
X52070000Y-39344600D03*
%TO.P,J-RP-Ext1-1,19*%
%TO.N,/RP_EXT1_19*%
X49530000Y-36804600D03*
%TO.P,J-RP-Ext1-1,20*%
%TO.N,/RP_EXT1_20*%
X49530000Y-39344600D03*
%TO.P,J-RP-Ext1-1,21*%
%TO.N,/RP_EXT1_21*%
X46990000Y-36804600D03*
%TO.P,J-RP-Ext1-1,22*%
%TO.N,/RP_EXT1_22*%
X46990000Y-39344600D03*
%TO.P,J-RP-Ext1-1,23*%
%TO.N,/RP_EXT1_23*%
X44450000Y-36804600D03*
%TO.P,J-RP-Ext1-1,24*%
%TO.N,/RP_EXT1_24*%
X44450000Y-39344600D03*
%TO.P,J-RP-Ext1-1,25*%
%TO.N,GND*%
X41910000Y-36804600D03*
%TO.P,J-RP-Ext1-1,26*%
X41910000Y-39344600D03*
%TD*%
D13*
%TO.P,J-RP-Ext1-2,1*%
%TO.N,3.3V-RP*%
X72440800Y-51587400D03*
D14*
%TO.P,J-RP-Ext1-2,2*%
X72440800Y-54127400D03*
%TO.P,J-RP-Ext1-2,3*%
%TO.N,/RP_EXT1_3*%
X69900800Y-51587400D03*
%TO.P,J-RP-Ext1-2,4*%
%TO.N,MUX_S0-RP*%
X69900800Y-54127400D03*
%TO.P,J-RP-Ext1-2,5*%
%TO.N,MUX_S1-RP*%
X67360800Y-51587400D03*
%TO.P,J-RP-Ext1-2,6*%
%TO.N,MUX_S2-RP*%
X67360800Y-54127400D03*
%TO.P,J-RP-Ext1-2,7*%
%TO.N,/RP_EXT1_7*%
X64820800Y-51587400D03*
%TO.P,J-RP-Ext1-2,8*%
%TO.N,/RP_EXT1_8*%
X64820800Y-54127400D03*
%TO.P,J-RP-Ext1-2,9*%
%TO.N,/RP_EXT1_9*%
X62280800Y-51587400D03*
%TO.P,J-RP-Ext1-2,10*%
%TO.N,/RP_EXT1_10*%
X62280800Y-54127400D03*
%TO.P,J-RP-Ext1-2,11*%
%TO.N,/RP_EXT1_11*%
X59740800Y-51587400D03*
%TO.P,J-RP-Ext1-2,12*%
%TO.N,/RP_EXT1_12*%
X59740800Y-54127400D03*
%TO.P,J-RP-Ext1-2,13*%
%TO.N,/RP_EXT1_13*%
X57200800Y-51587400D03*
%TO.P,J-RP-Ext1-2,14*%
%TO.N,/RP_EXT1_14*%
X57200800Y-54127400D03*
%TO.P,J-RP-Ext1-2,15*%
%TO.N,/RP_EXT1_15*%
X54660800Y-51587400D03*
%TO.P,J-RP-Ext1-2,16*%
%TO.N,/RP_EXT1_16*%
X54660800Y-54127400D03*
%TO.P,J-RP-Ext1-2,17*%
%TO.N,/RP_EXT1_17*%
X52120800Y-51587400D03*
%TO.P,J-RP-Ext1-2,18*%
%TO.N,/RP_EXT1_18*%
X52120800Y-54127400D03*
%TO.P,J-RP-Ext1-2,19*%
%TO.N,/RP_EXT1_19*%
X49580800Y-51587400D03*
%TO.P,J-RP-Ext1-2,20*%
%TO.N,/RP_EXT1_20*%
X49580800Y-54127400D03*
%TO.P,J-RP-Ext1-2,21*%
%TO.N,/RP_EXT1_21*%
X47040800Y-51587400D03*
%TO.P,J-RP-Ext1-2,22*%
%TO.N,/RP_EXT1_22*%
X47040800Y-54127400D03*
%TO.P,J-RP-Ext1-2,23*%
%TO.N,/RP_EXT1_23*%
X44500800Y-51587400D03*
%TO.P,J-RP-Ext1-2,24*%
%TO.N,/RP_EXT1_24*%
X44500800Y-54127400D03*
%TO.P,J-RP-Ext1-2,25*%
%TO.N,GND*%
X41960800Y-51587400D03*
%TO.P,J-RP-Ext1-2,26*%
X41960800Y-54127400D03*
%TD*%
D15*
%TO.P,RP-Out-1,2*%
%TO.N,GND*%
X28702000Y-86200000D03*
X28702000Y-91600000D03*
%TD*%
D16*
%TO.P,SiPM-In-1,2*%
%TO.N,GND*%
X35400000Y-115824000D03*
X40800000Y-115824000D03*
%TD*%
%TO.P,SiPM-In-2,2*%
%TO.N,GND*%
X45560000Y-115824000D03*
X50960000Y-115824000D03*
%TD*%
%TO.P,SiPM-In-3,2*%
%TO.N,GND*%
X55720000Y-115824000D03*
X61120000Y-115824000D03*
%TD*%
%TO.P,SiPM-In-4,2*%
%TO.N,GND*%
X65880000Y-115824000D03*
X71280000Y-115824000D03*
%TD*%
%TO.P,SiPM-In-5,2*%
%TO.N,GND*%
X76040000Y-115824000D03*
X81440000Y-115824000D03*
%TD*%
%TO.P,SiPM-In-6,2*%
%TO.N,GND*%
X86200000Y-115824000D03*
X91600000Y-115824000D03*
%TD*%
D17*
%TO.N,+3V3*%
X37846000Y-73152000D03*
X44958000Y-77724000D03*
%TO.N,GND*%
X43180000Y-81915000D03*
X59245500Y-74168000D03*
X53975000Y-93980000D03*
X40640000Y-112395000D03*
X45720000Y-112395000D03*
X50800000Y-112395000D03*
X55880000Y-112395000D03*
X60960000Y-112395000D03*
X66040000Y-112395000D03*
X71120000Y-112395000D03*
X76200000Y-112395000D03*
X81280000Y-112395000D03*
X86360000Y-112395000D03*
X91440000Y-112395000D03*
X31750000Y-91440000D03*
X32575500Y-86169500D03*
X37846000Y-101282500D03*
X77851000Y-109220000D03*
X114935000Y-34163000D03*
X70929500Y-85915500D03*
X86995000Y-96329500D03*
X43180000Y-115316000D03*
X64516000Y-96075500D03*
X37846000Y-82677000D03*
X72961500Y-88074500D03*
X68707000Y-87439500D03*
X58610500Y-70675500D03*
X82296000Y-81089500D03*
X31813500Y-89979500D03*
X87985600Y-78689200D03*
X68834000Y-94996000D03*
X58420000Y-84836000D03*
X44958000Y-81534000D03*
X36004500Y-84328000D03*
X52768500Y-98234500D03*
X49149000Y-106045000D03*
X75755500Y-101536500D03*
X56007000Y-86423500D03*
X79883000Y-52832000D03*
X49047400Y-72110600D03*
X73533000Y-98234500D03*
X46990000Y-57023000D03*
X70104000Y-49784000D03*
X70104000Y-41402000D03*
X52768500Y-86741000D03*
X69596000Y-104775000D03*
X42672000Y-99631500D03*
X42799000Y-71374000D03*
X67310000Y-100965000D03*
X77851000Y-99060000D03*
X53594000Y-76517500D03*
X40513000Y-97409000D03*
X41148000Y-76987400D03*
X50673000Y-84645500D03*
X114935000Y-72898000D03*
X53086000Y-71183500D03*
X76454000Y-94996000D03*
X66230500Y-80264000D03*
X87693500Y-110426500D03*
X35750500Y-107823000D03*
X66878200Y-41097200D03*
X47942500Y-85090000D03*
X40005000Y-91440000D03*
X70167500Y-102235000D03*
X41910000Y-43724999D03*
X32639000Y-83820000D03*
X36830000Y-109347000D03*
X54038500Y-96012000D03*
X86296500Y-98615500D03*
X72834500Y-81153000D03*
X50038000Y-100584000D03*
X63119000Y-87439500D03*
X53149500Y-78613000D03*
X35750500Y-105410000D03*
X37909500Y-95186500D03*
X78676500Y-111442500D03*
X67500500Y-108585000D03*
X66675000Y-57023000D03*
X49276000Y-110998000D03*
X37719000Y-74930000D03*
X34734500Y-80899000D03*
X56896000Y-80073500D03*
X66611500Y-92329000D03*
X48133000Y-69786500D03*
X38163500Y-98361500D03*
X85090000Y-59563000D03*
X50546000Y-68961000D03*
X60325000Y-87376000D03*
X42227500Y-78613000D03*
X49276000Y-108712000D03*
X47307500Y-104203500D03*
X41579800Y-73964800D03*
X57658000Y-108267500D03*
X66167000Y-87439500D03*
X59563000Y-110172500D03*
X75755500Y-104711500D03*
X52959000Y-106489500D03*
X115011200Y-110845600D03*
X53086000Y-68961000D03*
X59118500Y-72390000D03*
X42989500Y-75247500D03*
X75628500Y-92964000D03*
X68580000Y-83312000D03*
X54991000Y-108521500D03*
X37846000Y-106616500D03*
X47320200Y-73329800D03*
X56832500Y-72072500D03*
X33655000Y-78994000D03*
X57340500Y-110934500D03*
X57785000Y-57023000D03*
X45720000Y-71374000D03*
X75755500Y-98996500D03*
X35560000Y-112395010D03*
X59118500Y-96075500D03*
X49720500Y-86423500D03*
X43307000Y-87312500D03*
X44450000Y-79756000D03*
X42164000Y-102044500D03*
X34671000Y-83566000D03*
X63563500Y-92329000D03*
X87820500Y-101727000D03*
X53276500Y-80962500D03*
X79438500Y-95123000D03*
X58166000Y-78613000D03*
X33845500Y-88900000D03*
X36195000Y-36703000D03*
X46101000Y-75247500D03*
X36004500Y-87122000D03*
X40005000Y-87503000D03*
X68770500Y-92710000D03*
X59690000Y-92329000D03*
X50800000Y-81153000D03*
X67246500Y-85280500D03*
X37846000Y-103822500D03*
X59626500Y-98234500D03*
X50673000Y-104203500D03*
X39052500Y-108648500D03*
X68580000Y-99695000D03*
X44894500Y-101981000D03*
X67500500Y-110490000D03*
X59182000Y-80645000D03*
X87820500Y-107442000D03*
X48323500Y-81026000D03*
X42926000Y-96583500D03*
X40322500Y-80518000D03*
X40005000Y-84137500D03*
X35750500Y-94488000D03*
X66738500Y-98234500D03*
X63436500Y-98234500D03*
X72961500Y-94996000D03*
X46355000Y-96837500D03*
X72136000Y-41402000D03*
X56070500Y-98234500D03*
X44767500Y-94869000D03*
X69977000Y-98234500D03*
X44831000Y-89154000D03*
X74549000Y-42062400D03*
X70675500Y-96075500D03*
X55118000Y-71247000D03*
X90170000Y-70535800D03*
X37084000Y-111569500D03*
X54737000Y-84709000D03*
X84455000Y-50673000D03*
X82550000Y-95059500D03*
X50165000Y-77470000D03*
X28575000Y-34163000D03*
X89979500Y-104521000D03*
X55626000Y-68897500D03*
X44831000Y-92329000D03*
X70421500Y-92964000D03*
X56451500Y-96012000D03*
X74701400Y-46888400D03*
X90170000Y-62738000D03*
X54038500Y-104648000D03*
X35750500Y-102362000D03*
X63436500Y-84201000D03*
X60134500Y-94361000D03*
X39243000Y-78803500D03*
X57785000Y-87439500D03*
X72136000Y-49276000D03*
X40513000Y-100393500D03*
X46863000Y-100393500D03*
X37909500Y-84772500D03*
X44297600Y-73355200D03*
X46926500Y-106743500D03*
X77851000Y-101600000D03*
X93980000Y-115570000D03*
X69151500Y-76517500D03*
X63246000Y-94361000D03*
X75755500Y-107886500D03*
X43688000Y-103568500D03*
X47371000Y-77279500D03*
X39179500Y-111442500D03*
X68580000Y-32258000D03*
X51435000Y-95885000D03*
X60960000Y-79565500D03*
X46037500Y-93789500D03*
X35750500Y-98552000D03*
X77279500Y-96647000D03*
X46990000Y-32258000D03*
X35814000Y-81661000D03*
X42799000Y-93472000D03*
X34671000Y-86169500D03*
X40005000Y-94488000D03*
X48133000Y-98742500D03*
X89281000Y-98488500D03*
X50673000Y-88138000D03*
X85369400Y-71424800D03*
X67500500Y-96075500D03*
X45212000Y-105092500D03*
X63500000Y-115570000D03*
X32639000Y-81280000D03*
X79375000Y-44323000D03*
X67500500Y-106045000D03*
X63500000Y-78422500D03*
X66421000Y-94361000D03*
X39827200Y-75692000D03*
X54927500Y-73596500D03*
X74041000Y-96075500D03*
X57785000Y-32258000D03*
X70421500Y-94996000D03*
X85280500Y-94488000D03*
X73596500Y-92964000D03*
X83883500Y-93154500D03*
X84264500Y-96583500D03*
X89979500Y-107569000D03*
X47752000Y-95567500D03*
X83820000Y-115570000D03*
X28448000Y-111150400D03*
X36639500Y-78676500D03*
X61595000Y-96075500D03*
X70612000Y-90932000D03*
X87820500Y-104267000D03*
X28575000Y-72898000D03*
X82613500Y-76454000D03*
X51943000Y-102552500D03*
X46990000Y-87376000D03*
X54483000Y-87947500D03*
X49466500Y-97282000D03*
X53340000Y-115570000D03*
X37846000Y-80518000D03*
X38163500Y-77279500D03*
X77851000Y-104140000D03*
X89916000Y-110490000D03*
X72961500Y-90360500D03*
X89979500Y-101473000D03*
X37909500Y-87376000D03*
X42799000Y-90551000D03*
X63119000Y-76454000D03*
X39624000Y-73025000D03*
X73660000Y-115570000D03*
X69596000Y-110490000D03*
X50673000Y-71247000D03*
X68516500Y-81280000D03*
X57340500Y-69405500D03*
X37909500Y-91630500D03*
X52070000Y-76009500D03*
X75755500Y-110426500D03*
X44831000Y-98361500D03*
X70612000Y-88900000D03*
X35750500Y-90678000D03*
X68961000Y-85217000D03*
X35687000Y-76962000D03*
X69596000Y-107950000D03*
X48514000Y-92456000D03*
X49657000Y-75082400D03*
X77851000Y-106680000D03*
X78168500Y-92964000D03*
X33020000Y-115570000D03*
X63500000Y-80899000D03*
X47244000Y-110045500D03*
X75819000Y-76517500D03*
X67500500Y-103505000D03*
X48641000Y-102171500D03*
X71691500Y-100584000D03*
X55753000Y-106362500D03*
X80962500Y-92964000D03*
%TO.N,Net-(R4-Pad1)*%
X71755000Y-99060000D03*
X71755000Y-92075000D03*
%TD*%
D18*
%TO.N,3.3V-RP*%
X72390000Y-51435000D02*
X72390000Y-50698400D01*
X73115001Y-40095001D02*
X72390000Y-39370000D01*
X73115001Y-49973399D02*
X73115001Y-40095001D01*
X72390000Y-50698400D02*
X73115001Y-49973399D01*
X72390000Y-53975000D02*
X72390000Y-51435000D01*
X72390000Y-39370000D02*
X72390000Y-36830000D01*
%TO.N,+3V3*%
X38862000Y-74168000D02*
X37846000Y-73152000D01*
X44958000Y-77724000D02*
X43688000Y-77724000D01*
X43688000Y-77724000D02*
X40132000Y-74168000D01*
X40132000Y-74168000D02*
X38862000Y-74168000D01*
%TO.N,MUX_S0-RP*%
X71120000Y-52705000D02*
X69850000Y-53975000D01*
X69850000Y-39370000D02*
X71120000Y-40640000D01*
X71120000Y-40640000D02*
X71120000Y-52705000D01*
%TO.N,MUX_S1-RP*%
X66040000Y-38100000D02*
X67310000Y-36830000D01*
X67310000Y-36830000D02*
X66802000Y-37338000D01*
X66065400Y-41681400D02*
X66040000Y-38100000D01*
X67310000Y-51435000D02*
X67310000Y-42773600D01*
X67310000Y-42773600D02*
X66065400Y-41681400D01*
%TO.N,MUX_S2-RP*%
X67310000Y-40208200D02*
X67310000Y-39370000D01*
X68580000Y-52705000D02*
X68605400Y-41249600D01*
X67310000Y-53975000D02*
X68580000Y-52705000D01*
X68605400Y-41249600D02*
X67310000Y-40208200D01*
%TO.N,/RP_EXT1_3*%
X69850000Y-36830000D02*
X68580000Y-38100000D01*
X69124999Y-50709999D02*
X69850000Y-51435000D01*
X69124999Y-40640000D02*
X69124999Y-50709999D01*
X68580000Y-40132000D02*
X69088000Y-40640000D01*
X68580000Y-38100000D02*
X68580000Y-40132000D01*
%TO.N,/RP_EXT1_24*%
X45814999Y-50640999D02*
X45814999Y-52610001D01*
X44450000Y-49276000D02*
X45814999Y-50640999D01*
X45814999Y-52610001D02*
X44450000Y-53975000D01*
X44450000Y-39370000D02*
X44450000Y-49276000D01*
%TO.N,/RP_EXT1_22*%
X48260000Y-52705000D02*
X46990000Y-53975000D01*
X46990000Y-39370000D02*
X46990000Y-48006000D01*
X48260000Y-49276000D02*
X48260000Y-52705000D01*
X46990000Y-48006000D02*
X48260000Y-49276000D01*
%TO.N,/RP_EXT1_20*%
X50800000Y-48260000D02*
X49530000Y-46990000D01*
X50800000Y-52578000D02*
X50800000Y-48260000D01*
X49530000Y-53975000D02*
X49530000Y-53848000D01*
X49530000Y-46990000D02*
X49530000Y-39370000D01*
X49530000Y-53848000D02*
X50800000Y-52578000D01*
%TO.N,/RP_EXT1_18*%
X53340000Y-47244000D02*
X53340000Y-52705000D01*
X53340000Y-52705000D02*
X52070000Y-53975000D01*
X52070000Y-39370000D02*
X52070000Y-45974000D01*
X52070000Y-45974000D02*
X53340000Y-47244000D01*
%TO.N,/RP_EXT1_16*%
X54610000Y-53912002D02*
X54610000Y-53975000D01*
X55880000Y-46482000D02*
X55880000Y-52642002D01*
X55880000Y-52642002D02*
X54610000Y-53912002D01*
X54610000Y-45212000D02*
X55880000Y-46482000D01*
X54610000Y-39370000D02*
X54610000Y-45212000D01*
%TO.N,/RP_EXT1_14*%
X58420000Y-52705000D02*
X57150000Y-53975000D01*
X57150000Y-43688000D02*
X58420000Y-44958000D01*
X58420000Y-44958000D02*
X58420000Y-52705000D01*
X57150000Y-39370000D02*
X57150000Y-43688000D01*
%TO.N,/RP_EXT1_12*%
X60960000Y-43688000D02*
X60960000Y-52705000D01*
X60960000Y-52705000D02*
X59690000Y-53975000D01*
X59690000Y-39370000D02*
X59690000Y-42418000D01*
X59690000Y-42418000D02*
X60960000Y-43688000D01*
%TO.N,/RP_EXT1_10*%
X63500000Y-52705000D02*
X62230000Y-53975000D01*
X62230000Y-41402000D02*
X63500000Y-42672000D01*
X62230000Y-39370000D02*
X62230000Y-41402000D01*
X63500000Y-42672000D02*
X63500000Y-52705000D01*
%TO.N,/RP_EXT1_8*%
X66040000Y-42672000D02*
X66040000Y-52705000D01*
X66040000Y-52705000D02*
X64770000Y-53975000D01*
X64770000Y-41402000D02*
X66040000Y-42672000D01*
X64770000Y-39370000D02*
X64770000Y-41402000D01*
%TO.N,/RP_EXT1_23*%
X43085001Y-38194999D02*
X43085001Y-50070001D01*
X44450000Y-36830000D02*
X43085001Y-38194999D01*
X43085001Y-50070001D02*
X44450000Y-51435000D01*
%TO.N,/RP_EXT1_21*%
X46990000Y-36830000D02*
X45720000Y-38100000D01*
X45720000Y-38100000D02*
X45720000Y-48514000D01*
X46990000Y-49784000D02*
X46990000Y-51435000D01*
X45720000Y-48514000D02*
X46990000Y-49784000D01*
%TO.N,/RP_EXT1_19*%
X49530000Y-48768000D02*
X49530000Y-51435000D01*
X48260000Y-38100000D02*
X48354999Y-38194999D01*
X48354999Y-38194999D02*
X48354999Y-47592999D01*
X49530000Y-36830000D02*
X48260000Y-38100000D01*
X48354999Y-47592999D02*
X49530000Y-48768000D01*
%TO.N,/RP_EXT1_17*%
X50800000Y-46482000D02*
X52070000Y-47752000D01*
X52070000Y-36830000D02*
X50800000Y-38100000D01*
X52070000Y-47752000D02*
X52070000Y-51435000D01*
X50800000Y-38100000D02*
X50800000Y-46482000D01*
%TO.N,/RP_EXT1_15*%
X54610000Y-46736000D02*
X54610000Y-51435000D01*
X53340000Y-45466000D02*
X54610000Y-46736000D01*
X53340000Y-38100000D02*
X53340000Y-45466000D01*
X54610000Y-36830000D02*
X53340000Y-38100000D01*
%TO.N,/RP_EXT1_13*%
X55785001Y-44355001D02*
X57150000Y-45720000D01*
X57150000Y-45720000D02*
X57150000Y-51435000D01*
X57150000Y-36830000D02*
X55785001Y-38194999D01*
X55785001Y-38194999D02*
X55785001Y-44355001D01*
%TO.N,/RP_EXT1_11*%
X59690000Y-36830000D02*
X58325001Y-38194999D01*
X58325001Y-43085001D02*
X59690000Y-44450000D01*
X59690000Y-44450000D02*
X59690000Y-51435000D01*
X58325001Y-38194999D02*
X58325001Y-43085001D01*
%TO.N,/RP_EXT1_9*%
X62230000Y-36830000D02*
X60960000Y-38100000D01*
X60960000Y-41910000D02*
X62230000Y-43180000D01*
X60960000Y-38100000D02*
X60960000Y-41910000D01*
X62230000Y-43180000D02*
X62230000Y-51435000D01*
%TO.N,/RP_EXT1_7*%
X63500000Y-41303501D02*
X64770000Y-42573501D01*
X64770000Y-36830000D02*
X63500000Y-38100000D01*
X64770000Y-42573501D02*
X64770000Y-51435000D01*
X63500000Y-38100000D02*
X63500000Y-41303501D01*
D19*
%TO.N,Net-(R4-Pad1)*%
X71755000Y-92075000D02*
X71755000Y-99060000D01*
%TD*%
%TA.AperFunction,Conductor*%
%TO.N,GND*%
G36*
X61909920Y-89924394D02*
G01*
X61857259Y-90015606D01*
X61830000Y-90117339D01*
X61830000Y-90222661D01*
X61857259Y-90324394D01*
X61909920Y-90415606D01*
X61918314Y-90424000D01*
X60001686Y-90424000D01*
X60010080Y-90415606D01*
X60062741Y-90324394D01*
X60090000Y-90222661D01*
X60090000Y-90117339D01*
X60062741Y-90015606D01*
X60010080Y-89924394D01*
X60001686Y-89916000D01*
X61918314Y-89916000D01*
X61909920Y-89924394D01*
G37*
%TD.AperFunction*%
%TA.AperFunction,Conductor*%
G36*
X64449920Y-89924394D02*
G01*
X64397259Y-90015606D01*
X64370000Y-90117339D01*
X64370000Y-90222661D01*
X64397259Y-90324394D01*
X64449920Y-90415606D01*
X64458314Y-90424000D01*
X62541686Y-90424000D01*
X62550080Y-90415606D01*
X62602741Y-90324394D01*
X62630000Y-90222661D01*
X62630000Y-90117339D01*
X62602741Y-90015606D01*
X62550080Y-89924394D01*
X62541686Y-89916000D01*
X64458314Y-89916000D01*
X64449920Y-89924394D01*
G37*
%TD.AperFunction*%
%TA.AperFunction,Conductor*%
G36*
X43083876Y-52351266D02*
G01*
X43083878Y-52351266D01*
X43125017Y-52288299D01*
X43179021Y-52242210D01*
X43249368Y-52232635D01*
X43313726Y-52262612D01*
X43335983Y-52288298D01*
X43425079Y-52424670D01*
X43577562Y-52590308D01*
X43632131Y-52632781D01*
X43755224Y-52728589D01*
X43788478Y-52746585D01*
X43788480Y-52746586D01*
X43838871Y-52796600D01*
X43854223Y-52865916D01*
X43829662Y-52932529D01*
X43788480Y-52968214D01*
X43755226Y-52986210D01*
X43755224Y-52986211D01*
X43577562Y-53124491D01*
X43425079Y-53290129D01*
X43335983Y-53426501D01*
X43281979Y-53472589D01*
X43211631Y-53482164D01*
X43147274Y-53452186D01*
X43125017Y-53426500D01*
X43083878Y-53363532D01*
X42444957Y-54002451D01*
X42426725Y-53934407D01*
X42360899Y-53820393D01*
X42267807Y-53727301D01*
X42153793Y-53661475D01*
X42085747Y-53643241D01*
X42726488Y-53002500D01*
X42726487Y-53002499D01*
X42706108Y-52986637D01*
X42706098Y-52986631D01*
X42672067Y-52968214D01*
X42621676Y-52918201D01*
X42606324Y-52848884D01*
X42630885Y-52782271D01*
X42672068Y-52746586D01*
X42706094Y-52728172D01*
X42706098Y-52728169D01*
X42726488Y-52712298D01*
X42085747Y-52071557D01*
X42153793Y-52053325D01*
X42267807Y-51987499D01*
X42360899Y-51894407D01*
X42426725Y-51780393D01*
X42444957Y-51712347D01*
X43083876Y-52351266D01*
G37*
%TD.AperFunction*%
%TA.AperFunction,Conductor*%
G36*
X70247284Y-40675869D02*
G01*
X70286634Y-40702538D01*
X70449595Y-40865499D01*
X70483621Y-40927811D01*
X70486500Y-40954594D01*
X70486500Y-50175672D01*
X70466498Y-50243793D01*
X70412842Y-50290286D01*
X70342568Y-50300390D01*
X70319589Y-50294845D01*
X70235443Y-50265958D01*
X70235436Y-50265956D01*
X70235435Y-50265956D01*
X70235432Y-50265955D01*
X70235430Y-50265955D01*
X70168496Y-50254786D01*
X70013369Y-50228900D01*
X69884499Y-50228900D01*
X69816378Y-50208898D01*
X69769885Y-50155242D01*
X69758499Y-50102900D01*
X69758499Y-40829100D01*
X69778501Y-40760979D01*
X69832157Y-40714486D01*
X69884499Y-40703100D01*
X69962564Y-40703100D01*
X69962569Y-40703100D01*
X70176801Y-40667351D01*
X70247284Y-40675869D01*
G37*
%TD.AperFunction*%
%TA.AperFunction,Conductor*%
G36*
X71920406Y-40619712D02*
G01*
X72055365Y-40666044D01*
X72277431Y-40703100D01*
X72355501Y-40703100D01*
X72423622Y-40723102D01*
X72470115Y-40776758D01*
X72481501Y-40829100D01*
X72481501Y-49658805D01*
X72461499Y-49726926D01*
X72444600Y-49747895D01*
X72184889Y-50007607D01*
X72000500Y-50191996D01*
X71938188Y-50226021D01*
X71911405Y-50228900D01*
X71879500Y-50228900D01*
X71811379Y-50208898D01*
X71764886Y-50155242D01*
X71753500Y-50102900D01*
X71753500Y-40738887D01*
X71773502Y-40670766D01*
X71827158Y-40624273D01*
X71897432Y-40614169D01*
X71920406Y-40619712D01*
G37*
%TD.AperFunction*%
%TA.AperFunction,Conductor*%
G36*
X66900438Y-40695090D02*
G01*
X66905048Y-40699352D01*
X66906163Y-40700267D01*
X66906167Y-40700271D01*
X66906170Y-40700273D01*
X66906175Y-40700277D01*
X66930218Y-40716342D01*
X66939163Y-40722906D01*
X67924037Y-41514668D01*
X67964596Y-41572938D01*
X67971091Y-41613148D01*
X67969720Y-42231768D01*
X67949567Y-42299844D01*
X67895808Y-42346218D01*
X67825512Y-42356166D01*
X67760997Y-42326530D01*
X67760615Y-42326196D01*
X67746436Y-42313754D01*
X67740459Y-42308155D01*
X67713833Y-42281529D01*
X67703444Y-42274587D01*
X67690342Y-42264529D01*
X66739356Y-41429991D01*
X66701348Y-41370025D01*
X66696467Y-41336180D01*
X66695073Y-41139596D01*
X66692606Y-40791789D01*
X66712125Y-40723530D01*
X66765449Y-40676657D01*
X66835650Y-40666055D01*
X66900438Y-40695090D01*
G37*
%TD.AperFunction*%
%TA.AperFunction,Conductor*%
G36*
X116046621Y-28568502D02*
G01*
X116093114Y-28622158D01*
X116104500Y-28674500D01*
X116104500Y-117121500D01*
X116084498Y-117189621D01*
X116030842Y-117236114D01*
X115978500Y-117247500D01*
X92984000Y-117247500D01*
X92915879Y-117227498D01*
X92869386Y-117173842D01*
X92858000Y-117121500D01*
X92858000Y-116078000D01*
X90342000Y-116078000D01*
X90342000Y-117121500D01*
X90321998Y-117189621D01*
X90268342Y-117236114D01*
X90216000Y-117247500D01*
X87584000Y-117247500D01*
X87515879Y-117227498D01*
X87469386Y-117173842D01*
X87458000Y-117121500D01*
X87458000Y-116078000D01*
X84942000Y-116078000D01*
X84942000Y-117121500D01*
X84921998Y-117189621D01*
X84868342Y-117236114D01*
X84816000Y-117247500D01*
X82824000Y-117247500D01*
X82755879Y-117227498D01*
X82709386Y-117173842D01*
X82698000Y-117121500D01*
X82698000Y-116078000D01*
X80182000Y-116078000D01*
X80182000Y-117121500D01*
X80161998Y-117189621D01*
X80108342Y-117236114D01*
X80056000Y-117247500D01*
X77424000Y-117247500D01*
X77355879Y-117227498D01*
X77309386Y-117173842D01*
X77298000Y-117121500D01*
X77298000Y-116078000D01*
X74782000Y-116078000D01*
X74782000Y-117121500D01*
X74761998Y-117189621D01*
X74708342Y-117236114D01*
X74656000Y-117247500D01*
X72664000Y-117247500D01*
X72595879Y-117227498D01*
X72549386Y-117173842D01*
X72538000Y-117121500D01*
X72538000Y-116078000D01*
X70022000Y-116078000D01*
X70022000Y-117121500D01*
X70001998Y-117189621D01*
X69948342Y-117236114D01*
X69896000Y-117247500D01*
X67264000Y-117247500D01*
X67195879Y-117227498D01*
X67149386Y-117173842D01*
X67138000Y-117121500D01*
X67138000Y-116078000D01*
X64622000Y-116078000D01*
X64622000Y-117121500D01*
X64601998Y-117189621D01*
X64548342Y-117236114D01*
X64496000Y-117247500D01*
X62504000Y-117247500D01*
X62435879Y-117227498D01*
X62389386Y-117173842D01*
X62378000Y-117121500D01*
X62378000Y-116078000D01*
X59862000Y-116078000D01*
X59862000Y-117121500D01*
X59841998Y-117189621D01*
X59788342Y-117236114D01*
X59736000Y-117247500D01*
X57104000Y-117247500D01*
X57035879Y-117227498D01*
X56989386Y-117173842D01*
X56978000Y-117121500D01*
X56978000Y-116078000D01*
X54462000Y-116078000D01*
X54462000Y-117121500D01*
X54441998Y-117189621D01*
X54388342Y-117236114D01*
X54336000Y-117247500D01*
X52344000Y-117247500D01*
X52275879Y-117227498D01*
X52229386Y-117173842D01*
X52218000Y-117121500D01*
X52218000Y-116078000D01*
X49702000Y-116078000D01*
X49702000Y-117121500D01*
X49681998Y-117189621D01*
X49628342Y-117236114D01*
X49576000Y-117247500D01*
X46944000Y-117247500D01*
X46875879Y-117227498D01*
X46829386Y-117173842D01*
X46818000Y-117121500D01*
X46818000Y-116078000D01*
X44302000Y-116078000D01*
X44302000Y-117121500D01*
X44281998Y-117189621D01*
X44228342Y-117236114D01*
X44176000Y-117247500D01*
X42184000Y-117247500D01*
X42115879Y-117227498D01*
X42069386Y-117173842D01*
X42058000Y-117121500D01*
X42058000Y-116078000D01*
X39542000Y-116078000D01*
X39542000Y-117121500D01*
X39521998Y-117189621D01*
X39468342Y-117236114D01*
X39416000Y-117247500D01*
X36784000Y-117247500D01*
X36715879Y-117227498D01*
X36669386Y-117173842D01*
X36658000Y-117121500D01*
X36658000Y-116078000D01*
X34142000Y-116078000D01*
X34142000Y-117121500D01*
X34121998Y-117189621D01*
X34068342Y-117236114D01*
X34016000Y-117247500D01*
X27531500Y-117247500D01*
X27463379Y-117227498D01*
X27416886Y-117173842D01*
X27405500Y-117121500D01*
X27405500Y-114172997D01*
X28366573Y-114172997D01*
X28366573Y-114173002D01*
X28371206Y-114240730D01*
X28371500Y-114249329D01*
X28371500Y-114311202D01*
X28380406Y-114378851D01*
X28381190Y-114386696D01*
X28386257Y-114460771D01*
X28386260Y-114460789D01*
X28398774Y-114521017D01*
X28400331Y-114530201D01*
X28407575Y-114585222D01*
X28407577Y-114585230D01*
X28426885Y-114657292D01*
X28428542Y-114664266D01*
X28444940Y-114743177D01*
X28444947Y-114743202D01*
X28463417Y-114795172D01*
X28466394Y-114804740D01*
X28479113Y-114852204D01*
X28479116Y-114852214D01*
X28510093Y-114927001D01*
X28512409Y-114933022D01*
X28541544Y-115015000D01*
X28563984Y-115058305D01*
X28568520Y-115068056D01*
X28584883Y-115107562D01*
X28584885Y-115107564D01*
X28584886Y-115107567D01*
X28613740Y-115157544D01*
X28628544Y-115183186D01*
X28631297Y-115188216D01*
X28674243Y-115271097D01*
X28674247Y-115271104D01*
X28698712Y-115305762D01*
X28704893Y-115315424D01*
X28723084Y-115346933D01*
X28780110Y-115421251D01*
X28783073Y-115425275D01*
X28840591Y-115506758D01*
X28840596Y-115506765D01*
X28865186Y-115533093D01*
X28873060Y-115542386D01*
X28891344Y-115566214D01*
X28962117Y-115636987D01*
X28965079Y-115640052D01*
X29037474Y-115717568D01*
X29037479Y-115717572D01*
X29037480Y-115717573D01*
X29060489Y-115736292D01*
X29070058Y-115744928D01*
X29086786Y-115761656D01*
X29171241Y-115826459D01*
X29174014Y-115828651D01*
X29261228Y-115899606D01*
X29281142Y-115911715D01*
X29292360Y-115919397D01*
X29306067Y-115929915D01*
X29403761Y-115986318D01*
X29406129Y-115987722D01*
X29507686Y-116049481D01*
X29523211Y-116056224D01*
X29536000Y-116062668D01*
X29545433Y-116068114D01*
X29655485Y-116113699D01*
X29657438Y-116114528D01*
X29772244Y-116164395D01*
X29772254Y-116164399D01*
X29772256Y-116164400D01*
X29781607Y-116167020D01*
X29782410Y-116167245D01*
X29796636Y-116172165D01*
X29800791Y-116173886D01*
X29922009Y-116206366D01*
X29923313Y-116206724D01*
X30049996Y-116242219D01*
X30049999Y-116242219D01*
X30050011Y-116242223D01*
X30054128Y-116242788D01*
X30063707Y-116244723D01*
X30063728Y-116244619D01*
X30067757Y-116245419D01*
X30067769Y-116245423D01*
X30198632Y-116262650D01*
X30198991Y-116262698D01*
X30335775Y-116281500D01*
X30335783Y-116281500D01*
X30624217Y-116281500D01*
X30624225Y-116281500D01*
X30761052Y-116262692D01*
X30761318Y-116262656D01*
X30892231Y-116245423D01*
X30892245Y-116245419D01*
X30896270Y-116244619D01*
X30896290Y-116244724D01*
X30905875Y-116242788D01*
X30909989Y-116242223D01*
X31036791Y-116206693D01*
X31037893Y-116206391D01*
X31159209Y-116173886D01*
X31163362Y-116172165D01*
X31177595Y-116167243D01*
X31187744Y-116164400D01*
X31187756Y-116164395D01*
X31302580Y-116114520D01*
X31304505Y-116113702D01*
X31414567Y-116068114D01*
X31424002Y-116062666D01*
X31436778Y-116056228D01*
X31452314Y-116049481D01*
X31553885Y-115987712D01*
X31556172Y-115986356D01*
X31653933Y-115929915D01*
X31667625Y-115919407D01*
X31678847Y-115911721D01*
X31698772Y-115899606D01*
X31786007Y-115828632D01*
X31788758Y-115826458D01*
X31873214Y-115761656D01*
X31889939Y-115744930D01*
X31899510Y-115736292D01*
X31922526Y-115717568D01*
X31994934Y-115640036D01*
X31997867Y-115637001D01*
X32068656Y-115566214D01*
X32086939Y-115542385D01*
X32094798Y-115533108D01*
X32119409Y-115506758D01*
X32176942Y-115425252D01*
X32179852Y-115421297D01*
X32236915Y-115346933D01*
X32255117Y-115315404D01*
X32261276Y-115305777D01*
X32285753Y-115271103D01*
X32328712Y-115188193D01*
X32331449Y-115183195D01*
X32375114Y-115107567D01*
X32391482Y-115068047D01*
X32396015Y-115058305D01*
X32418459Y-115014992D01*
X32447599Y-114932994D01*
X32449886Y-114927047D01*
X32480886Y-114852209D01*
X32493604Y-114804741D01*
X32496582Y-114795172D01*
X32515055Y-114743196D01*
X32531462Y-114664231D01*
X32533102Y-114657333D01*
X32552423Y-114585231D01*
X32559667Y-114530197D01*
X32561221Y-114521025D01*
X32573742Y-114460778D01*
X32573742Y-114460774D01*
X32573743Y-114460771D01*
X32578808Y-114386703D01*
X32579589Y-114378871D01*
X32588500Y-114311198D01*
X32588500Y-114249329D01*
X32588794Y-114240730D01*
X32593427Y-114173002D01*
X32593427Y-114172997D01*
X32588794Y-114105268D01*
X32588500Y-114096669D01*
X32588500Y-114034809D01*
X32588500Y-114034802D01*
X32587262Y-114025402D01*
X34142000Y-114025402D01*
X34142000Y-115570000D01*
X35146000Y-115570000D01*
X35654000Y-115570000D01*
X36658000Y-115570000D01*
X36658000Y-114025414D01*
X36657999Y-114025402D01*
X39542000Y-114025402D01*
X39542000Y-115570000D01*
X40546000Y-115570000D01*
X41054000Y-115570000D01*
X42058000Y-115570000D01*
X42058000Y-114025414D01*
X42057999Y-114025402D01*
X44302000Y-114025402D01*
X44302000Y-115570000D01*
X45306000Y-115570000D01*
X45814000Y-115570000D01*
X46818000Y-115570000D01*
X46818000Y-114025414D01*
X46817999Y-114025402D01*
X49702000Y-114025402D01*
X49702000Y-115570000D01*
X50706000Y-115570000D01*
X51214000Y-115570000D01*
X52218000Y-115570000D01*
X52218000Y-114025414D01*
X52217999Y-114025402D01*
X54462000Y-114025402D01*
X54462000Y-115570000D01*
X55466000Y-115570000D01*
X55974000Y-115570000D01*
X56978000Y-115570000D01*
X56978000Y-114025414D01*
X56977999Y-114025402D01*
X59862000Y-114025402D01*
X59862000Y-115570000D01*
X60866000Y-115570000D01*
X61374000Y-115570000D01*
X62378000Y-115570000D01*
X62378000Y-114025414D01*
X62377999Y-114025402D01*
X64622000Y-114025402D01*
X64622000Y-115570000D01*
X65626000Y-115570000D01*
X66134000Y-115570000D01*
X67138000Y-115570000D01*
X67138000Y-114025414D01*
X67137999Y-114025402D01*
X70022000Y-114025402D01*
X70022000Y-115570000D01*
X71026000Y-115570000D01*
X71534000Y-115570000D01*
X72538000Y-115570000D01*
X72538000Y-114025414D01*
X72537999Y-114025402D01*
X74782000Y-114025402D01*
X74782000Y-115570000D01*
X75786000Y-115570000D01*
X76294000Y-115570000D01*
X77298000Y-115570000D01*
X77298000Y-114025414D01*
X77297999Y-114025402D01*
X80182000Y-114025402D01*
X80182000Y-115570000D01*
X81186000Y-115570000D01*
X81694000Y-115570000D01*
X82698000Y-115570000D01*
X82698000Y-114025414D01*
X82697999Y-114025402D01*
X84942000Y-114025402D01*
X84942000Y-115570000D01*
X85946000Y-115570000D01*
X86454000Y-115570000D01*
X87458000Y-115570000D01*
X87458000Y-114025414D01*
X87457999Y-114025402D01*
X90342000Y-114025402D01*
X90342000Y-115570000D01*
X91346000Y-115570000D01*
X91854000Y-115570000D01*
X92858000Y-115570000D01*
X92858000Y-114172997D01*
X110916573Y-114172997D01*
X110916573Y-114173002D01*
X110921206Y-114240730D01*
X110921500Y-114249329D01*
X110921500Y-114311202D01*
X110930406Y-114378851D01*
X110931190Y-114386696D01*
X110936257Y-114460771D01*
X110936260Y-114460789D01*
X110948774Y-114521017D01*
X110950331Y-114530201D01*
X110957575Y-114585222D01*
X110957577Y-114585230D01*
X110976885Y-114657292D01*
X110978542Y-114664266D01*
X110994940Y-114743177D01*
X110994947Y-114743202D01*
X111013417Y-114795172D01*
X111016394Y-114804740D01*
X111029113Y-114852204D01*
X111029116Y-114852214D01*
X111060093Y-114927001D01*
X111062409Y-114933022D01*
X111091544Y-115015000D01*
X111113984Y-115058305D01*
X111118520Y-115068056D01*
X111134883Y-115107562D01*
X111134885Y-115107564D01*
X111134886Y-115107567D01*
X111163740Y-115157544D01*
X111178544Y-115183186D01*
X111181297Y-115188216D01*
X111224243Y-115271097D01*
X111224247Y-115271104D01*
X111248712Y-115305762D01*
X111254893Y-115315424D01*
X111273084Y-115346933D01*
X111330110Y-115421251D01*
X111333073Y-115425275D01*
X111390591Y-115506758D01*
X111390596Y-115506765D01*
X111415186Y-115533093D01*
X111423060Y-115542386D01*
X111441344Y-115566214D01*
X111512117Y-115636987D01*
X111515079Y-115640052D01*
X111587474Y-115717568D01*
X111587479Y-115717572D01*
X111587480Y-115717573D01*
X111610489Y-115736292D01*
X111620058Y-115744928D01*
X111636786Y-115761656D01*
X111721241Y-115826459D01*
X111724014Y-115828651D01*
X111811228Y-115899606D01*
X111831142Y-115911715D01*
X111842360Y-115919397D01*
X111856067Y-115929915D01*
X111953761Y-115986318D01*
X111956129Y-115987722D01*
X112057686Y-116049481D01*
X112073211Y-116056224D01*
X112086000Y-116062668D01*
X112095433Y-116068114D01*
X112205485Y-116113699D01*
X112207438Y-116114528D01*
X112322244Y-116164395D01*
X112322254Y-116164399D01*
X112322256Y-116164400D01*
X112331607Y-116167020D01*
X112332410Y-116167245D01*
X112346636Y-116172165D01*
X112350791Y-116173886D01*
X112472009Y-116206366D01*
X112473313Y-116206724D01*
X112599996Y-116242219D01*
X112599999Y-116242219D01*
X112600011Y-116242223D01*
X112604128Y-116242788D01*
X112613707Y-116244723D01*
X112613728Y-116244619D01*
X112617757Y-116245419D01*
X112617769Y-116245423D01*
X112748632Y-116262650D01*
X112748991Y-116262698D01*
X112885775Y-116281500D01*
X112885783Y-116281500D01*
X113174217Y-116281500D01*
X113174225Y-116281500D01*
X113311052Y-116262692D01*
X113311318Y-116262656D01*
X113442231Y-116245423D01*
X113442245Y-116245419D01*
X113446270Y-116244619D01*
X113446290Y-116244724D01*
X113455875Y-116242788D01*
X113459989Y-116242223D01*
X113586791Y-116206693D01*
X113587893Y-116206391D01*
X113709209Y-116173886D01*
X113713362Y-116172165D01*
X113727595Y-116167243D01*
X113737744Y-116164400D01*
X113737756Y-116164395D01*
X113852580Y-116114520D01*
X113854505Y-116113702D01*
X113964567Y-116068114D01*
X113974002Y-116062666D01*
X113986778Y-116056228D01*
X114002314Y-116049481D01*
X114103885Y-115987712D01*
X114106172Y-115986356D01*
X114203933Y-115929915D01*
X114217625Y-115919407D01*
X114228847Y-115911721D01*
X114248772Y-115899606D01*
X114336007Y-115828632D01*
X114338758Y-115826458D01*
X114423214Y-115761656D01*
X114439939Y-115744930D01*
X114449510Y-115736292D01*
X114472526Y-115717568D01*
X114544934Y-115640036D01*
X114547867Y-115637001D01*
X114618656Y-115566214D01*
X114636939Y-115542385D01*
X114644798Y-115533108D01*
X114669409Y-115506758D01*
X114726942Y-115425252D01*
X114729852Y-115421297D01*
X114786915Y-115346933D01*
X114805117Y-115315404D01*
X114811276Y-115305777D01*
X114835753Y-115271103D01*
X114878712Y-115188193D01*
X114881449Y-115183195D01*
X114925114Y-115107567D01*
X114941482Y-115068047D01*
X114946015Y-115058305D01*
X114968459Y-115014992D01*
X114997599Y-114932994D01*
X114999886Y-114927047D01*
X115030886Y-114852209D01*
X115043604Y-114804741D01*
X115046582Y-114795172D01*
X115065055Y-114743196D01*
X115081462Y-114664231D01*
X115083102Y-114657333D01*
X115102423Y-114585231D01*
X115109667Y-114530197D01*
X115111221Y-114521025D01*
X115123742Y-114460778D01*
X115123742Y-114460774D01*
X115123743Y-114460771D01*
X115128808Y-114386703D01*
X115129589Y-114378871D01*
X115138500Y-114311198D01*
X115138500Y-114249329D01*
X115138794Y-114240730D01*
X115143427Y-114173002D01*
X115143427Y-114172997D01*
X115138794Y-114105268D01*
X115138500Y-114096669D01*
X115138500Y-114034809D01*
X115138500Y-114034802D01*
X115129590Y-113967133D01*
X115128808Y-113959295D01*
X115123743Y-113885228D01*
X115123742Y-113885222D01*
X115111221Y-113824969D01*
X115109668Y-113815805D01*
X115102423Y-113760769D01*
X115083106Y-113688681D01*
X115081457Y-113681741D01*
X115065055Y-113602804D01*
X115046579Y-113550818D01*
X115043600Y-113541243D01*
X115030886Y-113493792D01*
X114999903Y-113418992D01*
X114997587Y-113412967D01*
X114968463Y-113331018D01*
X114968460Y-113331012D01*
X114968459Y-113331008D01*
X114946011Y-113287687D01*
X114941478Y-113277941D01*
X114925117Y-113238439D01*
X114925111Y-113238428D01*
X114881450Y-113162805D01*
X114878715Y-113157810D01*
X114835753Y-113074897D01*
X114811288Y-113040239D01*
X114805107Y-113030577D01*
X114786915Y-112999067D01*
X114786912Y-112999063D01*
X114729869Y-112924722D01*
X114726913Y-112920706D01*
X114726908Y-112920699D01*
X114669409Y-112839242D01*
X114669407Y-112839239D01*
X114669405Y-112839237D01*
X114644808Y-112812900D01*
X114636938Y-112803612D01*
X114618656Y-112779786D01*
X114547880Y-112709010D01*
X114544919Y-112705946D01*
X114472529Y-112628435D01*
X114472526Y-112628432D01*
X114449510Y-112609707D01*
X114439940Y-112601070D01*
X114423214Y-112584344D01*
X114423212Y-112584343D01*
X114423207Y-112584338D01*
X114338800Y-112519572D01*
X114335985Y-112517348D01*
X114248770Y-112446392D01*
X114228868Y-112434290D01*
X114217635Y-112426599D01*
X114203933Y-112416085D01*
X114203929Y-112416083D01*
X114203927Y-112416081D01*
X114106314Y-112359724D01*
X114103846Y-112358262D01*
X114002314Y-112296519D01*
X113986789Y-112289775D01*
X113974003Y-112283333D01*
X113964567Y-112277886D01*
X113964565Y-112277885D01*
X113964563Y-112277884D01*
X113964554Y-112277879D01*
X113854518Y-112232300D01*
X113852540Y-112231461D01*
X113737755Y-112181604D01*
X113737748Y-112181602D01*
X113737744Y-112181600D01*
X113727581Y-112178752D01*
X113713380Y-112173841D01*
X113709213Y-112172115D01*
X113709210Y-112172114D01*
X113588022Y-112139640D01*
X113586642Y-112139262D01*
X113486274Y-112111141D01*
X113459989Y-112103777D01*
X113455854Y-112103208D01*
X113446290Y-112101278D01*
X113446270Y-112101381D01*
X113442239Y-112100579D01*
X113442231Y-112100577D01*
X113397005Y-112094622D01*
X113311478Y-112083363D01*
X113310768Y-112083267D01*
X113174237Y-112064500D01*
X113174225Y-112064500D01*
X112885775Y-112064500D01*
X112885761Y-112064500D01*
X112749230Y-112083267D01*
X112748520Y-112083363D01*
X112617771Y-112100576D01*
X112613728Y-112101381D01*
X112613707Y-112101278D01*
X112604141Y-112103209D01*
X112600020Y-112103775D01*
X112600004Y-112103778D01*
X112473274Y-112139285D01*
X112471894Y-112139663D01*
X112350803Y-112172109D01*
X112350785Y-112172116D01*
X112346617Y-112173842D01*
X112332422Y-112178750D01*
X112322264Y-112181597D01*
X112322254Y-112181600D01*
X112207430Y-112231474D01*
X112205452Y-112232313D01*
X112095445Y-112277880D01*
X112095424Y-112277890D01*
X112085988Y-112283337D01*
X112073209Y-112289775D01*
X112057682Y-112296520D01*
X111956170Y-112358251D01*
X111953704Y-112359712D01*
X111856084Y-112416073D01*
X111856063Y-112416088D01*
X111842365Y-112426598D01*
X111831139Y-112434285D01*
X111811226Y-112446395D01*
X111724025Y-112517338D01*
X111721213Y-112519560D01*
X111636785Y-112584344D01*
X111620058Y-112601071D01*
X111610485Y-112609710D01*
X111587476Y-112628429D01*
X111515092Y-112705932D01*
X111512105Y-112709023D01*
X111441343Y-112779786D01*
X111423052Y-112803621D01*
X111415183Y-112812909D01*
X111390594Y-112839238D01*
X111390590Y-112839243D01*
X111333090Y-112920699D01*
X111330118Y-112924736D01*
X111273087Y-112999063D01*
X111254893Y-113030576D01*
X111248714Y-113040233D01*
X111224248Y-113074893D01*
X111224247Y-113074895D01*
X111181301Y-113157776D01*
X111178548Y-113162805D01*
X111134891Y-113238422D01*
X111134882Y-113238440D01*
X111118518Y-113277945D01*
X111113986Y-113287688D01*
X111091542Y-113331004D01*
X111091539Y-113331010D01*
X111062406Y-113412982D01*
X111060092Y-113419002D01*
X111029113Y-113493792D01*
X111029110Y-113493803D01*
X111016397Y-113541247D01*
X111013416Y-113550827D01*
X110994945Y-113602799D01*
X110994945Y-113602800D01*
X110978540Y-113681741D01*
X110976883Y-113688712D01*
X110957578Y-113760764D01*
X110957575Y-113760777D01*
X110950331Y-113815800D01*
X110948774Y-113824984D01*
X110936260Y-113885210D01*
X110936257Y-113885228D01*
X110931190Y-113959302D01*
X110930406Y-113967146D01*
X110921500Y-114034795D01*
X110921500Y-114096669D01*
X110921206Y-114105268D01*
X110916573Y-114172997D01*
X92858000Y-114172997D01*
X92858000Y-114025414D01*
X92857999Y-114025402D01*
X92851494Y-113964906D01*
X92800444Y-113828035D01*
X92800444Y-113828034D01*
X92712904Y-113711095D01*
X92595965Y-113623555D01*
X92459093Y-113572505D01*
X92398597Y-113566000D01*
X91854000Y-113566000D01*
X91854000Y-115570000D01*
X91346000Y-115570000D01*
X91346000Y-113566000D01*
X90801402Y-113566000D01*
X90740906Y-113572505D01*
X90604035Y-113623555D01*
X90604034Y-113623555D01*
X90487095Y-113711095D01*
X90399555Y-113828034D01*
X90399555Y-113828035D01*
X90348505Y-113964906D01*
X90342000Y-114025402D01*
X87457999Y-114025402D01*
X87451494Y-113964906D01*
X87400444Y-113828035D01*
X87400444Y-113828034D01*
X87312904Y-113711095D01*
X87195965Y-113623555D01*
X87059093Y-113572505D01*
X86998597Y-113566000D01*
X86454000Y-113566000D01*
X86454000Y-115570000D01*
X85946000Y-115570000D01*
X85946000Y-113566000D01*
X85401402Y-113566000D01*
X85340906Y-113572505D01*
X85204035Y-113623555D01*
X85204034Y-113623555D01*
X85087095Y-113711095D01*
X84999555Y-113828034D01*
X84999555Y-113828035D01*
X84948505Y-113964906D01*
X84942000Y-114025402D01*
X82697999Y-114025402D01*
X82691494Y-113964906D01*
X82640444Y-113828035D01*
X82640444Y-113828034D01*
X82552904Y-113711095D01*
X82435965Y-113623555D01*
X82299093Y-113572505D01*
X82238597Y-113566000D01*
X81694000Y-113566000D01*
X81694000Y-115570000D01*
X81186000Y-115570000D01*
X81186000Y-113566000D01*
X80641402Y-113566000D01*
X80580906Y-113572505D01*
X80444035Y-113623555D01*
X80444034Y-113623555D01*
X80327095Y-113711095D01*
X80239555Y-113828034D01*
X80239555Y-113828035D01*
X80188505Y-113964906D01*
X80182000Y-114025402D01*
X77297999Y-114025402D01*
X77291494Y-113964906D01*
X77240444Y-113828035D01*
X77240444Y-113828034D01*
X77152904Y-113711095D01*
X77035965Y-113623555D01*
X76899093Y-113572505D01*
X76838597Y-113566000D01*
X76294000Y-113566000D01*
X76294000Y-115570000D01*
X75786000Y-115570000D01*
X75786000Y-113566000D01*
X75241402Y-113566000D01*
X75180906Y-113572505D01*
X75044035Y-113623555D01*
X75044034Y-113623555D01*
X74927095Y-113711095D01*
X74839555Y-113828034D01*
X74839555Y-113828035D01*
X74788505Y-113964906D01*
X74782000Y-114025402D01*
X72537999Y-114025402D01*
X72531494Y-113964906D01*
X72480444Y-113828035D01*
X72480444Y-113828034D01*
X72392904Y-113711095D01*
X72275965Y-113623555D01*
X72139093Y-113572505D01*
X72078597Y-113566000D01*
X71534000Y-113566000D01*
X71534000Y-115570000D01*
X71026000Y-115570000D01*
X71026000Y-113566000D01*
X70481402Y-113566000D01*
X70420906Y-113572505D01*
X70284035Y-113623555D01*
X70284034Y-113623555D01*
X70167095Y-113711095D01*
X70079555Y-113828034D01*
X70079555Y-113828035D01*
X70028505Y-113964906D01*
X70022000Y-114025402D01*
X67137999Y-114025402D01*
X67131494Y-113964906D01*
X67080444Y-113828035D01*
X67080444Y-113828034D01*
X66992904Y-113711095D01*
X66875965Y-113623555D01*
X66739093Y-113572505D01*
X66678597Y-113566000D01*
X66134000Y-113566000D01*
X66134000Y-115570000D01*
X65626000Y-115570000D01*
X65626000Y-113566000D01*
X65081402Y-113566000D01*
X65020906Y-113572505D01*
X64884035Y-113623555D01*
X64884034Y-113623555D01*
X64767095Y-113711095D01*
X64679555Y-113828034D01*
X64679555Y-113828035D01*
X64628505Y-113964906D01*
X64622000Y-114025402D01*
X62377999Y-114025402D01*
X62371494Y-113964906D01*
X62320444Y-113828035D01*
X62320444Y-113828034D01*
X62232904Y-113711095D01*
X62115965Y-113623555D01*
X61979093Y-113572505D01*
X61918597Y-113566000D01*
X61374000Y-113566000D01*
X61374000Y-115570000D01*
X60866000Y-115570000D01*
X60866000Y-113566000D01*
X60321402Y-113566000D01*
X60260906Y-113572505D01*
X60124035Y-113623555D01*
X60124034Y-113623555D01*
X60007095Y-113711095D01*
X59919555Y-113828034D01*
X59919555Y-113828035D01*
X59868505Y-113964906D01*
X59862000Y-114025402D01*
X56977999Y-114025402D01*
X56971494Y-113964906D01*
X56920444Y-113828035D01*
X56920444Y-113828034D01*
X56832904Y-113711095D01*
X56715965Y-113623555D01*
X56579093Y-113572505D01*
X56518597Y-113566000D01*
X55974000Y-113566000D01*
X55974000Y-115570000D01*
X55466000Y-115570000D01*
X55466000Y-113566000D01*
X54921402Y-113566000D01*
X54860906Y-113572505D01*
X54724035Y-113623555D01*
X54724034Y-113623555D01*
X54607095Y-113711095D01*
X54519555Y-113828034D01*
X54519555Y-113828035D01*
X54468505Y-113964906D01*
X54462000Y-114025402D01*
X52217999Y-114025402D01*
X52211494Y-113964906D01*
X52160444Y-113828035D01*
X52160444Y-113828034D01*
X52072904Y-113711095D01*
X51955965Y-113623555D01*
X51819093Y-113572505D01*
X51758597Y-113566000D01*
X51214000Y-113566000D01*
X51214000Y-115570000D01*
X50706000Y-115570000D01*
X50706000Y-113566000D01*
X50161402Y-113566000D01*
X50100906Y-113572505D01*
X49964035Y-113623555D01*
X49964034Y-113623555D01*
X49847095Y-113711095D01*
X49759555Y-113828034D01*
X49759555Y-113828035D01*
X49708505Y-113964906D01*
X49702000Y-114025402D01*
X46817999Y-114025402D01*
X46811494Y-113964906D01*
X46760444Y-113828035D01*
X46760444Y-113828034D01*
X46672904Y-113711095D01*
X46555965Y-113623555D01*
X46419093Y-113572505D01*
X46358597Y-113566000D01*
X45814000Y-113566000D01*
X45814000Y-115570000D01*
X45306000Y-115570000D01*
X45306000Y-113566000D01*
X44761402Y-113566000D01*
X44700906Y-113572505D01*
X44564035Y-113623555D01*
X44564034Y-113623555D01*
X44447095Y-113711095D01*
X44359555Y-113828034D01*
X44359555Y-113828035D01*
X44308505Y-113964906D01*
X44302000Y-114025402D01*
X42057999Y-114025402D01*
X42051494Y-113964906D01*
X42000444Y-113828035D01*
X42000444Y-113828034D01*
X41912904Y-113711095D01*
X41795965Y-113623555D01*
X41659093Y-113572505D01*
X41598597Y-113566000D01*
X41054000Y-113566000D01*
X41054000Y-115570000D01*
X40546000Y-115570000D01*
X40546000Y-113566000D01*
X40001402Y-113566000D01*
X39940906Y-113572505D01*
X39804035Y-113623555D01*
X39804034Y-113623555D01*
X39687095Y-113711095D01*
X39599555Y-113828034D01*
X39599555Y-113828035D01*
X39548505Y-113964906D01*
X39542000Y-114025402D01*
X36657999Y-114025402D01*
X36651494Y-113964906D01*
X36600444Y-113828035D01*
X36600444Y-113828034D01*
X36512904Y-113711095D01*
X36395965Y-113623555D01*
X36259093Y-113572505D01*
X36198597Y-113566000D01*
X35654000Y-113566000D01*
X35654000Y-115570000D01*
X35146000Y-115570000D01*
X35146000Y-113566000D01*
X34601402Y-113566000D01*
X34540906Y-113572505D01*
X34404035Y-113623555D01*
X34404034Y-113623555D01*
X34287095Y-113711095D01*
X34199555Y-113828034D01*
X34199555Y-113828035D01*
X34148505Y-113964906D01*
X34142000Y-114025402D01*
X32587262Y-114025402D01*
X32579590Y-113967133D01*
X32578808Y-113959295D01*
X32573743Y-113885228D01*
X32573742Y-113885222D01*
X32561221Y-113824969D01*
X32559668Y-113815805D01*
X32552423Y-113760769D01*
X32533106Y-113688681D01*
X32531457Y-113681741D01*
X32515055Y-113602804D01*
X32496579Y-113550818D01*
X32493600Y-113541243D01*
X32480886Y-113493792D01*
X32449903Y-113418992D01*
X32447587Y-113412967D01*
X32418463Y-113331018D01*
X32418460Y-113331012D01*
X32418459Y-113331008D01*
X32396011Y-113287687D01*
X32391478Y-113277941D01*
X32375117Y-113238439D01*
X32375111Y-113238428D01*
X32331450Y-113162805D01*
X32328715Y-113157810D01*
X32285753Y-113074897D01*
X32261288Y-113040239D01*
X32255107Y-113030577D01*
X32236915Y-112999067D01*
X32236912Y-112999063D01*
X32179869Y-112924722D01*
X32176913Y-112920706D01*
X32176908Y-112920699D01*
X32119409Y-112839242D01*
X32119407Y-112839239D01*
X32119405Y-112839237D01*
X32094808Y-112812900D01*
X32086938Y-112803612D01*
X32068656Y-112779786D01*
X31997880Y-112709010D01*
X31994919Y-112705946D01*
X31922529Y-112628435D01*
X31922526Y-112628432D01*
X31899510Y-112609707D01*
X31889940Y-112601070D01*
X31873214Y-112584344D01*
X31873212Y-112584343D01*
X31873207Y-112584338D01*
X31788800Y-112519572D01*
X31785985Y-112517348D01*
X31698770Y-112446392D01*
X31678868Y-112434290D01*
X31667635Y-112426599D01*
X31653933Y-112416085D01*
X31653929Y-112416083D01*
X31653927Y-112416081D01*
X31556314Y-112359724D01*
X31553846Y-112358262D01*
X31452314Y-112296519D01*
X31436789Y-112289775D01*
X31424003Y-112283333D01*
X31414567Y-112277886D01*
X31414565Y-112277885D01*
X31414563Y-112277884D01*
X31414554Y-112277879D01*
X31304518Y-112232300D01*
X31302540Y-112231461D01*
X31187755Y-112181604D01*
X31187748Y-112181602D01*
X31187744Y-112181600D01*
X31177581Y-112178752D01*
X31163380Y-112173841D01*
X31159213Y-112172115D01*
X31159210Y-112172114D01*
X31038022Y-112139640D01*
X31036642Y-112139262D01*
X30936274Y-112111141D01*
X30909989Y-112103777D01*
X30905854Y-112103208D01*
X30896290Y-112101278D01*
X30896270Y-112101381D01*
X30892239Y-112100579D01*
X30892231Y-112100577D01*
X30847005Y-112094622D01*
X30761478Y-112083363D01*
X30760768Y-112083267D01*
X30624237Y-112064500D01*
X30624225Y-112064500D01*
X30335775Y-112064500D01*
X30335761Y-112064500D01*
X30199230Y-112083267D01*
X30198520Y-112083363D01*
X30067771Y-112100576D01*
X30063728Y-112101381D01*
X30063707Y-112101278D01*
X30054141Y-112103209D01*
X30050020Y-112103775D01*
X30050004Y-112103778D01*
X29923274Y-112139285D01*
X29921894Y-112139663D01*
X29800803Y-112172109D01*
X29800785Y-112172116D01*
X29796617Y-112173842D01*
X29782422Y-112178750D01*
X29772264Y-112181597D01*
X29772254Y-112181600D01*
X29657430Y-112231474D01*
X29655452Y-112232313D01*
X29545445Y-112277880D01*
X29545424Y-112277890D01*
X29535988Y-112283337D01*
X29523209Y-112289775D01*
X29507682Y-112296520D01*
X29406170Y-112358251D01*
X29403704Y-112359712D01*
X29306084Y-112416073D01*
X29306063Y-112416088D01*
X29292365Y-112426598D01*
X29281139Y-112434285D01*
X29261226Y-112446395D01*
X29174025Y-112517338D01*
X29171213Y-112519560D01*
X29086785Y-112584344D01*
X29070058Y-112601071D01*
X29060485Y-112609710D01*
X29037476Y-112628429D01*
X28965092Y-112705932D01*
X28962105Y-112709023D01*
X28891343Y-112779786D01*
X28873052Y-112803621D01*
X28865183Y-112812909D01*
X28840594Y-112839238D01*
X28840590Y-112839243D01*
X28783090Y-112920699D01*
X28780118Y-112924736D01*
X28723087Y-112999063D01*
X28704893Y-113030576D01*
X28698714Y-113040233D01*
X28674248Y-113074893D01*
X28674247Y-113074895D01*
X28631301Y-113157776D01*
X28628548Y-113162805D01*
X28584891Y-113238422D01*
X28584882Y-113238440D01*
X28568518Y-113277945D01*
X28563986Y-113287688D01*
X28541542Y-113331004D01*
X28541539Y-113331010D01*
X28512406Y-113412982D01*
X28510092Y-113419002D01*
X28479113Y-113493792D01*
X28479110Y-113493803D01*
X28466397Y-113541247D01*
X28463416Y-113550827D01*
X28444945Y-113602799D01*
X28444945Y-113602800D01*
X28428540Y-113681741D01*
X28426883Y-113688712D01*
X28407578Y-113760764D01*
X28407575Y-113760777D01*
X28400331Y-113815800D01*
X28398774Y-113824984D01*
X28386260Y-113885210D01*
X28386257Y-113885228D01*
X28381190Y-113959302D01*
X28380406Y-113967146D01*
X28371500Y-114034795D01*
X28371500Y-114096669D01*
X28371206Y-114105268D01*
X28366573Y-114172997D01*
X27405500Y-114172997D01*
X27405500Y-92984000D01*
X27425502Y-92915879D01*
X27479158Y-92869386D01*
X27531500Y-92858000D01*
X28448000Y-92858000D01*
X28956000Y-92858000D01*
X30500585Y-92858000D01*
X30500597Y-92857999D01*
X30561093Y-92851494D01*
X30697964Y-92800444D01*
X30697965Y-92800444D01*
X30814904Y-92712904D01*
X30902444Y-92595965D01*
X30902444Y-92595964D01*
X30953494Y-92459093D01*
X30959999Y-92398597D01*
X30960000Y-92398585D01*
X30960000Y-92075000D01*
X70841496Y-92075000D01*
X70861457Y-92264927D01*
X70891526Y-92357470D01*
X70920473Y-92446556D01*
X70920476Y-92446561D01*
X71009619Y-92600961D01*
X71026500Y-92663961D01*
X71026500Y-98471037D01*
X71009619Y-98534037D01*
X70920476Y-98688438D01*
X70920473Y-98688445D01*
X70861457Y-98870072D01*
X70841496Y-99060000D01*
X70861457Y-99249927D01*
X70891526Y-99342470D01*
X70920473Y-99431556D01*
X70920476Y-99431561D01*
X71015958Y-99596941D01*
X71015965Y-99596951D01*
X71143744Y-99738864D01*
X71143747Y-99738866D01*
X71298248Y-99851118D01*
X71472712Y-99928794D01*
X71659513Y-99968500D01*
X71850487Y-99968500D01*
X72037288Y-99928794D01*
X72211752Y-99851118D01*
X72366253Y-99738866D01*
X72494040Y-99596944D01*
X72589527Y-99431556D01*
X72648542Y-99249928D01*
X72668504Y-99060000D01*
X72648542Y-98870072D01*
X72589527Y-98688444D01*
X72560389Y-98637977D01*
X72500381Y-98534037D01*
X72483500Y-98471037D01*
X72483500Y-92663961D01*
X72500381Y-92600961D01*
X72503266Y-92595964D01*
X72589527Y-92446556D01*
X72648542Y-92264928D01*
X72668504Y-92075000D01*
X72648542Y-91885072D01*
X72589527Y-91703444D01*
X72494040Y-91538056D01*
X72494038Y-91538054D01*
X72494034Y-91538048D01*
X72366255Y-91396135D01*
X72211752Y-91283882D01*
X72037288Y-91206206D01*
X71850487Y-91166500D01*
X71659513Y-91166500D01*
X71472711Y-91206206D01*
X71298247Y-91283882D01*
X71143744Y-91396135D01*
X71015965Y-91538048D01*
X71015958Y-91538058D01*
X70920476Y-91703438D01*
X70920473Y-91703445D01*
X70861457Y-91885072D01*
X70841496Y-92075000D01*
X30960000Y-92075000D01*
X30960000Y-91854000D01*
X28956000Y-91854000D01*
X28956000Y-92858000D01*
X28448000Y-92858000D01*
X28448000Y-91346000D01*
X28956000Y-91346000D01*
X30960000Y-91346000D01*
X30960000Y-90801414D01*
X30959999Y-90801402D01*
X30953494Y-90740906D01*
X30902444Y-90604035D01*
X30902444Y-90604034D01*
X30814904Y-90487095D01*
X30697965Y-90399555D01*
X30561093Y-90348505D01*
X30500597Y-90342000D01*
X28956000Y-90342000D01*
X28956000Y-91346000D01*
X28448000Y-91346000D01*
X28448000Y-90342000D01*
X27531500Y-90342000D01*
X27463379Y-90321998D01*
X27416886Y-90268342D01*
X27405500Y-90216000D01*
X27405500Y-88921350D01*
X45681500Y-88921350D01*
X45681500Y-91418649D01*
X45688009Y-91479196D01*
X45688011Y-91479204D01*
X45739110Y-91616202D01*
X45739112Y-91616207D01*
X45826738Y-91733261D01*
X45943792Y-91820887D01*
X45943794Y-91820888D01*
X45943796Y-91820889D01*
X46002875Y-91842924D01*
X46080795Y-91871988D01*
X46080803Y-91871990D01*
X46141350Y-91878499D01*
X46141355Y-91878499D01*
X46141362Y-91878500D01*
X46141368Y-91878500D01*
X47838632Y-91878500D01*
X47838638Y-91878500D01*
X47838645Y-91878499D01*
X47838649Y-91878499D01*
X47899196Y-91871990D01*
X47899199Y-91871989D01*
X47899201Y-91871989D01*
X48036204Y-91820889D01*
X48087923Y-91782173D01*
X48153261Y-91733261D01*
X48240887Y-91616207D01*
X48240887Y-91616206D01*
X48240889Y-91616204D01*
X48291989Y-91479201D01*
X48293272Y-91467271D01*
X48320439Y-91401678D01*
X48378756Y-91361186D01*
X48449708Y-91358650D01*
X48510767Y-91394876D01*
X48520480Y-91406668D01*
X48531932Y-91422430D01*
X48531934Y-91422432D01*
X48531937Y-91422436D01*
X48677564Y-91568063D01*
X48677567Y-91568065D01*
X48677570Y-91568068D01*
X48844197Y-91689129D01*
X49027710Y-91782634D01*
X49223592Y-91846280D01*
X49427019Y-91878500D01*
X49427022Y-91878500D01*
X49632978Y-91878500D01*
X49632981Y-91878500D01*
X49836408Y-91846280D01*
X50032290Y-91782634D01*
X50215803Y-91689129D01*
X50382430Y-91568068D01*
X50528068Y-91422430D01*
X50649129Y-91255803D01*
X50687734Y-91180034D01*
X50736481Y-91128422D01*
X50805396Y-91111356D01*
X50872598Y-91134257D01*
X50912264Y-91180034D01*
X50950871Y-91255803D01*
X51071932Y-91422430D01*
X51071934Y-91422432D01*
X51071936Y-91422435D01*
X51217564Y-91568063D01*
X51217567Y-91568065D01*
X51217570Y-91568068D01*
X51384197Y-91689129D01*
X51567710Y-91782634D01*
X51763592Y-91846280D01*
X51967019Y-91878500D01*
X51967022Y-91878500D01*
X52172978Y-91878500D01*
X52172981Y-91878500D01*
X52376408Y-91846280D01*
X52572290Y-91782634D01*
X52755803Y-91689129D01*
X52922430Y-91568068D01*
X53068068Y-91422430D01*
X53189129Y-91255803D01*
X53227734Y-91180034D01*
X53276481Y-91128422D01*
X53345396Y-91111356D01*
X53412598Y-91134257D01*
X53452264Y-91180034D01*
X53490871Y-91255803D01*
X53611932Y-91422430D01*
X53611934Y-91422432D01*
X53611936Y-91422435D01*
X53757564Y-91568063D01*
X53757567Y-91568065D01*
X53757570Y-91568068D01*
X53924197Y-91689129D01*
X54107710Y-91782634D01*
X54303592Y-91846280D01*
X54507019Y-91878500D01*
X54507022Y-91878500D01*
X54712978Y-91878500D01*
X54712981Y-91878500D01*
X54916408Y-91846280D01*
X55112290Y-91782634D01*
X55295803Y-91689129D01*
X55462430Y-91568068D01*
X55608068Y-91422430D01*
X55729129Y-91255803D01*
X55767734Y-91180034D01*
X55816481Y-91128422D01*
X55885396Y-91111356D01*
X55952598Y-91134257D01*
X55992264Y-91180034D01*
X56030871Y-91255803D01*
X56151932Y-91422430D01*
X56151934Y-91422432D01*
X56151936Y-91422435D01*
X56297564Y-91568063D01*
X56297567Y-91568065D01*
X56297570Y-91568068D01*
X56464197Y-91689129D01*
X56647710Y-91782634D01*
X56843592Y-91846280D01*
X57047019Y-91878500D01*
X57047022Y-91878500D01*
X57252978Y-91878500D01*
X57252981Y-91878500D01*
X57456408Y-91846280D01*
X57652290Y-91782634D01*
X57835803Y-91689129D01*
X58002430Y-91568068D01*
X58148068Y-91422430D01*
X58269129Y-91255803D01*
X58308014Y-91179486D01*
X58356759Y-91127874D01*
X58425674Y-91110807D01*
X58492876Y-91133707D01*
X58532545Y-91179487D01*
X58571298Y-91255542D01*
X58692315Y-91422107D01*
X58692317Y-91422110D01*
X58837889Y-91567682D01*
X58837892Y-91567684D01*
X59004454Y-91688699D01*
X59187900Y-91782170D01*
X59187906Y-91782173D01*
X59383705Y-91845791D01*
X59383717Y-91845794D01*
X59435999Y-91854074D01*
X59436000Y-91854074D01*
X59436000Y-90481686D01*
X59444394Y-90490080D01*
X59535606Y-90542741D01*
X59637339Y-90570000D01*
X59742661Y-90570000D01*
X59844394Y-90542741D01*
X59935606Y-90490080D01*
X59944000Y-90481686D01*
X59944000Y-91854074D01*
X59996282Y-91845794D01*
X59996294Y-91845791D01*
X60192093Y-91782173D01*
X60192099Y-91782170D01*
X60375545Y-91688699D01*
X60542107Y-91567684D01*
X60542110Y-91567682D01*
X60687682Y-91422110D01*
X60687684Y-91422107D01*
X60808699Y-91255545D01*
X60847733Y-91178938D01*
X60896481Y-91127323D01*
X60965396Y-91110257D01*
X61032598Y-91133158D01*
X61072267Y-91178938D01*
X61111300Y-91255545D01*
X61232315Y-91422107D01*
X61232317Y-91422110D01*
X61377889Y-91567682D01*
X61377892Y-91567684D01*
X61544454Y-91688699D01*
X61727900Y-91782170D01*
X61727906Y-91782173D01*
X61923705Y-91845791D01*
X61923717Y-91845794D01*
X61976000Y-91854074D01*
X61976000Y-90481686D01*
X61984394Y-90490080D01*
X62075606Y-90542741D01*
X62177339Y-90570000D01*
X62282661Y-90570000D01*
X62384394Y-90542741D01*
X62475606Y-90490080D01*
X62484000Y-90481686D01*
X62484000Y-91854074D01*
X62536282Y-91845794D01*
X62536294Y-91845791D01*
X62732093Y-91782173D01*
X62732099Y-91782170D01*
X62915545Y-91688699D01*
X63082107Y-91567684D01*
X63082110Y-91567682D01*
X63227682Y-91422110D01*
X63227684Y-91422107D01*
X63348699Y-91255545D01*
X63387733Y-91178938D01*
X63436481Y-91127323D01*
X63505396Y-91110257D01*
X63572598Y-91133158D01*
X63612267Y-91178938D01*
X63651300Y-91255545D01*
X63772315Y-91422107D01*
X63772317Y-91422110D01*
X63917889Y-91567682D01*
X63917892Y-91567684D01*
X64084454Y-91688699D01*
X64267900Y-91782170D01*
X64267906Y-91782173D01*
X64463705Y-91845791D01*
X64463717Y-91845794D01*
X64515999Y-91854074D01*
X64516000Y-91854074D01*
X64516000Y-90481686D01*
X64524394Y-90490080D01*
X64615606Y-90542741D01*
X64717339Y-90570000D01*
X64822661Y-90570000D01*
X64924394Y-90542741D01*
X65015606Y-90490080D01*
X65024000Y-90481686D01*
X65024000Y-91854074D01*
X65076282Y-91845794D01*
X65076294Y-91845791D01*
X65272093Y-91782173D01*
X65272099Y-91782170D01*
X65455545Y-91688699D01*
X65622107Y-91567684D01*
X65622110Y-91567682D01*
X65767682Y-91422110D01*
X65767684Y-91422107D01*
X65888699Y-91255545D01*
X65982170Y-91072099D01*
X65982173Y-91072093D01*
X66045791Y-90876296D01*
X66078000Y-90672938D01*
X66078000Y-90424000D01*
X65081686Y-90424000D01*
X65090080Y-90415606D01*
X65142741Y-90324394D01*
X65170000Y-90222661D01*
X65170000Y-90117339D01*
X65142741Y-90015606D01*
X65090080Y-89924394D01*
X65081686Y-89916000D01*
X66078000Y-89916000D01*
X66078000Y-89667061D01*
X66045791Y-89463703D01*
X65982173Y-89267906D01*
X65982170Y-89267900D01*
X65888699Y-89084454D01*
X65767684Y-88917892D01*
X65767682Y-88917889D01*
X65622110Y-88772317D01*
X65622107Y-88772315D01*
X65455545Y-88651300D01*
X65272099Y-88557829D01*
X65272093Y-88557826D01*
X65076294Y-88494208D01*
X65076296Y-88494208D01*
X65024000Y-88485925D01*
X65024000Y-89858314D01*
X65015606Y-89849920D01*
X64924394Y-89797259D01*
X64822661Y-89770000D01*
X64717339Y-89770000D01*
X64615606Y-89797259D01*
X64524394Y-89849920D01*
X64516000Y-89858314D01*
X64516000Y-88485925D01*
X64463704Y-88494208D01*
X64267906Y-88557826D01*
X64267900Y-88557829D01*
X64084454Y-88651300D01*
X63917892Y-88772315D01*
X63917889Y-88772317D01*
X63772317Y-88917889D01*
X63772315Y-88917892D01*
X63651300Y-89084454D01*
X63612267Y-89161061D01*
X63563518Y-89212676D01*
X63494603Y-89229742D01*
X63427402Y-89206841D01*
X63387733Y-89161061D01*
X63348699Y-89084454D01*
X63227684Y-88917892D01*
X63227682Y-88917889D01*
X63082110Y-88772317D01*
X63082107Y-88772315D01*
X62915545Y-88651300D01*
X62732099Y-88557829D01*
X62732093Y-88557826D01*
X62536294Y-88494208D01*
X62536296Y-88494208D01*
X62484000Y-88485925D01*
X62484000Y-89858314D01*
X62475606Y-89849920D01*
X62384394Y-89797259D01*
X62282661Y-89770000D01*
X62177339Y-89770000D01*
X62075606Y-89797259D01*
X61984394Y-89849920D01*
X61976000Y-89858314D01*
X61976000Y-88485925D01*
X61923704Y-88494208D01*
X61727906Y-88557826D01*
X61727900Y-88557829D01*
X61544454Y-88651300D01*
X61377892Y-88772315D01*
X61377889Y-88772317D01*
X61232317Y-88917889D01*
X61232315Y-88917892D01*
X61111300Y-89084454D01*
X61072267Y-89161061D01*
X61023518Y-89212676D01*
X60954603Y-89229742D01*
X60887402Y-89206841D01*
X60847733Y-89161061D01*
X60808699Y-89084454D01*
X60687684Y-88917892D01*
X60687682Y-88917889D01*
X60542110Y-88772317D01*
X60542107Y-88772315D01*
X60375545Y-88651300D01*
X60192099Y-88557829D01*
X60192093Y-88557826D01*
X59996294Y-88494208D01*
X59996296Y-88494208D01*
X59944000Y-88485925D01*
X59944000Y-89858314D01*
X59935606Y-89849920D01*
X59844394Y-89797259D01*
X59742661Y-89770000D01*
X59637339Y-89770000D01*
X59535606Y-89797259D01*
X59444394Y-89849920D01*
X59436000Y-89858314D01*
X59436000Y-88485925D01*
X59383704Y-88494208D01*
X59187906Y-88557826D01*
X59187900Y-88557829D01*
X59004454Y-88651300D01*
X58837892Y-88772315D01*
X58837889Y-88772317D01*
X58692317Y-88917889D01*
X58692315Y-88917892D01*
X58571299Y-89084455D01*
X58532545Y-89160513D01*
X58483796Y-89212127D01*
X58414881Y-89229192D01*
X58347680Y-89206290D01*
X58308013Y-89160511D01*
X58269129Y-89084197D01*
X58148068Y-88917570D01*
X58148065Y-88917567D01*
X58148063Y-88917564D01*
X58002435Y-88771936D01*
X58002432Y-88771934D01*
X58002430Y-88771932D01*
X57876999Y-88680802D01*
X57835806Y-88650873D01*
X57835805Y-88650872D01*
X57835803Y-88650871D01*
X57652290Y-88557366D01*
X57652287Y-88557365D01*
X57652285Y-88557364D01*
X57456412Y-88493721D01*
X57456410Y-88493720D01*
X57456408Y-88493720D01*
X57252981Y-88461500D01*
X57047019Y-88461500D01*
X56843592Y-88493720D01*
X56843590Y-88493720D01*
X56843587Y-88493721D01*
X56647714Y-88557364D01*
X56647708Y-88557367D01*
X56464193Y-88650873D01*
X56297567Y-88771934D01*
X56297564Y-88771936D01*
X56151936Y-88917564D01*
X56151934Y-88917567D01*
X56030873Y-89084193D01*
X55992267Y-89159962D01*
X55943518Y-89211577D01*
X55874603Y-89228643D01*
X55807402Y-89205742D01*
X55767733Y-89159962D01*
X55729129Y-89084197D01*
X55608068Y-88917570D01*
X55608065Y-88917567D01*
X55608063Y-88917564D01*
X55462435Y-88771936D01*
X55462432Y-88771934D01*
X55462430Y-88771932D01*
X55336999Y-88680802D01*
X55295806Y-88650873D01*
X55295805Y-88650872D01*
X55295803Y-88650871D01*
X55112290Y-88557366D01*
X55112287Y-88557365D01*
X55112285Y-88557364D01*
X54916412Y-88493721D01*
X54916410Y-88493720D01*
X54916408Y-88493720D01*
X54712981Y-88461500D01*
X54507019Y-88461500D01*
X54303592Y-88493720D01*
X54303590Y-88493720D01*
X54303587Y-88493721D01*
X54107714Y-88557364D01*
X54107708Y-88557367D01*
X53924193Y-88650873D01*
X53757567Y-88771934D01*
X53757564Y-88771936D01*
X53611936Y-88917564D01*
X53611934Y-88917567D01*
X53490873Y-89084193D01*
X53452267Y-89159962D01*
X53403518Y-89211577D01*
X53334603Y-89228643D01*
X53267402Y-89205742D01*
X53227733Y-89159962D01*
X53189129Y-89084197D01*
X53068068Y-88917570D01*
X53068065Y-88917567D01*
X53068063Y-88917564D01*
X52922435Y-88771936D01*
X52922432Y-88771934D01*
X52922430Y-88771932D01*
X52796999Y-88680802D01*
X52755806Y-88650873D01*
X52755805Y-88650872D01*
X52755803Y-88650871D01*
X52572290Y-88557366D01*
X52572287Y-88557365D01*
X52572285Y-88557364D01*
X52376412Y-88493721D01*
X52376410Y-88493720D01*
X52376408Y-88493720D01*
X52172981Y-88461500D01*
X51967019Y-88461500D01*
X51763592Y-88493720D01*
X51763590Y-88493720D01*
X51763587Y-88493721D01*
X51567714Y-88557364D01*
X51567708Y-88557367D01*
X51384193Y-88650873D01*
X51217567Y-88771934D01*
X51217564Y-88771936D01*
X51071936Y-88917564D01*
X51071934Y-88917567D01*
X50950873Y-89084193D01*
X50912267Y-89159962D01*
X50863518Y-89211577D01*
X50794603Y-89228643D01*
X50727402Y-89205742D01*
X50687733Y-89159962D01*
X50649129Y-89084197D01*
X50528068Y-88917570D01*
X50528065Y-88917567D01*
X50528063Y-88917564D01*
X50382435Y-88771936D01*
X50382432Y-88771934D01*
X50382430Y-88771932D01*
X50256999Y-88680802D01*
X50215806Y-88650873D01*
X50215805Y-88650872D01*
X50215803Y-88650871D01*
X50032290Y-88557366D01*
X50032287Y-88557365D01*
X50032285Y-88557364D01*
X49836412Y-88493721D01*
X49836410Y-88493720D01*
X49836408Y-88493720D01*
X49632981Y-88461500D01*
X49427019Y-88461500D01*
X49223592Y-88493720D01*
X49223590Y-88493720D01*
X49223587Y-88493721D01*
X49027714Y-88557364D01*
X49027708Y-88557367D01*
X48844193Y-88650873D01*
X48677567Y-88771934D01*
X48677564Y-88771936D01*
X48531933Y-88917567D01*
X48520484Y-88933326D01*
X48464260Y-88976678D01*
X48393524Y-88982752D01*
X48330733Y-88949618D01*
X48295824Y-88887797D01*
X48293272Y-88872728D01*
X48291990Y-88860804D01*
X48291988Y-88860795D01*
X48240889Y-88723797D01*
X48240887Y-88723792D01*
X48153261Y-88606738D01*
X48036207Y-88519112D01*
X48036202Y-88519110D01*
X47899204Y-88468011D01*
X47899196Y-88468009D01*
X47838649Y-88461500D01*
X47838638Y-88461500D01*
X46141362Y-88461500D01*
X46141350Y-88461500D01*
X46080803Y-88468009D01*
X46080795Y-88468011D01*
X45943797Y-88519110D01*
X45943792Y-88519112D01*
X45826738Y-88606738D01*
X45739112Y-88723792D01*
X45739110Y-88723797D01*
X45688011Y-88860795D01*
X45688009Y-88860803D01*
X45681500Y-88921350D01*
X27405500Y-88921350D01*
X27405500Y-87584000D01*
X27425502Y-87515879D01*
X27479158Y-87469386D01*
X27531500Y-87458000D01*
X28448000Y-87458000D01*
X28956000Y-87458000D01*
X30500585Y-87458000D01*
X30500597Y-87457999D01*
X30561093Y-87451494D01*
X30697964Y-87400444D01*
X30697965Y-87400444D01*
X30814904Y-87312904D01*
X30902444Y-87195965D01*
X30902444Y-87195964D01*
X30953494Y-87059093D01*
X30959999Y-86998597D01*
X30960000Y-86998585D01*
X30960000Y-86454000D01*
X28956000Y-86454000D01*
X28956000Y-87458000D01*
X28448000Y-87458000D01*
X28448000Y-85946000D01*
X28956000Y-85946000D01*
X30960000Y-85946000D01*
X30960000Y-85401414D01*
X30959999Y-85401402D01*
X30953494Y-85340906D01*
X30902444Y-85204035D01*
X30902444Y-85204034D01*
X30814904Y-85087095D01*
X30697965Y-84999555D01*
X30561093Y-84948505D01*
X30500597Y-84942000D01*
X28956000Y-84942000D01*
X28956000Y-85946000D01*
X28448000Y-85946000D01*
X28448000Y-84942000D01*
X27531500Y-84942000D01*
X27463379Y-84921998D01*
X27416886Y-84868342D01*
X27405500Y-84816000D01*
X27405500Y-82047019D01*
X45681500Y-82047019D01*
X45681500Y-83052981D01*
X45713720Y-83256408D01*
X45713721Y-83256412D01*
X45719999Y-83275735D01*
X45777366Y-83452290D01*
X45870871Y-83635803D01*
X45991932Y-83802430D01*
X45991934Y-83802432D01*
X45991936Y-83802435D01*
X46137564Y-83948063D01*
X46137567Y-83948065D01*
X46137570Y-83948068D01*
X46304197Y-84069129D01*
X46487710Y-84162634D01*
X46683592Y-84226280D01*
X46887019Y-84258500D01*
X46887022Y-84258500D01*
X47092978Y-84258500D01*
X47092981Y-84258500D01*
X47296408Y-84226280D01*
X47492290Y-84162634D01*
X47675803Y-84069129D01*
X47842430Y-83948068D01*
X47988068Y-83802430D01*
X48109129Y-83635803D01*
X48147734Y-83560034D01*
X48196481Y-83508422D01*
X48265396Y-83491356D01*
X48332598Y-83514257D01*
X48372264Y-83560034D01*
X48410871Y-83635803D01*
X48531932Y-83802430D01*
X48531934Y-83802432D01*
X48531936Y-83802435D01*
X48677564Y-83948063D01*
X48677567Y-83948065D01*
X48677570Y-83948068D01*
X48844197Y-84069129D01*
X49027710Y-84162634D01*
X49223592Y-84226280D01*
X49427019Y-84258500D01*
X49427022Y-84258500D01*
X49632978Y-84258500D01*
X49632981Y-84258500D01*
X49836408Y-84226280D01*
X50032290Y-84162634D01*
X50215803Y-84069129D01*
X50382430Y-83948068D01*
X50528068Y-83802430D01*
X50649129Y-83635803D01*
X50687734Y-83560034D01*
X50736481Y-83508422D01*
X50805396Y-83491356D01*
X50872598Y-83514257D01*
X50912264Y-83560034D01*
X50950871Y-83635803D01*
X51071932Y-83802430D01*
X51071934Y-83802432D01*
X51071936Y-83802435D01*
X51217564Y-83948063D01*
X51217567Y-83948065D01*
X51217570Y-83948068D01*
X51384197Y-84069129D01*
X51567710Y-84162634D01*
X51763592Y-84226280D01*
X51967019Y-84258500D01*
X51967022Y-84258500D01*
X52172978Y-84258500D01*
X52172981Y-84258500D01*
X52376408Y-84226280D01*
X52572290Y-84162634D01*
X52755803Y-84069129D01*
X52922430Y-83948068D01*
X53068068Y-83802430D01*
X53189129Y-83635803D01*
X53227734Y-83560034D01*
X53276481Y-83508422D01*
X53345396Y-83491356D01*
X53412598Y-83514257D01*
X53452264Y-83560034D01*
X53490871Y-83635803D01*
X53611932Y-83802430D01*
X53611934Y-83802432D01*
X53611936Y-83802435D01*
X53757564Y-83948063D01*
X53757567Y-83948065D01*
X53757570Y-83948068D01*
X53924197Y-84069129D01*
X54107710Y-84162634D01*
X54303592Y-84226280D01*
X54507019Y-84258500D01*
X54507022Y-84258500D01*
X54712978Y-84258500D01*
X54712981Y-84258500D01*
X54916408Y-84226280D01*
X55112290Y-84162634D01*
X55295803Y-84069129D01*
X55462430Y-83948068D01*
X55608068Y-83802430D01*
X55729129Y-83635803D01*
X55767734Y-83560034D01*
X55816481Y-83508422D01*
X55885396Y-83491356D01*
X55952598Y-83514257D01*
X55992264Y-83560034D01*
X56030871Y-83635803D01*
X56151932Y-83802430D01*
X56151934Y-83802432D01*
X56151936Y-83802435D01*
X56297564Y-83948063D01*
X56297567Y-83948065D01*
X56297570Y-83948068D01*
X56464197Y-84069129D01*
X56647710Y-84162634D01*
X56843592Y-84226280D01*
X57047019Y-84258500D01*
X57047022Y-84258500D01*
X57252978Y-84258500D01*
X57252981Y-84258500D01*
X57456408Y-84226280D01*
X57652290Y-84162634D01*
X57835803Y-84069129D01*
X58002430Y-83948068D01*
X58148068Y-83802430D01*
X58269129Y-83635803D01*
X58307734Y-83560034D01*
X58356481Y-83508422D01*
X58425396Y-83491356D01*
X58492598Y-83514257D01*
X58532264Y-83560034D01*
X58570871Y-83635803D01*
X58691932Y-83802430D01*
X58691934Y-83802432D01*
X58691936Y-83802435D01*
X58837564Y-83948063D01*
X58837567Y-83948065D01*
X58837570Y-83948068D01*
X59004197Y-84069129D01*
X59187710Y-84162634D01*
X59383592Y-84226280D01*
X59587019Y-84258500D01*
X59587022Y-84258500D01*
X59792978Y-84258500D01*
X59792981Y-84258500D01*
X59996408Y-84226280D01*
X60192290Y-84162634D01*
X60375803Y-84069129D01*
X60542430Y-83948068D01*
X60688068Y-83802430D01*
X60809129Y-83635803D01*
X60847734Y-83560034D01*
X60896481Y-83508422D01*
X60965396Y-83491356D01*
X61032598Y-83514257D01*
X61072264Y-83560034D01*
X61110871Y-83635803D01*
X61231932Y-83802430D01*
X61231934Y-83802432D01*
X61231936Y-83802435D01*
X61377564Y-83948063D01*
X61377567Y-83948065D01*
X61377570Y-83948068D01*
X61544197Y-84069129D01*
X61727710Y-84162634D01*
X61923592Y-84226280D01*
X62127019Y-84258500D01*
X62127022Y-84258500D01*
X62332978Y-84258500D01*
X62332981Y-84258500D01*
X62536408Y-84226280D01*
X62732290Y-84162634D01*
X62915803Y-84069129D01*
X63082430Y-83948068D01*
X63228068Y-83802430D01*
X63349129Y-83635803D01*
X63387734Y-83560034D01*
X63436481Y-83508422D01*
X63505396Y-83491356D01*
X63572598Y-83514257D01*
X63612264Y-83560034D01*
X63650871Y-83635803D01*
X63771932Y-83802430D01*
X63771934Y-83802432D01*
X63771936Y-83802435D01*
X63917564Y-83948063D01*
X63917567Y-83948065D01*
X63917570Y-83948068D01*
X64084197Y-84069129D01*
X64267710Y-84162634D01*
X64463592Y-84226280D01*
X64667019Y-84258500D01*
X64667022Y-84258500D01*
X64872978Y-84258500D01*
X64872981Y-84258500D01*
X65076408Y-84226280D01*
X65272290Y-84162634D01*
X65455803Y-84069129D01*
X65622430Y-83948068D01*
X65768068Y-83802430D01*
X65889129Y-83635803D01*
X65982634Y-83452290D01*
X66046280Y-83256408D01*
X66078500Y-83052981D01*
X66078500Y-82047019D01*
X66046280Y-81843592D01*
X65982634Y-81647710D01*
X65889129Y-81464197D01*
X65768068Y-81297570D01*
X65768065Y-81297567D01*
X65768063Y-81297564D01*
X65622435Y-81151936D01*
X65622432Y-81151934D01*
X65622430Y-81151932D01*
X65455803Y-81030871D01*
X65272290Y-80937366D01*
X65272287Y-80937365D01*
X65272285Y-80937364D01*
X65076412Y-80873721D01*
X65076410Y-80873720D01*
X65076408Y-80873720D01*
X64872981Y-80841500D01*
X64667019Y-80841500D01*
X64463592Y-80873720D01*
X64463590Y-80873720D01*
X64463587Y-80873721D01*
X64267714Y-80937364D01*
X64267708Y-80937367D01*
X64084193Y-81030873D01*
X63917567Y-81151934D01*
X63917564Y-81151936D01*
X63771936Y-81297564D01*
X63771934Y-81297567D01*
X63650873Y-81464193D01*
X63612267Y-81539962D01*
X63563518Y-81591577D01*
X63494603Y-81608643D01*
X63427402Y-81585742D01*
X63387733Y-81539962D01*
X63349129Y-81464197D01*
X63228068Y-81297570D01*
X63228065Y-81297567D01*
X63228063Y-81297564D01*
X63082435Y-81151936D01*
X63082432Y-81151934D01*
X63082430Y-81151932D01*
X62915803Y-81030871D01*
X62732290Y-80937366D01*
X62732287Y-80937365D01*
X62732285Y-80937364D01*
X62536412Y-80873721D01*
X62536410Y-80873720D01*
X62536408Y-80873720D01*
X62332981Y-80841500D01*
X62127019Y-80841500D01*
X61923592Y-80873720D01*
X61923590Y-80873720D01*
X61923587Y-80873721D01*
X61727714Y-80937364D01*
X61727708Y-80937367D01*
X61544193Y-81030873D01*
X61377567Y-81151934D01*
X61377564Y-81151936D01*
X61231936Y-81297564D01*
X61231934Y-81297567D01*
X61110873Y-81464193D01*
X61072267Y-81539962D01*
X61023518Y-81591577D01*
X60954603Y-81608643D01*
X60887402Y-81585742D01*
X60847733Y-81539962D01*
X60809129Y-81464197D01*
X60688068Y-81297570D01*
X60688065Y-81297567D01*
X60688063Y-81297564D01*
X60542435Y-81151936D01*
X60542432Y-81151934D01*
X60542430Y-81151932D01*
X60375803Y-81030871D01*
X60192290Y-80937366D01*
X60192287Y-80937365D01*
X60192285Y-80937364D01*
X59996412Y-80873721D01*
X59996410Y-80873720D01*
X59996408Y-80873720D01*
X59792981Y-80841500D01*
X59587019Y-80841500D01*
X59383592Y-80873720D01*
X59383590Y-80873720D01*
X59383587Y-80873721D01*
X59187714Y-80937364D01*
X59187708Y-80937367D01*
X59004193Y-81030873D01*
X58837567Y-81151934D01*
X58837564Y-81151936D01*
X58691936Y-81297564D01*
X58691934Y-81297567D01*
X58570873Y-81464193D01*
X58532267Y-81539962D01*
X58483518Y-81591577D01*
X58414603Y-81608643D01*
X58347402Y-81585742D01*
X58307733Y-81539962D01*
X58269129Y-81464197D01*
X58148068Y-81297570D01*
X58148065Y-81297567D01*
X58148063Y-81297564D01*
X58002435Y-81151936D01*
X58002432Y-81151934D01*
X58002430Y-81151932D01*
X57835803Y-81030871D01*
X57652290Y-80937366D01*
X57652287Y-80937365D01*
X57652285Y-80937364D01*
X57456412Y-80873721D01*
X57456410Y-80873720D01*
X57456408Y-80873720D01*
X57252981Y-80841500D01*
X57047019Y-80841500D01*
X56843592Y-80873720D01*
X56843590Y-80873720D01*
X56843587Y-80873721D01*
X56647714Y-80937364D01*
X56647708Y-80937367D01*
X56464193Y-81030873D01*
X56297567Y-81151934D01*
X56297564Y-81151936D01*
X56151936Y-81297564D01*
X56151934Y-81297567D01*
X56030873Y-81464193D01*
X55992267Y-81539962D01*
X55943518Y-81591577D01*
X55874603Y-81608643D01*
X55807402Y-81585742D01*
X55767733Y-81539962D01*
X55729129Y-81464197D01*
X55608068Y-81297570D01*
X55608065Y-81297567D01*
X55608063Y-81297564D01*
X55462435Y-81151936D01*
X55462432Y-81151934D01*
X55462430Y-81151932D01*
X55295803Y-81030871D01*
X55112290Y-80937366D01*
X55112287Y-80937365D01*
X55112285Y-80937364D01*
X54916412Y-80873721D01*
X54916410Y-80873720D01*
X54916408Y-80873720D01*
X54712981Y-80841500D01*
X54507019Y-80841500D01*
X54303592Y-80873720D01*
X54303590Y-80873720D01*
X54303587Y-80873721D01*
X54107714Y-80937364D01*
X54107708Y-80937367D01*
X53924193Y-81030873D01*
X53757567Y-81151934D01*
X53757564Y-81151936D01*
X53611936Y-81297564D01*
X53611934Y-81297567D01*
X53490873Y-81464193D01*
X53452267Y-81539962D01*
X53403518Y-81591577D01*
X53334603Y-81608643D01*
X53267402Y-81585742D01*
X53227733Y-81539962D01*
X53189129Y-81464197D01*
X53068068Y-81297570D01*
X53068065Y-81297567D01*
X53068063Y-81297564D01*
X52922435Y-81151936D01*
X52922432Y-81151934D01*
X52922430Y-81151932D01*
X52755803Y-81030871D01*
X52572290Y-80937366D01*
X52572287Y-80937365D01*
X52572285Y-80937364D01*
X52376412Y-80873721D01*
X52376410Y-80873720D01*
X52376408Y-80873720D01*
X52172981Y-80841500D01*
X51967019Y-80841500D01*
X51763592Y-80873720D01*
X51763590Y-80873720D01*
X51763587Y-80873721D01*
X51567714Y-80937364D01*
X51567708Y-80937367D01*
X51384193Y-81030873D01*
X51217567Y-81151934D01*
X51217564Y-81151936D01*
X51071936Y-81297564D01*
X51071934Y-81297567D01*
X50950873Y-81464193D01*
X50912267Y-81539962D01*
X50863518Y-81591577D01*
X50794603Y-81608643D01*
X50727402Y-81585742D01*
X50687733Y-81539962D01*
X50649129Y-81464197D01*
X50528068Y-81297570D01*
X50528065Y-81297567D01*
X50528063Y-81297564D01*
X50382435Y-81151936D01*
X50382432Y-81151934D01*
X50382430Y-81151932D01*
X50215803Y-81030871D01*
X50032290Y-80937366D01*
X50032287Y-80937365D01*
X50032285Y-80937364D01*
X49836412Y-80873721D01*
X49836410Y-80873720D01*
X49836408Y-80873720D01*
X49632981Y-80841500D01*
X49427019Y-80841500D01*
X49223592Y-80873720D01*
X49223590Y-80873720D01*
X49223587Y-80873721D01*
X49027714Y-80937364D01*
X49027708Y-80937367D01*
X48844193Y-81030873D01*
X48677567Y-81151934D01*
X48677564Y-81151936D01*
X48531936Y-81297564D01*
X48531934Y-81297567D01*
X48410873Y-81464193D01*
X48372267Y-81539962D01*
X48323518Y-81591577D01*
X48254603Y-81608643D01*
X48187402Y-81585742D01*
X48147733Y-81539962D01*
X48109129Y-81464197D01*
X47988068Y-81297570D01*
X47988065Y-81297567D01*
X47988063Y-81297564D01*
X47842435Y-81151936D01*
X47842432Y-81151934D01*
X47842430Y-81151932D01*
X47675803Y-81030871D01*
X47492290Y-80937366D01*
X47492287Y-80937365D01*
X47492285Y-80937364D01*
X47296412Y-80873721D01*
X47296410Y-80873720D01*
X47296408Y-80873720D01*
X47092981Y-80841500D01*
X46887019Y-80841500D01*
X46683592Y-80873720D01*
X46683590Y-80873720D01*
X46683587Y-80873721D01*
X46487714Y-80937364D01*
X46487708Y-80937367D01*
X46304193Y-81030873D01*
X46137567Y-81151934D01*
X46137564Y-81151936D01*
X45991936Y-81297564D01*
X45991934Y-81297567D01*
X45870873Y-81464193D01*
X45777367Y-81647708D01*
X45777364Y-81647714D01*
X45713721Y-81843587D01*
X45713720Y-81843590D01*
X45713720Y-81843592D01*
X45681500Y-82047019D01*
X27405500Y-82047019D01*
X27405500Y-73152000D01*
X36932496Y-73152000D01*
X36952457Y-73341927D01*
X36982526Y-73434470D01*
X37011473Y-73523556D01*
X37011476Y-73523561D01*
X37106958Y-73688941D01*
X37106965Y-73688951D01*
X37234744Y-73830864D01*
X37234747Y-73830866D01*
X37389248Y-73943118D01*
X37563712Y-74020794D01*
X37750513Y-74060500D01*
X37806406Y-74060500D01*
X37874527Y-74080502D01*
X37895501Y-74097405D01*
X38369929Y-74571833D01*
X38458167Y-74660071D01*
X38561925Y-74729400D01*
X38677215Y-74777155D01*
X38799606Y-74801500D01*
X39817406Y-74801500D01*
X39885527Y-74821502D01*
X39906501Y-74838405D01*
X43195929Y-78127833D01*
X43284167Y-78216071D01*
X43387925Y-78285400D01*
X43503215Y-78333155D01*
X43625606Y-78357500D01*
X44249800Y-78357500D01*
X44317921Y-78377502D01*
X44343437Y-78399190D01*
X44346747Y-78402866D01*
X44501248Y-78515118D01*
X44675712Y-78592794D01*
X44862513Y-78632500D01*
X45053487Y-78632500D01*
X45240288Y-78592794D01*
X45414752Y-78515118D01*
X45569253Y-78402866D01*
X45697040Y-78260944D01*
X45792527Y-78095556D01*
X45851542Y-77913928D01*
X45871504Y-77724000D01*
X45851542Y-77534072D01*
X45792527Y-77352444D01*
X45697040Y-77187056D01*
X45697038Y-77187054D01*
X45697034Y-77187048D01*
X45569255Y-77045135D01*
X45414752Y-76932882D01*
X45240288Y-76855206D01*
X45053487Y-76815500D01*
X44862513Y-76815500D01*
X44675711Y-76855206D01*
X44501247Y-76932882D01*
X44346747Y-77045133D01*
X44343437Y-77048810D01*
X44282991Y-77086050D01*
X44249800Y-77090500D01*
X44002594Y-77090500D01*
X43934473Y-77070498D01*
X43913499Y-77053595D01*
X40535835Y-73675931D01*
X40535833Y-73675929D01*
X40432075Y-73606600D01*
X40316785Y-73558845D01*
X40243086Y-73544185D01*
X40194396Y-73534500D01*
X40194394Y-73534500D01*
X39176594Y-73534500D01*
X39108473Y-73514498D01*
X39087499Y-73497595D01*
X38793122Y-73203218D01*
X38759096Y-73140906D01*
X38756907Y-73127293D01*
X38739542Y-72962072D01*
X38680527Y-72780444D01*
X38585040Y-72615056D01*
X38585038Y-72615054D01*
X38585034Y-72615048D01*
X38457255Y-72473135D01*
X38302752Y-72360882D01*
X38128288Y-72283206D01*
X37941487Y-72243500D01*
X37750513Y-72243500D01*
X37563711Y-72283206D01*
X37389247Y-72360882D01*
X37234744Y-72473135D01*
X37106965Y-72615048D01*
X37106958Y-72615058D01*
X37011476Y-72780438D01*
X37011473Y-72780445D01*
X36952457Y-72962072D01*
X36932496Y-73152000D01*
X27405500Y-73152000D01*
X27405500Y-36804600D01*
X40547346Y-36804600D01*
X40565932Y-37028892D01*
X40621176Y-37247049D01*
X40621179Y-37247056D01*
X40711580Y-37453148D01*
X40786921Y-37568466D01*
X41425841Y-36929546D01*
X41444075Y-36997593D01*
X41509901Y-37111607D01*
X41602993Y-37204699D01*
X41717007Y-37270525D01*
X41785052Y-37288758D01*
X41144311Y-37929498D01*
X41164697Y-37945366D01*
X41164705Y-37945371D01*
X41198731Y-37963785D01*
X41249122Y-38013797D01*
X41264475Y-38083114D01*
X41239915Y-38149727D01*
X41198735Y-38185411D01*
X41164705Y-38203827D01*
X41164693Y-38203835D01*
X41144311Y-38219699D01*
X41144310Y-38219700D01*
X41785052Y-38860442D01*
X41717007Y-38878675D01*
X41602993Y-38944501D01*
X41509901Y-39037593D01*
X41444075Y-39151607D01*
X41425842Y-39219652D01*
X40786921Y-38580731D01*
X40786920Y-38580732D01*
X40711586Y-38696039D01*
X40711579Y-38696053D01*
X40621179Y-38902143D01*
X40621176Y-38902150D01*
X40565932Y-39120307D01*
X40547346Y-39344600D01*
X40565932Y-39568892D01*
X40621176Y-39787049D01*
X40621179Y-39787056D01*
X40711580Y-39993148D01*
X40786921Y-40108466D01*
X41425841Y-39469546D01*
X41444075Y-39537593D01*
X41509901Y-39651607D01*
X41602993Y-39744699D01*
X41717007Y-39810525D01*
X41785050Y-39828757D01*
X41144310Y-40469498D01*
X41164697Y-40485366D01*
X41164701Y-40485368D01*
X41362628Y-40592482D01*
X41362630Y-40592483D01*
X41575483Y-40665555D01*
X41575490Y-40665557D01*
X41797477Y-40702600D01*
X42022523Y-40702600D01*
X42244509Y-40665557D01*
X42244511Y-40665556D01*
X42284588Y-40651798D01*
X42355512Y-40648597D01*
X42416908Y-40684249D01*
X42449283Y-40747434D01*
X42451501Y-40770971D01*
X42451501Y-50138585D01*
X42450189Y-50138585D01*
X42438212Y-50201675D01*
X42389362Y-50253194D01*
X42320414Y-50270125D01*
X42300471Y-50267184D01*
X42300452Y-50267301D01*
X42073323Y-50229400D01*
X41848277Y-50229400D01*
X41626290Y-50266442D01*
X41626283Y-50266444D01*
X41413430Y-50339516D01*
X41413428Y-50339518D01*
X41215500Y-50446630D01*
X41215493Y-50446635D01*
X41195111Y-50462499D01*
X41195110Y-50462500D01*
X41835852Y-51103242D01*
X41767807Y-51121475D01*
X41653793Y-51187301D01*
X41560701Y-51280393D01*
X41494875Y-51394407D01*
X41476642Y-51462452D01*
X40837721Y-50823531D01*
X40837720Y-50823532D01*
X40762386Y-50938839D01*
X40762379Y-50938853D01*
X40671979Y-51144943D01*
X40671976Y-51144950D01*
X40616732Y-51363107D01*
X40598146Y-51587400D01*
X40616732Y-51811692D01*
X40671976Y-52029849D01*
X40671979Y-52029856D01*
X40762380Y-52235948D01*
X40837721Y-52351266D01*
X41476641Y-51712346D01*
X41494875Y-51780393D01*
X41560701Y-51894407D01*
X41653793Y-51987499D01*
X41767807Y-52053325D01*
X41835851Y-52071557D01*
X41195110Y-52712298D01*
X41215497Y-52728166D01*
X41215505Y-52728171D01*
X41249531Y-52746585D01*
X41299922Y-52796597D01*
X41315275Y-52865914D01*
X41290715Y-52932527D01*
X41249535Y-52968211D01*
X41215505Y-52986627D01*
X41215493Y-52986635D01*
X41195111Y-53002499D01*
X41195110Y-53002500D01*
X41835852Y-53643242D01*
X41767807Y-53661475D01*
X41653793Y-53727301D01*
X41560701Y-53820393D01*
X41494875Y-53934407D01*
X41476642Y-54002452D01*
X40837721Y-53363531D01*
X40837720Y-53363532D01*
X40762386Y-53478839D01*
X40762379Y-53478853D01*
X40671979Y-53684943D01*
X40671976Y-53684950D01*
X40616732Y-53903107D01*
X40598146Y-54127400D01*
X40616732Y-54351692D01*
X40671976Y-54569849D01*
X40671979Y-54569856D01*
X40762380Y-54775948D01*
X40837721Y-54891266D01*
X41476641Y-54252346D01*
X41494875Y-54320393D01*
X41560701Y-54434407D01*
X41653793Y-54527499D01*
X41767807Y-54593325D01*
X41835851Y-54611557D01*
X41195110Y-55252298D01*
X41215497Y-55268166D01*
X41215501Y-55268168D01*
X41413428Y-55375282D01*
X41413430Y-55375283D01*
X41626283Y-55448355D01*
X41626290Y-55448357D01*
X41848277Y-55485400D01*
X42073323Y-55485400D01*
X42295309Y-55448357D01*
X42295316Y-55448355D01*
X42508169Y-55375283D01*
X42508171Y-55375281D01*
X42706098Y-55268169D01*
X42726488Y-55252298D01*
X42085747Y-54611557D01*
X42153793Y-54593325D01*
X42267807Y-54527499D01*
X42360899Y-54434407D01*
X42426725Y-54320393D01*
X42444958Y-54252347D01*
X43083877Y-54891266D01*
X43083878Y-54891266D01*
X43125017Y-54828299D01*
X43179021Y-54782210D01*
X43249368Y-54772635D01*
X43313726Y-54802612D01*
X43335983Y-54828298D01*
X43425079Y-54964670D01*
X43577562Y-55130308D01*
X43632131Y-55172781D01*
X43755224Y-55268589D01*
X43953226Y-55375742D01*
X43953227Y-55375742D01*
X43953228Y-55375743D01*
X44065027Y-55414123D01*
X44166165Y-55448844D01*
X44388231Y-55485900D01*
X44388235Y-55485900D01*
X44613365Y-55485900D01*
X44613369Y-55485900D01*
X44835435Y-55448844D01*
X45048374Y-55375742D01*
X45246376Y-55268589D01*
X45424040Y-55130306D01*
X45576522Y-54964668D01*
X45665318Y-54828754D01*
X45719320Y-54782668D01*
X45789668Y-54773092D01*
X45854025Y-54803069D01*
X45876280Y-54828753D01*
X45909407Y-54879458D01*
X45965075Y-54964665D01*
X45965079Y-54964670D01*
X46117562Y-55130308D01*
X46172131Y-55172781D01*
X46295224Y-55268589D01*
X46493226Y-55375742D01*
X46493227Y-55375742D01*
X46493228Y-55375743D01*
X46605027Y-55414123D01*
X46706165Y-55448844D01*
X46928231Y-55485900D01*
X46928235Y-55485900D01*
X47153365Y-55485900D01*
X47153369Y-55485900D01*
X47375435Y-55448844D01*
X47588374Y-55375742D01*
X47786376Y-55268589D01*
X47964040Y-55130306D01*
X48116522Y-54964668D01*
X48205318Y-54828754D01*
X48259320Y-54782668D01*
X48329668Y-54773092D01*
X48394025Y-54803069D01*
X48416280Y-54828753D01*
X48449407Y-54879458D01*
X48505075Y-54964665D01*
X48505079Y-54964670D01*
X48657562Y-55130308D01*
X48712131Y-55172781D01*
X48835224Y-55268589D01*
X49033226Y-55375742D01*
X49033227Y-55375742D01*
X49033228Y-55375743D01*
X49145027Y-55414123D01*
X49246165Y-55448844D01*
X49468231Y-55485900D01*
X49468235Y-55485900D01*
X49693365Y-55485900D01*
X49693369Y-55485900D01*
X49915435Y-55448844D01*
X50128374Y-55375742D01*
X50326376Y-55268589D01*
X50504040Y-55130306D01*
X50656522Y-54964668D01*
X50745318Y-54828754D01*
X50799320Y-54782668D01*
X50869668Y-54773092D01*
X50934025Y-54803069D01*
X50956280Y-54828753D01*
X50989407Y-54879458D01*
X51045075Y-54964665D01*
X51045079Y-54964670D01*
X51197562Y-55130308D01*
X51252131Y-55172781D01*
X51375224Y-55268589D01*
X51573226Y-55375742D01*
X51573227Y-55375742D01*
X51573228Y-55375743D01*
X51685027Y-55414123D01*
X51786165Y-55448844D01*
X52008231Y-55485900D01*
X52008235Y-55485900D01*
X52233365Y-55485900D01*
X52233369Y-55485900D01*
X52455435Y-55448844D01*
X52668374Y-55375742D01*
X52866376Y-55268589D01*
X53044040Y-55130306D01*
X53196522Y-54964668D01*
X53285318Y-54828754D01*
X53339320Y-54782668D01*
X53409668Y-54773092D01*
X53474025Y-54803069D01*
X53496280Y-54828753D01*
X53529407Y-54879458D01*
X53585075Y-54964665D01*
X53585079Y-54964670D01*
X53737562Y-55130308D01*
X53792131Y-55172781D01*
X53915224Y-55268589D01*
X54113226Y-55375742D01*
X54113227Y-55375742D01*
X54113228Y-55375743D01*
X54225027Y-55414123D01*
X54326165Y-55448844D01*
X54548231Y-55485900D01*
X54548235Y-55485900D01*
X54773365Y-55485900D01*
X54773369Y-55485900D01*
X54995435Y-55448844D01*
X55208374Y-55375742D01*
X55406376Y-55268589D01*
X55584040Y-55130306D01*
X55736522Y-54964668D01*
X55825318Y-54828754D01*
X55879320Y-54782668D01*
X55949668Y-54773092D01*
X56014025Y-54803069D01*
X56036280Y-54828753D01*
X56069407Y-54879458D01*
X56125075Y-54964665D01*
X56125079Y-54964670D01*
X56277562Y-55130308D01*
X56332131Y-55172781D01*
X56455224Y-55268589D01*
X56653226Y-55375742D01*
X56653227Y-55375742D01*
X56653228Y-55375743D01*
X56765027Y-55414123D01*
X56866165Y-55448844D01*
X57088231Y-55485900D01*
X57088235Y-55485900D01*
X57313365Y-55485900D01*
X57313369Y-55485900D01*
X57535435Y-55448844D01*
X57748374Y-55375742D01*
X57946376Y-55268589D01*
X58124040Y-55130306D01*
X58276522Y-54964668D01*
X58365318Y-54828754D01*
X58419320Y-54782668D01*
X58489668Y-54773092D01*
X58554025Y-54803069D01*
X58576280Y-54828753D01*
X58609407Y-54879458D01*
X58665075Y-54964665D01*
X58665079Y-54964670D01*
X58817562Y-55130308D01*
X58872131Y-55172781D01*
X58995224Y-55268589D01*
X59193226Y-55375742D01*
X59193227Y-55375742D01*
X59193228Y-55375743D01*
X59305027Y-55414123D01*
X59406165Y-55448844D01*
X59628231Y-55485900D01*
X59628235Y-55485900D01*
X59853365Y-55485900D01*
X59853369Y-55485900D01*
X60075435Y-55448844D01*
X60288374Y-55375742D01*
X60486376Y-55268589D01*
X60664040Y-55130306D01*
X60816522Y-54964668D01*
X60905318Y-54828754D01*
X60959320Y-54782668D01*
X61029668Y-54773092D01*
X61094025Y-54803069D01*
X61116280Y-54828753D01*
X61149407Y-54879458D01*
X61205075Y-54964665D01*
X61205079Y-54964670D01*
X61357562Y-55130308D01*
X61412131Y-55172781D01*
X61535224Y-55268589D01*
X61733226Y-55375742D01*
X61733227Y-55375742D01*
X61733228Y-55375743D01*
X61845027Y-55414123D01*
X61946165Y-55448844D01*
X62168231Y-55485900D01*
X62168235Y-55485900D01*
X62393365Y-55485900D01*
X62393369Y-55485900D01*
X62615435Y-55448844D01*
X62828374Y-55375742D01*
X63026376Y-55268589D01*
X63204040Y-55130306D01*
X63356522Y-54964668D01*
X63445318Y-54828754D01*
X63499320Y-54782668D01*
X63569668Y-54773092D01*
X63634025Y-54803069D01*
X63656280Y-54828753D01*
X63689407Y-54879458D01*
X63745075Y-54964665D01*
X63745079Y-54964670D01*
X63897562Y-55130308D01*
X63952131Y-55172781D01*
X64075224Y-55268589D01*
X64273226Y-55375742D01*
X64273227Y-55375742D01*
X64273228Y-55375743D01*
X64385027Y-55414123D01*
X64486165Y-55448844D01*
X64708231Y-55485900D01*
X64708235Y-55485900D01*
X64933365Y-55485900D01*
X64933369Y-55485900D01*
X65155435Y-55448844D01*
X65368374Y-55375742D01*
X65566376Y-55268589D01*
X65744040Y-55130306D01*
X65896522Y-54964668D01*
X65985318Y-54828754D01*
X66039320Y-54782668D01*
X66109668Y-54773092D01*
X66174025Y-54803069D01*
X66196280Y-54828753D01*
X66229407Y-54879458D01*
X66285075Y-54964665D01*
X66285079Y-54964670D01*
X66437562Y-55130308D01*
X66492131Y-55172781D01*
X66615224Y-55268589D01*
X66813226Y-55375742D01*
X66813227Y-55375742D01*
X66813228Y-55375743D01*
X66925027Y-55414123D01*
X67026165Y-55448844D01*
X67248231Y-55485900D01*
X67248235Y-55485900D01*
X67473365Y-55485900D01*
X67473369Y-55485900D01*
X67695435Y-55448844D01*
X67908374Y-55375742D01*
X68106376Y-55268589D01*
X68284040Y-55130306D01*
X68436522Y-54964668D01*
X68525318Y-54828754D01*
X68579320Y-54782668D01*
X68649668Y-54773092D01*
X68714025Y-54803069D01*
X68736280Y-54828753D01*
X68769407Y-54879458D01*
X68825075Y-54964665D01*
X68825079Y-54964670D01*
X68977562Y-55130308D01*
X69032131Y-55172781D01*
X69155224Y-55268589D01*
X69353226Y-55375742D01*
X69353227Y-55375742D01*
X69353228Y-55375743D01*
X69465027Y-55414123D01*
X69566165Y-55448844D01*
X69788231Y-55485900D01*
X69788235Y-55485900D01*
X70013365Y-55485900D01*
X70013369Y-55485900D01*
X70235435Y-55448844D01*
X70448374Y-55375742D01*
X70646376Y-55268589D01*
X70824040Y-55130306D01*
X70976522Y-54964668D01*
X71065318Y-54828754D01*
X71119320Y-54782668D01*
X71189668Y-54773092D01*
X71254025Y-54803069D01*
X71276280Y-54828753D01*
X71309407Y-54879458D01*
X71365075Y-54964665D01*
X71365079Y-54964670D01*
X71517562Y-55130308D01*
X71572131Y-55172781D01*
X71695224Y-55268589D01*
X71893226Y-55375742D01*
X71893227Y-55375742D01*
X71893228Y-55375743D01*
X72005027Y-55414123D01*
X72106165Y-55448844D01*
X72328231Y-55485900D01*
X72328235Y-55485900D01*
X72553365Y-55485900D01*
X72553369Y-55485900D01*
X72775435Y-55448844D01*
X72988374Y-55375742D01*
X73186376Y-55268589D01*
X73364040Y-55130306D01*
X73516522Y-54964668D01*
X73639660Y-54776191D01*
X73730096Y-54570016D01*
X73785364Y-54351768D01*
X73803956Y-54127400D01*
X73785364Y-53903032D01*
X73730138Y-53684950D01*
X73730097Y-53684787D01*
X73730096Y-53684786D01*
X73730096Y-53684784D01*
X73639660Y-53478609D01*
X73564476Y-53363531D01*
X73516524Y-53290134D01*
X73516520Y-53290129D01*
X73364036Y-53124490D01*
X73329236Y-53097404D01*
X73287766Y-53039779D01*
X73284033Y-52968880D01*
X73319223Y-52907219D01*
X73357563Y-52884069D01*
X73356886Y-52882617D01*
X73363528Y-52879518D01*
X73363538Y-52879515D01*
X73514452Y-52786430D01*
X73639830Y-52661052D01*
X73732915Y-52510138D01*
X73788687Y-52341826D01*
X73799300Y-52237945D01*
X73799299Y-50936856D01*
X73788687Y-50832974D01*
X73732915Y-50664662D01*
X73639830Y-50513748D01*
X73639829Y-50513747D01*
X73639824Y-50513741D01*
X73638631Y-50512548D01*
X73638073Y-50511526D01*
X73635277Y-50507990D01*
X73635881Y-50507512D01*
X73604605Y-50450236D01*
X73609670Y-50379421D01*
X73622955Y-50353460D01*
X73676401Y-50273474D01*
X73724156Y-50158184D01*
X73748501Y-50035793D01*
X73748501Y-49911005D01*
X73748501Y-40032607D01*
X73724156Y-39910216D01*
X73692983Y-39834960D01*
X73685395Y-39764371D01*
X73687249Y-39755810D01*
X73690063Y-39744699D01*
X73734564Y-39568968D01*
X73753156Y-39344600D01*
X73734564Y-39120232D01*
X73679338Y-38902150D01*
X73679297Y-38901987D01*
X73679296Y-38901986D01*
X73679296Y-38901984D01*
X73588860Y-38695809D01*
X73582140Y-38685524D01*
X73465724Y-38507334D01*
X73465720Y-38507329D01*
X73313236Y-38341690D01*
X73278436Y-38314604D01*
X73236966Y-38256979D01*
X73233233Y-38186080D01*
X73268423Y-38124419D01*
X73306763Y-38101269D01*
X73306086Y-38099817D01*
X73312728Y-38096718D01*
X73312738Y-38096715D01*
X73463652Y-38003630D01*
X73589030Y-37878252D01*
X73682115Y-37727338D01*
X73737887Y-37559026D01*
X73748500Y-37455145D01*
X73748499Y-36154056D01*
X73746306Y-36132593D01*
X73737887Y-36050174D01*
X73709553Y-35964667D01*
X73682115Y-35881862D01*
X73589030Y-35730948D01*
X73589029Y-35730947D01*
X73589024Y-35730941D01*
X73463658Y-35605575D01*
X73463652Y-35605570D01*
X73312738Y-35512485D01*
X73224224Y-35483155D01*
X73144427Y-35456713D01*
X73144420Y-35456712D01*
X73040553Y-35446100D01*
X71739455Y-35446100D01*
X71635574Y-35456712D01*
X71467261Y-35512485D01*
X71316347Y-35605570D01*
X71316341Y-35605575D01*
X71190975Y-35730941D01*
X71190970Y-35730947D01*
X71097883Y-35881866D01*
X71094783Y-35888514D01*
X71092878Y-35887625D01*
X71058389Y-35937422D01*
X70992828Y-35964667D01*
X70922945Y-35952141D01*
X70886515Y-35924742D01*
X70773237Y-35801691D01*
X70691382Y-35737981D01*
X70595576Y-35663411D01*
X70397574Y-35556258D01*
X70397572Y-35556257D01*
X70397571Y-35556256D01*
X70184639Y-35483157D01*
X70184630Y-35483155D01*
X70140476Y-35475787D01*
X69962569Y-35446100D01*
X69737431Y-35446100D01*
X69589211Y-35470833D01*
X69515369Y-35483155D01*
X69515360Y-35483157D01*
X69302428Y-35556256D01*
X69302426Y-35556258D01*
X69104426Y-35663410D01*
X69104424Y-35663411D01*
X68926762Y-35801691D01*
X68774279Y-35967329D01*
X68685483Y-36103243D01*
X68631479Y-36149331D01*
X68561131Y-36158906D01*
X68496774Y-36128929D01*
X68474517Y-36103243D01*
X68385720Y-35967329D01*
X68233237Y-35801691D01*
X68151382Y-35737981D01*
X68055576Y-35663411D01*
X67857574Y-35556258D01*
X67857572Y-35556257D01*
X67857571Y-35556256D01*
X67644639Y-35483157D01*
X67644630Y-35483155D01*
X67600476Y-35475787D01*
X67422569Y-35446100D01*
X67197431Y-35446100D01*
X67049211Y-35470833D01*
X66975369Y-35483155D01*
X66975360Y-35483157D01*
X66762428Y-35556256D01*
X66762426Y-35556258D01*
X66564426Y-35663410D01*
X66564424Y-35663411D01*
X66386762Y-35801691D01*
X66234279Y-35967329D01*
X66145483Y-36103243D01*
X66091479Y-36149331D01*
X66021131Y-36158906D01*
X65956774Y-36128929D01*
X65934517Y-36103243D01*
X65845720Y-35967329D01*
X65693237Y-35801691D01*
X65611382Y-35737981D01*
X65515576Y-35663411D01*
X65317574Y-35556258D01*
X65317572Y-35556257D01*
X65317571Y-35556256D01*
X65104639Y-35483157D01*
X65104630Y-35483155D01*
X65060476Y-35475787D01*
X64882569Y-35446100D01*
X64657431Y-35446100D01*
X64509211Y-35470833D01*
X64435369Y-35483155D01*
X64435360Y-35483157D01*
X64222428Y-35556256D01*
X64222426Y-35556258D01*
X64024426Y-35663410D01*
X64024424Y-35663411D01*
X63846762Y-35801691D01*
X63694279Y-35967329D01*
X63605483Y-36103243D01*
X63551479Y-36149331D01*
X63481131Y-36158906D01*
X63416774Y-36128929D01*
X63394517Y-36103243D01*
X63305720Y-35967329D01*
X63153237Y-35801691D01*
X63071382Y-35737981D01*
X62975576Y-35663411D01*
X62777574Y-35556258D01*
X62777572Y-35556257D01*
X62777571Y-35556256D01*
X62564639Y-35483157D01*
X62564630Y-35483155D01*
X62520476Y-35475787D01*
X62342569Y-35446100D01*
X62117431Y-35446100D01*
X61969211Y-35470833D01*
X61895369Y-35483155D01*
X61895360Y-35483157D01*
X61682428Y-35556256D01*
X61682426Y-35556258D01*
X61484426Y-35663410D01*
X61484424Y-35663411D01*
X61306762Y-35801691D01*
X61154279Y-35967329D01*
X61065483Y-36103243D01*
X61011479Y-36149331D01*
X60941131Y-36158906D01*
X60876774Y-36128929D01*
X60854517Y-36103243D01*
X60765720Y-35967329D01*
X60613237Y-35801691D01*
X60531382Y-35737981D01*
X60435576Y-35663411D01*
X60237574Y-35556258D01*
X60237572Y-35556257D01*
X60237571Y-35556256D01*
X60024639Y-35483157D01*
X60024630Y-35483155D01*
X59980476Y-35475787D01*
X59802569Y-35446100D01*
X59577431Y-35446100D01*
X59429211Y-35470833D01*
X59355369Y-35483155D01*
X59355360Y-35483157D01*
X59142428Y-35556256D01*
X59142426Y-35556258D01*
X58944426Y-35663410D01*
X58944424Y-35663411D01*
X58766762Y-35801691D01*
X58614279Y-35967329D01*
X58525483Y-36103243D01*
X58471479Y-36149331D01*
X58401131Y-36158906D01*
X58336774Y-36128929D01*
X58314517Y-36103243D01*
X58225720Y-35967329D01*
X58073237Y-35801691D01*
X57991382Y-35737981D01*
X57895576Y-35663411D01*
X57697574Y-35556258D01*
X57697572Y-35556257D01*
X57697571Y-35556256D01*
X57484639Y-35483157D01*
X57484630Y-35483155D01*
X57440476Y-35475787D01*
X57262569Y-35446100D01*
X57037431Y-35446100D01*
X56889211Y-35470833D01*
X56815369Y-35483155D01*
X56815360Y-35483157D01*
X56602428Y-35556256D01*
X56602426Y-35556258D01*
X56404426Y-35663410D01*
X56404424Y-35663411D01*
X56226762Y-35801691D01*
X56074279Y-35967329D01*
X55985483Y-36103243D01*
X55931479Y-36149331D01*
X55861131Y-36158906D01*
X55796774Y-36128929D01*
X55774517Y-36103243D01*
X55685720Y-35967329D01*
X55533237Y-35801691D01*
X55451382Y-35737981D01*
X55355576Y-35663411D01*
X55157574Y-35556258D01*
X55157572Y-35556257D01*
X55157571Y-35556256D01*
X54944639Y-35483157D01*
X54944630Y-35483155D01*
X54900476Y-35475787D01*
X54722569Y-35446100D01*
X54497431Y-35446100D01*
X54349211Y-35470833D01*
X54275369Y-35483155D01*
X54275360Y-35483157D01*
X54062428Y-35556256D01*
X54062426Y-35556258D01*
X53864426Y-35663410D01*
X53864424Y-35663411D01*
X53686762Y-35801691D01*
X53534279Y-35967329D01*
X53445483Y-36103243D01*
X53391479Y-36149331D01*
X53321131Y-36158906D01*
X53256774Y-36128929D01*
X53234517Y-36103243D01*
X53145720Y-35967329D01*
X52993237Y-35801691D01*
X52911382Y-35737981D01*
X52815576Y-35663411D01*
X52617574Y-35556258D01*
X52617572Y-35556257D01*
X52617571Y-35556256D01*
X52404639Y-35483157D01*
X52404630Y-35483155D01*
X52360476Y-35475787D01*
X52182569Y-35446100D01*
X51957431Y-35446100D01*
X51809211Y-35470833D01*
X51735369Y-35483155D01*
X51735360Y-35483157D01*
X51522428Y-35556256D01*
X51522426Y-35556258D01*
X51324426Y-35663410D01*
X51324424Y-35663411D01*
X51146762Y-35801691D01*
X50994279Y-35967329D01*
X50905483Y-36103243D01*
X50851479Y-36149331D01*
X50781131Y-36158906D01*
X50716774Y-36128929D01*
X50694517Y-36103243D01*
X50605720Y-35967329D01*
X50453237Y-35801691D01*
X50371382Y-35737981D01*
X50275576Y-35663411D01*
X50077574Y-35556258D01*
X50077572Y-35556257D01*
X50077571Y-35556256D01*
X49864639Y-35483157D01*
X49864630Y-35483155D01*
X49820476Y-35475787D01*
X49642569Y-35446100D01*
X49417431Y-35446100D01*
X49269211Y-35470833D01*
X49195369Y-35483155D01*
X49195360Y-35483157D01*
X48982428Y-35556256D01*
X48982426Y-35556258D01*
X48784426Y-35663410D01*
X48784424Y-35663411D01*
X48606762Y-35801691D01*
X48454279Y-35967329D01*
X48365483Y-36103243D01*
X48311479Y-36149331D01*
X48241131Y-36158906D01*
X48176774Y-36128929D01*
X48154517Y-36103243D01*
X48065720Y-35967329D01*
X47913237Y-35801691D01*
X47831382Y-35737981D01*
X47735576Y-35663411D01*
X47537574Y-35556258D01*
X47537572Y-35556257D01*
X47537571Y-35556256D01*
X47324639Y-35483157D01*
X47324630Y-35483155D01*
X47280476Y-35475787D01*
X47102569Y-35446100D01*
X46877431Y-35446100D01*
X46729211Y-35470833D01*
X46655369Y-35483155D01*
X46655360Y-35483157D01*
X46442428Y-35556256D01*
X46442426Y-35556258D01*
X46244426Y-35663410D01*
X46244424Y-35663411D01*
X46066762Y-35801691D01*
X45914279Y-35967329D01*
X45825483Y-36103243D01*
X45771479Y-36149331D01*
X45701131Y-36158906D01*
X45636774Y-36128929D01*
X45614517Y-36103243D01*
X45525720Y-35967329D01*
X45373237Y-35801691D01*
X45291382Y-35737981D01*
X45195576Y-35663411D01*
X44997574Y-35556258D01*
X44997572Y-35556257D01*
X44997571Y-35556256D01*
X44784639Y-35483157D01*
X44784630Y-35483155D01*
X44740476Y-35475787D01*
X44562569Y-35446100D01*
X44337431Y-35446100D01*
X44189211Y-35470833D01*
X44115369Y-35483155D01*
X44115360Y-35483157D01*
X43902428Y-35556256D01*
X43902426Y-35556258D01*
X43704426Y-35663410D01*
X43704424Y-35663411D01*
X43526762Y-35801691D01*
X43374279Y-35967329D01*
X43285183Y-36103701D01*
X43231179Y-36149789D01*
X43160831Y-36159364D01*
X43096474Y-36129386D01*
X43074217Y-36103700D01*
X43033077Y-36040732D01*
X42394157Y-36679651D01*
X42375925Y-36611607D01*
X42310099Y-36497593D01*
X42217007Y-36404501D01*
X42102993Y-36338675D01*
X42034947Y-36320441D01*
X42675688Y-35679700D01*
X42675687Y-35679699D01*
X42655308Y-35663837D01*
X42655298Y-35663831D01*
X42457371Y-35556717D01*
X42457369Y-35556716D01*
X42244516Y-35483644D01*
X42244509Y-35483642D01*
X42022523Y-35446600D01*
X41797477Y-35446600D01*
X41575490Y-35483642D01*
X41575483Y-35483644D01*
X41362630Y-35556716D01*
X41362628Y-35556718D01*
X41164700Y-35663830D01*
X41164693Y-35663835D01*
X41144311Y-35679699D01*
X41144310Y-35679700D01*
X41785052Y-36320442D01*
X41717007Y-36338675D01*
X41602993Y-36404501D01*
X41509901Y-36497593D01*
X41444075Y-36611607D01*
X41425842Y-36679652D01*
X40786921Y-36040731D01*
X40786920Y-36040732D01*
X40711586Y-36156039D01*
X40711579Y-36156053D01*
X40621179Y-36362143D01*
X40621176Y-36362150D01*
X40565932Y-36580307D01*
X40547346Y-36804600D01*
X27405500Y-36804600D01*
X27405500Y-31622997D01*
X28366573Y-31622997D01*
X28366573Y-31623002D01*
X28371206Y-31690730D01*
X28371500Y-31699329D01*
X28371500Y-31761202D01*
X28380406Y-31828851D01*
X28381190Y-31836696D01*
X28386257Y-31910771D01*
X28386260Y-31910789D01*
X28398774Y-31971017D01*
X28400331Y-31980201D01*
X28407575Y-32035222D01*
X28407577Y-32035230D01*
X28426885Y-32107292D01*
X28428542Y-32114266D01*
X28444940Y-32193177D01*
X28444947Y-32193202D01*
X28463417Y-32245172D01*
X28466394Y-32254740D01*
X28479113Y-32302204D01*
X28479116Y-32302214D01*
X28510093Y-32377001D01*
X28512409Y-32383022D01*
X28541544Y-32465000D01*
X28563984Y-32508305D01*
X28568520Y-32518056D01*
X28584883Y-32557562D01*
X28584885Y-32557564D01*
X28584886Y-32557567D01*
X28613740Y-32607544D01*
X28628544Y-32633186D01*
X28631297Y-32638216D01*
X28674243Y-32721097D01*
X28674247Y-32721104D01*
X28698712Y-32755762D01*
X28704893Y-32765424D01*
X28723084Y-32796933D01*
X28780110Y-32871251D01*
X28783073Y-32875275D01*
X28840591Y-32956758D01*
X28840596Y-32956765D01*
X28865186Y-32983093D01*
X28873060Y-32992386D01*
X28891344Y-33016214D01*
X28962117Y-33086987D01*
X28965079Y-33090052D01*
X29037474Y-33167568D01*
X29037479Y-33167572D01*
X29037480Y-33167573D01*
X29060489Y-33186292D01*
X29070058Y-33194928D01*
X29086786Y-33211656D01*
X29171241Y-33276459D01*
X29174014Y-33278651D01*
X29261228Y-33349606D01*
X29281142Y-33361715D01*
X29292360Y-33369397D01*
X29306067Y-33379915D01*
X29403761Y-33436318D01*
X29406129Y-33437722D01*
X29507686Y-33499481D01*
X29523211Y-33506224D01*
X29536000Y-33512668D01*
X29545433Y-33518114D01*
X29655485Y-33563699D01*
X29657438Y-33564528D01*
X29772244Y-33614395D01*
X29772254Y-33614399D01*
X29772256Y-33614400D01*
X29781607Y-33617020D01*
X29782410Y-33617245D01*
X29796636Y-33622165D01*
X29800791Y-33623886D01*
X29922009Y-33656366D01*
X29923313Y-33656724D01*
X30049996Y-33692219D01*
X30049999Y-33692219D01*
X30050011Y-33692223D01*
X30054128Y-33692788D01*
X30063707Y-33694723D01*
X30063728Y-33694619D01*
X30067757Y-33695419D01*
X30067769Y-33695423D01*
X30198632Y-33712650D01*
X30198991Y-33712698D01*
X30335775Y-33731500D01*
X30335783Y-33731500D01*
X30624217Y-33731500D01*
X30624225Y-33731500D01*
X30761052Y-33712692D01*
X30761318Y-33712656D01*
X30892231Y-33695423D01*
X30892245Y-33695419D01*
X30896270Y-33694619D01*
X30896290Y-33694724D01*
X30905875Y-33692788D01*
X30909989Y-33692223D01*
X31036791Y-33656693D01*
X31037893Y-33656391D01*
X31159209Y-33623886D01*
X31163362Y-33622165D01*
X31177595Y-33617243D01*
X31187744Y-33614400D01*
X31187756Y-33614395D01*
X31302580Y-33564520D01*
X31304505Y-33563702D01*
X31414567Y-33518114D01*
X31424002Y-33512666D01*
X31436778Y-33506228D01*
X31452314Y-33499481D01*
X31553885Y-33437712D01*
X31556172Y-33436356D01*
X31653933Y-33379915D01*
X31667625Y-33369407D01*
X31678847Y-33361721D01*
X31698772Y-33349606D01*
X31786007Y-33278632D01*
X31788758Y-33276458D01*
X31873214Y-33211656D01*
X31889939Y-33194930D01*
X31899510Y-33186292D01*
X31922526Y-33167568D01*
X31994934Y-33090036D01*
X31997867Y-33087001D01*
X32068656Y-33016214D01*
X32086939Y-32992385D01*
X32094798Y-32983108D01*
X32119409Y-32956758D01*
X32176942Y-32875252D01*
X32179852Y-32871297D01*
X32236915Y-32796933D01*
X32255117Y-32765404D01*
X32261276Y-32755777D01*
X32285753Y-32721103D01*
X32328712Y-32638193D01*
X32331449Y-32633195D01*
X32375114Y-32557567D01*
X32391482Y-32518047D01*
X32396015Y-32508305D01*
X32418459Y-32464992D01*
X32447599Y-32382994D01*
X32449886Y-32377047D01*
X32480886Y-32302209D01*
X32493604Y-32254741D01*
X32496582Y-32245172D01*
X32515055Y-32193196D01*
X32531462Y-32114231D01*
X32533102Y-32107333D01*
X32552423Y-32035231D01*
X32559667Y-31980197D01*
X32561221Y-31971025D01*
X32573742Y-31910778D01*
X32573742Y-31910774D01*
X32573743Y-31910771D01*
X32578808Y-31836703D01*
X32579589Y-31828871D01*
X32588500Y-31761198D01*
X32588500Y-31699329D01*
X32588794Y-31690730D01*
X32593427Y-31623002D01*
X32593427Y-31622997D01*
X110916573Y-31622997D01*
X110916573Y-31623002D01*
X110921206Y-31690730D01*
X110921500Y-31699329D01*
X110921500Y-31761202D01*
X110930406Y-31828851D01*
X110931190Y-31836696D01*
X110936257Y-31910771D01*
X110936260Y-31910789D01*
X110948774Y-31971017D01*
X110950331Y-31980201D01*
X110957575Y-32035222D01*
X110957577Y-32035230D01*
X110976885Y-32107292D01*
X110978542Y-32114266D01*
X110994940Y-32193177D01*
X110994947Y-32193202D01*
X111013417Y-32245172D01*
X111016394Y-32254740D01*
X111029113Y-32302204D01*
X111029116Y-32302214D01*
X111060093Y-32377001D01*
X111062409Y-32383022D01*
X111091544Y-32465000D01*
X111113984Y-32508305D01*
X111118520Y-32518056D01*
X111134883Y-32557562D01*
X111134885Y-32557564D01*
X111134886Y-32557567D01*
X111163740Y-32607544D01*
X111178544Y-32633186D01*
X111181297Y-32638216D01*
X111224243Y-32721097D01*
X111224247Y-32721104D01*
X111248712Y-32755762D01*
X111254893Y-32765424D01*
X111273084Y-32796933D01*
X111330110Y-32871251D01*
X111333073Y-32875275D01*
X111390591Y-32956758D01*
X111390596Y-32956765D01*
X111415186Y-32983093D01*
X111423060Y-32992386D01*
X111441344Y-33016214D01*
X111512117Y-33086987D01*
X111515079Y-33090052D01*
X111587474Y-33167568D01*
X111587479Y-33167572D01*
X111587480Y-33167573D01*
X111610489Y-33186292D01*
X111620058Y-33194928D01*
X111636786Y-33211656D01*
X111721241Y-33276459D01*
X111724014Y-33278651D01*
X111811228Y-33349606D01*
X111831142Y-33361715D01*
X111842360Y-33369397D01*
X111856067Y-33379915D01*
X111953761Y-33436318D01*
X111956129Y-33437722D01*
X112057686Y-33499481D01*
X112073211Y-33506224D01*
X112086000Y-33512668D01*
X112095433Y-33518114D01*
X112205485Y-33563699D01*
X112207438Y-33564528D01*
X112322244Y-33614395D01*
X112322254Y-33614399D01*
X112322256Y-33614400D01*
X112331607Y-33617020D01*
X112332410Y-33617245D01*
X112346636Y-33622165D01*
X112350791Y-33623886D01*
X112472009Y-33656366D01*
X112473313Y-33656724D01*
X112599996Y-33692219D01*
X112599999Y-33692219D01*
X112600011Y-33692223D01*
X112604128Y-33692788D01*
X112613707Y-33694723D01*
X112613728Y-33694619D01*
X112617757Y-33695419D01*
X112617769Y-33695423D01*
X112748632Y-33712650D01*
X112748991Y-33712698D01*
X112885775Y-33731500D01*
X112885783Y-33731500D01*
X113174217Y-33731500D01*
X113174225Y-33731500D01*
X113311052Y-33712692D01*
X113311318Y-33712656D01*
X113442231Y-33695423D01*
X113442245Y-33695419D01*
X113446270Y-33694619D01*
X113446290Y-33694724D01*
X113455875Y-33692788D01*
X113459989Y-33692223D01*
X113586791Y-33656693D01*
X113587893Y-33656391D01*
X113709209Y-33623886D01*
X113713362Y-33622165D01*
X113727595Y-33617243D01*
X113737744Y-33614400D01*
X113737756Y-33614395D01*
X113852580Y-33564520D01*
X113854505Y-33563702D01*
X113964567Y-33518114D01*
X113974002Y-33512666D01*
X113986778Y-33506228D01*
X114002314Y-33499481D01*
X114103885Y-33437712D01*
X114106172Y-33436356D01*
X114203933Y-33379915D01*
X114217625Y-33369407D01*
X114228847Y-33361721D01*
X114248772Y-33349606D01*
X114336007Y-33278632D01*
X114338758Y-33276458D01*
X114423214Y-33211656D01*
X114439939Y-33194930D01*
X114449510Y-33186292D01*
X114472526Y-33167568D01*
X114544934Y-33090036D01*
X114547867Y-33087001D01*
X114618656Y-33016214D01*
X114636939Y-32992385D01*
X114644798Y-32983108D01*
X114669409Y-32956758D01*
X114726942Y-32875252D01*
X114729852Y-32871297D01*
X114786915Y-32796933D01*
X114805117Y-32765404D01*
X114811276Y-32755777D01*
X114835753Y-32721103D01*
X114878712Y-32638193D01*
X114881449Y-32633195D01*
X114925114Y-32557567D01*
X114941482Y-32518047D01*
X114946015Y-32508305D01*
X114968459Y-32464992D01*
X114997599Y-32382994D01*
X114999886Y-32377047D01*
X115030886Y-32302209D01*
X115043604Y-32254741D01*
X115046582Y-32245172D01*
X115065055Y-32193196D01*
X115081462Y-32114231D01*
X115083102Y-32107333D01*
X115102423Y-32035231D01*
X115109667Y-31980197D01*
X115111221Y-31971025D01*
X115123742Y-31910778D01*
X115123742Y-31910774D01*
X115123743Y-31910771D01*
X115128808Y-31836703D01*
X115129589Y-31828871D01*
X115138500Y-31761198D01*
X115138500Y-31699329D01*
X115138794Y-31690730D01*
X115143427Y-31623002D01*
X115143427Y-31622997D01*
X115138794Y-31555268D01*
X115138500Y-31546669D01*
X115138500Y-31484809D01*
X115138500Y-31484802D01*
X115129590Y-31417133D01*
X115128808Y-31409295D01*
X115123743Y-31335228D01*
X115123742Y-31335222D01*
X115111221Y-31274969D01*
X115109668Y-31265805D01*
X115102423Y-31210769D01*
X115083106Y-31138681D01*
X115081457Y-31131741D01*
X115065055Y-31052804D01*
X115046579Y-31000818D01*
X115043600Y-30991243D01*
X115030886Y-30943792D01*
X114999903Y-30868992D01*
X114997587Y-30862967D01*
X114968463Y-30781018D01*
X114968460Y-30781012D01*
X114968459Y-30781008D01*
X114946011Y-30737687D01*
X114941478Y-30727941D01*
X114925117Y-30688439D01*
X114925111Y-30688428D01*
X114881450Y-30612805D01*
X114878715Y-30607810D01*
X114835753Y-30524897D01*
X114811288Y-30490239D01*
X114805107Y-30480577D01*
X114786915Y-30449067D01*
X114786912Y-30449063D01*
X114729869Y-30374722D01*
X114726913Y-30370706D01*
X114726908Y-30370699D01*
X114669409Y-30289242D01*
X114669407Y-30289239D01*
X114669405Y-30289237D01*
X114644808Y-30262900D01*
X114636938Y-30253612D01*
X114618656Y-30229786D01*
X114547880Y-30159010D01*
X114544919Y-30155946D01*
X114472529Y-30078435D01*
X114472526Y-30078432D01*
X114449510Y-30059707D01*
X114439940Y-30051070D01*
X114423214Y-30034344D01*
X114423212Y-30034343D01*
X114423207Y-30034338D01*
X114338800Y-29969572D01*
X114335985Y-29967348D01*
X114248770Y-29896392D01*
X114228868Y-29884290D01*
X114217635Y-29876599D01*
X114203933Y-29866085D01*
X114203929Y-29866083D01*
X114203927Y-29866081D01*
X114106314Y-29809724D01*
X114103846Y-29808262D01*
X114002314Y-29746519D01*
X113986789Y-29739775D01*
X113974003Y-29733333D01*
X113964567Y-29727886D01*
X113964565Y-29727885D01*
X113964563Y-29727884D01*
X113964554Y-29727879D01*
X113854518Y-29682300D01*
X113852540Y-29681461D01*
X113737755Y-29631604D01*
X113737748Y-29631602D01*
X113737744Y-29631600D01*
X113727581Y-29628752D01*
X113713380Y-29623841D01*
X113709213Y-29622115D01*
X113709210Y-29622114D01*
X113588022Y-29589640D01*
X113586642Y-29589262D01*
X113486274Y-29561141D01*
X113459989Y-29553777D01*
X113455854Y-29553208D01*
X113446290Y-29551278D01*
X113446270Y-29551381D01*
X113442239Y-29550579D01*
X113442231Y-29550577D01*
X113397005Y-29544622D01*
X113311478Y-29533363D01*
X113310768Y-29533267D01*
X113174237Y-29514500D01*
X113174225Y-29514500D01*
X112885775Y-29514500D01*
X112885761Y-29514500D01*
X112749230Y-29533267D01*
X112748520Y-29533363D01*
X112617771Y-29550576D01*
X112613728Y-29551381D01*
X112613707Y-29551278D01*
X112604141Y-29553209D01*
X112600020Y-29553775D01*
X112600004Y-29553778D01*
X112473274Y-29589285D01*
X112471894Y-29589663D01*
X112350803Y-29622109D01*
X112350785Y-29622116D01*
X112346617Y-29623842D01*
X112332422Y-29628750D01*
X112322264Y-29631597D01*
X112322254Y-29631600D01*
X112207430Y-29681474D01*
X112205452Y-29682313D01*
X112095445Y-29727880D01*
X112095424Y-29727890D01*
X112085988Y-29733337D01*
X112073209Y-29739775D01*
X112057682Y-29746520D01*
X111956170Y-29808251D01*
X111953704Y-29809712D01*
X111856084Y-29866073D01*
X111856063Y-29866088D01*
X111842365Y-29876598D01*
X111831139Y-29884285D01*
X111811226Y-29896395D01*
X111724025Y-29967338D01*
X111721213Y-29969560D01*
X111636785Y-30034344D01*
X111620058Y-30051071D01*
X111610485Y-30059710D01*
X111587476Y-30078429D01*
X111515092Y-30155932D01*
X111512105Y-30159023D01*
X111441343Y-30229786D01*
X111423052Y-30253621D01*
X111415183Y-30262909D01*
X111390594Y-30289238D01*
X111390590Y-30289243D01*
X111333090Y-30370699D01*
X111330118Y-30374736D01*
X111273087Y-30449063D01*
X111254893Y-30480576D01*
X111248714Y-30490233D01*
X111224248Y-30524893D01*
X111224247Y-30524895D01*
X111181301Y-30607776D01*
X111178548Y-30612805D01*
X111134891Y-30688422D01*
X111134882Y-30688440D01*
X111118518Y-30727945D01*
X111113986Y-30737688D01*
X111091542Y-30781004D01*
X111091539Y-30781010D01*
X111062406Y-30862982D01*
X111060092Y-30869002D01*
X111029113Y-30943792D01*
X111029110Y-30943803D01*
X111016397Y-30991247D01*
X111013416Y-31000827D01*
X110994945Y-31052799D01*
X110994945Y-31052800D01*
X110978540Y-31131741D01*
X110976883Y-31138712D01*
X110957578Y-31210764D01*
X110957575Y-31210777D01*
X110950331Y-31265800D01*
X110948774Y-31274984D01*
X110936260Y-31335210D01*
X110936257Y-31335228D01*
X110931190Y-31409302D01*
X110930406Y-31417146D01*
X110921500Y-31484795D01*
X110921500Y-31546669D01*
X110921206Y-31555268D01*
X110916573Y-31622997D01*
X32593427Y-31622997D01*
X32588794Y-31555268D01*
X32588500Y-31546669D01*
X32588500Y-31484809D01*
X32588500Y-31484802D01*
X32579590Y-31417133D01*
X32578808Y-31409295D01*
X32573743Y-31335228D01*
X32573742Y-31335222D01*
X32561221Y-31274969D01*
X32559668Y-31265805D01*
X32552423Y-31210769D01*
X32533106Y-31138681D01*
X32531457Y-31131741D01*
X32515055Y-31052804D01*
X32496579Y-31000818D01*
X32493600Y-30991243D01*
X32480886Y-30943792D01*
X32449903Y-30868992D01*
X32447587Y-30862967D01*
X32418463Y-30781018D01*
X32418460Y-30781012D01*
X32418459Y-30781008D01*
X32396011Y-30737687D01*
X32391478Y-30727941D01*
X32375117Y-30688439D01*
X32375111Y-30688428D01*
X32331450Y-30612805D01*
X32328715Y-30607810D01*
X32285753Y-30524897D01*
X32261288Y-30490239D01*
X32255107Y-30480577D01*
X32236915Y-30449067D01*
X32236912Y-30449063D01*
X32179869Y-30374722D01*
X32176913Y-30370706D01*
X32176908Y-30370699D01*
X32119409Y-30289242D01*
X32119407Y-30289239D01*
X32119405Y-30289237D01*
X32094808Y-30262900D01*
X32086938Y-30253612D01*
X32068656Y-30229786D01*
X31997880Y-30159010D01*
X31994919Y-30155946D01*
X31922529Y-30078435D01*
X31922526Y-30078432D01*
X31899510Y-30059707D01*
X31889940Y-30051070D01*
X31873214Y-30034344D01*
X31873212Y-30034343D01*
X31873207Y-30034338D01*
X31788800Y-29969572D01*
X31785985Y-29967348D01*
X31698770Y-29896392D01*
X31678868Y-29884290D01*
X31667635Y-29876599D01*
X31653933Y-29866085D01*
X31653929Y-29866083D01*
X31653927Y-29866081D01*
X31556314Y-29809724D01*
X31553846Y-29808262D01*
X31452314Y-29746519D01*
X31436789Y-29739775D01*
X31424003Y-29733333D01*
X31414567Y-29727886D01*
X31414565Y-29727885D01*
X31414563Y-29727884D01*
X31414554Y-29727879D01*
X31304518Y-29682300D01*
X31302540Y-29681461D01*
X31187755Y-29631604D01*
X31187748Y-29631602D01*
X31187744Y-29631600D01*
X31177581Y-29628752D01*
X31163380Y-29623841D01*
X31159213Y-29622115D01*
X31159210Y-29622114D01*
X31038022Y-29589640D01*
X31036642Y-29589262D01*
X30936274Y-29561141D01*
X30909989Y-29553777D01*
X30905854Y-29553208D01*
X30896290Y-29551278D01*
X30896270Y-29551381D01*
X30892239Y-29550579D01*
X30892231Y-29550577D01*
X30847005Y-29544622D01*
X30761478Y-29533363D01*
X30760768Y-29533267D01*
X30624237Y-29514500D01*
X30624225Y-29514500D01*
X30335775Y-29514500D01*
X30335761Y-29514500D01*
X30199230Y-29533267D01*
X30198520Y-29533363D01*
X30067771Y-29550576D01*
X30063728Y-29551381D01*
X30063707Y-29551278D01*
X30054141Y-29553209D01*
X30050020Y-29553775D01*
X30050004Y-29553778D01*
X29923274Y-29589285D01*
X29921894Y-29589663D01*
X29800803Y-29622109D01*
X29800785Y-29622116D01*
X29796617Y-29623842D01*
X29782422Y-29628750D01*
X29772264Y-29631597D01*
X29772254Y-29631600D01*
X29657430Y-29681474D01*
X29655452Y-29682313D01*
X29545445Y-29727880D01*
X29545424Y-29727890D01*
X29535988Y-29733337D01*
X29523209Y-29739775D01*
X29507682Y-29746520D01*
X29406170Y-29808251D01*
X29403704Y-29809712D01*
X29306084Y-29866073D01*
X29306063Y-29866088D01*
X29292365Y-29876598D01*
X29281139Y-29884285D01*
X29261226Y-29896395D01*
X29174025Y-29967338D01*
X29171213Y-29969560D01*
X29086785Y-30034344D01*
X29070058Y-30051071D01*
X29060485Y-30059710D01*
X29037476Y-30078429D01*
X28965092Y-30155932D01*
X28962105Y-30159023D01*
X28891343Y-30229786D01*
X28873052Y-30253621D01*
X28865183Y-30262909D01*
X28840594Y-30289238D01*
X28840590Y-30289243D01*
X28783090Y-30370699D01*
X28780118Y-30374736D01*
X28723087Y-30449063D01*
X28704893Y-30480576D01*
X28698714Y-30490233D01*
X28674248Y-30524893D01*
X28674247Y-30524895D01*
X28631301Y-30607776D01*
X28628548Y-30612805D01*
X28584891Y-30688422D01*
X28584882Y-30688440D01*
X28568518Y-30727945D01*
X28563986Y-30737688D01*
X28541542Y-30781004D01*
X28541539Y-30781010D01*
X28512406Y-30862982D01*
X28510092Y-30869002D01*
X28479113Y-30943792D01*
X28479110Y-30943803D01*
X28466397Y-30991247D01*
X28463416Y-31000827D01*
X28444945Y-31052799D01*
X28444945Y-31052800D01*
X28428540Y-31131741D01*
X28426883Y-31138712D01*
X28407578Y-31210764D01*
X28407575Y-31210777D01*
X28400331Y-31265800D01*
X28398774Y-31274984D01*
X28386260Y-31335210D01*
X28386257Y-31335228D01*
X28381190Y-31409302D01*
X28380406Y-31417146D01*
X28371500Y-31484795D01*
X28371500Y-31546669D01*
X28371206Y-31555268D01*
X28366573Y-31622997D01*
X27405500Y-31622997D01*
X27405500Y-28674500D01*
X27425502Y-28606379D01*
X27479158Y-28559886D01*
X27531500Y-28548500D01*
X115978500Y-28548500D01*
X116046621Y-28568502D01*
G37*
%TD.AperFunction*%
%TD*%
M02*
